<svg width="20" height="20" viewBox="0 0 20 20" fill="none" xmlns="http://www.w3.org/2000/svg">
<path d="M1.66436 20C1.22053 20 0.832178 19.8333 0.499307 19.5C0.166436 19.1667 0 18.7778 0 18.3333V1.66667C0 1.22222 0.166436 0.833333 0.499307 0.5C0.832178 0.166667 1.22053 0 1.66436 0H12.1775C12.4179 0 12.6167 0.0787038 12.7739 0.236111C12.9311 0.393519 13.0097 0.592593 13.0097 0.833333C13.0097 1.07407 12.9311 1.27315 12.7739 1.43056C12.6167 1.58796 12.4179 1.66667 12.1775 1.66667H1.66436V18.3333H18.3079V7.83333C18.3079 7.59259 18.3865 7.39352 18.5437 7.23611C18.7009 7.0787 18.8997 7 19.1401 7C19.3805 7 19.5793 7.0787 19.7365 7.23611C19.8937 7.39352 19.9723 7.59259 19.9723 7.83333V18.3333C19.9723 18.7778 19.8058 19.1667 19.473 19.5C19.1401 19.8333 18.7517 20 18.3079 20H1.66436ZM16.9209 6.16667C16.6805 6.16667 16.4817 6.08796 16.3245 5.93056C16.1674 5.77315 16.0888 5.57407 16.0888 5.33333V3.91667H14.6741C14.4337 3.91667 14.2349 3.83796 14.0777 3.68056C13.9205 3.52315 13.8419 3.32407 13.8419 3.08333C13.8419 2.84259 13.9205 2.64352 14.0777 2.48611C14.2349 2.3287 14.4337 2.25 14.6741 2.25H16.0888V0.833333C16.0888 0.592593 16.1674 0.393519 16.3245 0.236111C16.4817 0.0787038 16.6805 0 16.9209 0C17.1614 0 17.3601 0.0787038 17.5173 0.236111C17.6745 0.393519 17.7531 0.592593 17.7531 0.833333V2.25H19.1678C19.4082 2.25 19.607 2.3287 19.7642 2.48611C19.9214 2.64352 20 2.84259 20 3.08333C20 3.32407 19.9214 3.52315 19.7642 3.68056C19.607 3.83796 19.4082 3.91667 19.1678 3.91667H17.7531V5.33333C17.7531 5.57407 17.6745 5.77315 17.5173 5.93056C17.3601 6.08796 17.1614 6.16667 16.9209 6.16667ZM4.18863 15.5H15.8114C15.9963 15.5 16.1258 15.4259 16.1997 15.2778C16.2737 15.1296 16.2552 14.9815 16.1442 14.8333L12.982 10.6111C12.8895 10.5 12.7785 10.4444 12.6491 10.4444C12.5196 10.4444 12.4087 10.5 12.3162 10.6111L9.12621 14.8056L6.85159 11.8056C6.75913 11.6944 6.64817 11.6389 6.51872 11.6389C6.38927 11.6389 6.27832 11.6944 6.18585 11.8056L3.85576 14.8333C3.76329 14.9815 3.75867 15.1296 3.84189 15.2778C3.9251 15.4259 4.04068 15.5 4.18863 15.5ZM1.66436 7.83333V18.3333V1.66667V5.47222C1.66436 5.71296 1.66436 5.91204 1.66436 6.06944C1.66436 6.22685 1.66436 6.30556 1.66436 6.30556V7C1.66436 7.24074 1.66436 7.43981 1.66436 7.59722C1.66436 7.75463 1.66436 7.83333 1.66436 7.83333Z" fill="white"/>
</svg>
