<svg width="90" height="90" viewBox="0 0 90 90" fill="none" xmlns="http://www.w3.org/2000/svg">
<g clip-path="url(#clip0_797_420)">
<path d="M7.4896 90C5.49237 90 3.7448 89.25 2.24688 87.75C0.74896 86.25 0 84.5 0 82.5V7.5C0 5.5 0.74896 3.75 2.24688 2.25C3.7448 0.75 5.49237 0 7.4896 0H54.7989C55.8807 0 56.7753 0.354167 57.4827 1.0625C58.19 1.77083 58.5437 2.66667 58.5437 3.75C58.5437 4.83333 58.19 5.72917 57.4827 6.4375C56.7753 7.14583 55.8807 7.5 54.7989 7.5H7.4896V82.5H82.3856V35.25C82.3856 34.1667 82.7393 33.2708 83.4466 32.5625C84.154 31.8542 85.0485 31.5 86.1304 31.5C87.2122 31.5 88.1068 31.8542 88.8142 32.5625C89.5215 33.2708 89.8752 34.1667 89.8752 35.25V82.5C89.8752 84.5 89.1262 86.25 87.6283 87.75C86.1304 89.25 84.3828 90 82.3856 90H7.4896ZM76.1442 27.75C75.0624 27.75 74.1678 27.3958 73.4605 26.6875C72.7531 25.9792 72.3994 25.0833 72.3994 24V17.625H66.0333C64.9515 17.625 64.0569 17.2708 63.3495 16.5625C62.6422 15.8542 62.2885 14.9583 62.2885 13.875C62.2885 12.7917 62.6422 11.8958 63.3495 11.1875C64.0569 10.4792 64.9515 10.125 66.0333 10.125H72.3994V3.75C72.3994 2.66667 72.7531 1.77083 73.4605 1.0625C74.1678 0.354167 75.0624 0 76.1442 0C77.2261 0 78.1207 0.354167 78.828 1.0625C79.5354 1.77083 79.889 2.66667 79.889 3.75V10.125H86.2552C87.337 10.125 88.2316 10.4792 88.939 11.1875C89.6463 11.8958 90 12.7917 90 13.875C90 14.9583 89.6463 15.8542 88.939 16.5625C88.2316 17.2708 87.337 17.625 86.2552 17.625H79.889V24C79.889 25.0833 79.5354 25.9792 78.828 26.6875C78.1207 27.3958 77.2261 27.75 76.1442 27.75ZM18.8488 69.75H71.1512C71.9834 69.75 72.5659 69.4167 72.8988 68.75C73.2316 68.0833 73.1484 67.4167 72.6491 66.75L58.4189 47.75C58.0028 47.25 57.5035 47 56.9209 47C56.3384 47 55.8391 47.25 55.423 47.75L41.068 66.625L30.8322 53.125C30.4161 52.625 29.9168 52.375 29.3343 52.375C28.7517 52.375 28.2524 52.625 27.8363 53.125L17.3509 66.75C16.9348 67.4167 16.914 68.0833 17.2885 68.75C17.663 69.4167 18.1831 69.75 18.8488 69.75ZM7.4896 35.25V82.5V7.5V24.625C7.4896 25.7083 7.4896 26.6042 7.4896 27.3125C7.4896 28.0208 7.4896 28.375 7.4896 28.375V31.5C7.4896 32.5833 7.4896 33.4792 7.4896 34.1875C7.4896 34.8958 7.4896 35.25 7.4896 35.25Z" fill="white" fill-opacity="0.25"/>
</g>
<defs>
<clipPath id="clip0_797_420">
<rect width="90" height="90" fill="white"/>
</clipPath>
</defs>
</svg>
