<?xml version="1.0" encoding="utf-8"?>
<!-- Generator: Adobe Illustrator 16.0.2, SVG Export Plug-In . SVG Version: 6.00 Build 0)  -->
<!DOCTYPE svg PUBLIC "-//W3C//DTD SVG 1.1//EN" "http://www.w3.org/Graphics/SVG/1.1/DTD/svg11.dtd">
<svg version="1.1" id="Capa_1" xmlns="http://www.w3.org/2000/svg" xmlns:xlink="http://www.w3.org/1999/xlink" x="0px" y="0px"
	 width="612px" height="792px" viewBox="0 0 612 792" enable-background="new 0 0 612 792" xml:space="preserve">
<path fill="#FFFFFF" d="M557.308,297.692c22.904,0,41.538-18.634,41.538-41.539v-69.231c0-22.904-18.634-41.538-41.538-41.538h-27.7
	C523.174,113.822,495.202,90,461.77,90H126.692c-38.174,0-69.231,31.057-69.231,69.231v15.23H27
	c-7.646,0-13.846,6.199-13.846,13.846c0,7.647,6.2,13.846,13.846,13.846h30.461v110.769H27c-7.646,0-13.846,6.199-13.846,13.846
	c0,7.647,6.2,13.846,13.846,13.846h30.461v110.77H27c-7.646,0-13.846,6.199-13.846,13.846c0,7.647,6.2,13.847,13.846,13.847h30.461
	v110.769H27c-7.646,0-13.846,6.199-13.846,13.847s6.2,13.846,13.846,13.846h30.461v15.231c0,38.174,31.057,69.23,69.231,69.23
	H461.77c33.433,0,61.404-23.822,67.838-55.385h27.7c22.904,0,41.538-18.634,41.538-41.538v-69.231
	c0-22.904-18.634-41.538-41.538-41.538H531v-22.153h26.308c22.904,0,41.538-18.635,41.538-41.539v-69.23
	c0-22.904-18.634-41.539-41.538-41.539H531v-22.154H557.308z M571.154,186.923v69.231c0,7.635-6.212,13.846-13.847,13.846H531
	v-96.923h26.308C564.942,173.077,571.154,179.288,571.154,186.923z M461.77,674.308H198.692v-110.77
	c0-7.646-6.2-13.846-13.846-13.846S171,555.892,171,563.538v110.77h-44.308c-22.904,0-41.539-18.634-41.539-41.538v-15.231h30.461
	c7.646,0,13.846-6.198,13.846-13.846s-6.2-13.847-13.846-13.847H85.154V479.077h30.461c7.646,0,13.846-6.199,13.846-13.847
	c0-7.646-6.2-13.846-13.846-13.846H85.154v-110.77h30.461c7.646,0,13.846-6.199,13.846-13.846c0-7.647-6.2-13.846-13.846-13.846
	H85.154V202.154h30.461c7.646,0,13.846-6.199,13.846-13.846c0-7.647-6.2-13.846-13.846-13.846H85.154v-15.23
	c0-22.904,18.634-41.539,41.539-41.539H171v398.619c0,7.647,6.2,13.847,13.846,13.847s13.846-6.199,13.846-13.847V117.692H461.77
	c22.904,0,41.538,18.634,41.538,41.539V632.77C503.308,655.674,484.674,674.308,461.77,674.308z M557.308,522
	c7.635,0,13.847,6.211,13.847,13.846v69.231c0,7.635-6.212,13.846-13.847,13.846H531V522H557.308z M557.308,347.539
	c7.635,0,13.847,6.211,13.847,13.846v69.23c0,7.635-6.212,13.847-13.847,13.847H531v-96.923H557.308z"/>
</svg>
