<?xml version="1.0" encoding="utf-8"?>
<!-- Generator: Adobe Illustrator 16.0.2, SVG Export Plug-In . SVG Version: 6.00 Build 0)  -->
<!DOCTYPE svg PUBLIC "-//W3C//DTD SVG 1.1//EN" "http://www.w3.org/Graphics/SVG/1.1/DTD/svg11.dtd">
<svg version="1.1" id="Camada_1" xmlns="http://www.w3.org/2000/svg" xmlns:xlink="http://www.w3.org/1999/xlink" x="0px" y="0px"
	 width="512px" height="512px" viewBox="0 0 512 512" enable-background="new 0 0 512 512" xml:space="preserve">
<g id="Layer_2">
	<path fill="#FFFFFF" d="M467.36,189.44c-34.28-4.979-58.032-36.805-53.053-71.084c0.682-4.694,1.894-9.295,3.612-13.715
		c4.456-11.786,0.919-25.101-8.8-33.12c-20.928-17.573-44.748-31.378-70.4-40.8c-11.98-4.451-25.466-0.708-33.439,9.28
		c-21.284,27.217-60.603,32.025-87.819,10.741c-4.003-3.131-7.611-6.738-10.741-10.741c-7.974-9.988-21.459-13.73-33.44-9.28
		c-23.685,8.698-45.831,21.121-65.6,36.8c-10.229,8.098-13.991,21.914-9.28,34.08c13.048,31.897-2.231,68.332-34.128,81.38
		c-5.708,2.335-11.73,3.811-17.872,4.379c-12.941,1.384-23.461,11.059-25.92,23.84C17.501,225.947,16,240.955,16,256
		c-0.022,12.596,0.995,25.172,3.04,37.6c2.092,13.209,12.782,23.375,26.08,24.801c34.312,3.22,59.517,33.645,56.297,67.957
		c-0.656,6.99-2.487,13.821-5.417,20.203c-5.599,12.122-2.235,26.499,8.16,34.88c20.802,17.254,44.393,30.835,69.76,40.159
		c3.244,1.124,6.647,1.718,10.08,1.761c9.551-0.021,18.498-4.674,24-12.48c11.578-16.868,30.741-26.929,51.2-26.88
		c19.798,0.025,38.422,9.396,50.24,25.28c7.972,10.716,22.159,14.723,34.56,9.76c23.195-9.335,44.789-22.237,64-38.24
		c9.901-8.186,13.392-21.823,8.64-33.76c-13.409-31.747,1.455-68.353,33.202-81.763c5.389-2.276,11.07-3.783,16.878-4.478
		c12.778-1.767,22.94-11.605,25.12-24.319c2.57-13.346,3.962-26.892,4.16-40.48c0.003-14.333-1.336-28.636-4-42.72
		C489.784,200.853,479.854,191.245,467.36,189.44L467.36,189.44z M336,256c0,44.183-35.817,80-80,80s-80-35.817-80-80
		s35.817-80,80-80S336,211.817,336,256z"/>
</g>
</svg>
