<svg width="20" height="23" viewBox="0 0 20 23" fill="none" xmlns="http://www.w3.org/2000/svg">
<path d="M5.51103 19.1427C5.04126 19.1427 4.64195 18.9785 4.31311 18.6501C3.98427 18.3216 3.81985 17.9228 3.81985 17.4536V1.68906C3.81985 1.21988 3.98427 0.821072 4.31311 0.492643C4.64195 0.164214 5.04126 0 5.51103 0H17.913C18.3828 0 18.7821 0.164214 19.1109 0.492643C19.4397 0.821072 19.6042 1.21988 19.6042 1.68906V17.4536C19.6042 17.9228 19.4397 18.3216 19.1109 18.6501C18.7821 18.9785 18.3828 19.1427 17.913 19.1427H5.51103ZM5.51103 17.4536H17.913V1.68906H5.51103V17.4536ZM2.12868 22.5208C1.65891 22.5208 1.2596 22.3566 0.93076 22.0282C0.60192 21.6998 0.4375 21.301 0.4375 20.8318V4.70122C0.4375 4.45725 0.517361 4.2555 0.677083 4.09598C0.836806 3.93645 1.03881 3.85669 1.28309 3.85669C1.52737 3.85669 1.72937 3.93645 1.88909 4.09598C2.04882 4.2555 2.12868 4.45725 2.12868 4.70122V20.8318H14.6434C14.8877 20.8318 15.0897 20.9115 15.2494 21.0711C15.4091 21.2306 15.489 21.4323 15.489 21.6763C15.489 21.9203 15.4091 22.122 15.2494 22.2815C15.0897 22.4411 14.8877 22.5208 14.6434 22.5208H2.12868ZM5.51103 1.68906V17.4536V1.68906Z" fill="white"/>
</svg>
