<svg xmlns="http://www.w3.org/2000/svg" viewBox="0 0 651.56 649.95"><g id="Layer_2" data-name="Layer 2"><g id="Layer_1-2" data-name="Layer 1"><path d="M0,1A1,1,0,0,1,.28.29.91.91,0,0,1,1,0,1,1,0,0,1,2,1a.91.91,0,0,1-.29.68A1,1,0,0,1,1,2a.9.9,0,0,1-.68-.28A.9.9,0,0,1,0,1Z"/><path d="M24.06,1a1,1,0,0,1,.28-.7A.91.91,0,0,1,25,0a1,1,0,0,1,1,1,.91.91,0,0,1-.29.68A1,1,0,0,1,25,2a.9.9,0,0,1-.68-.28A.9.9,0,0,1,24.06,1Z"/><path d="M48.12,1a1,1,0,0,1,.28-.7A.91.91,0,0,1,49.08,0a1,1,0,0,1,1,1,.91.91,0,0,1-.29.68,1,1,0,0,1-.7.28.9.9,0,0,1-.68-.28A.9.9,0,0,1,48.12,1Z"/><path d="M72.18,1a1,1,0,0,1,.28-.7A.91.91,0,0,1,73.14,0a1,1,0,0,1,1,1,.91.91,0,0,1-.29.68,1,1,0,0,1-.7.28.9.9,0,0,1-.68-.28A.9.9,0,0,1,72.18,1Z"/><path d="M96.24,1a1,1,0,0,1,.28-.7A.91.91,0,0,1,97.2,0a1,1,0,0,1,1,1,.91.91,0,0,1-.29.68,1,1,0,0,1-.7.28.9.9,0,0,1-.68-.28A.9.9,0,0,1,96.24,1Z"/><path d="M120.3,1a1,1,0,0,1,.28-.7.91.91,0,0,1,.68-.29,1,1,0,0,1,1,1,.91.91,0,0,1-.29.68,1,1,0,0,1-.7.28.9.9,0,0,1-.68-.28A.9.9,0,0,1,120.3,1Z"/><path d="M144.36,1a1,1,0,0,1,.28-.7.91.91,0,0,1,.68-.29,1,1,0,0,1,1,1,.91.91,0,0,1-.29.68,1,1,0,0,1-.7.28.9.9,0,0,1-.68-.28A.9.9,0,0,1,144.36,1Z"/><path d="M168.42,1a1,1,0,0,1,.27-.7,1,1,0,0,1,1.38,0,1,1,0,0,1,.3.7.88.88,0,0,1-.3.68A1,1,0,0,1,168.42,1Z"/><path d="M192.48,1a1,1,0,0,1,.27-.7,1,1,0,0,1,1.38,0,1,1,0,0,1,.3.7.88.88,0,0,1-.3.68A1,1,0,0,1,192.48,1Z"/><path d="M216.54,1a1,1,0,0,1,.27-.7,1,1,0,0,1,1.38,0,1,1,0,0,1,.3.7.88.88,0,0,1-.3.68A1,1,0,0,1,216.54,1Z"/><path d="M240.6,1a1,1,0,0,1,.27-.7,1,1,0,0,1,1.38,0,1,1,0,0,1,.3.7.88.88,0,0,1-.3.68A1,1,0,0,1,240.6,1Z"/><path d="M264.66,1a1,1,0,0,1,.27-.7,1,1,0,0,1,1.38,0,1,1,0,0,1,.3.7.88.88,0,0,1-.3.68A1,1,0,0,1,264.66,1Z"/><path d="M288.71,1a1,1,0,0,1,.28-.7.92.92,0,0,1,.68-.29,1,1,0,0,1,.7.29,1,1,0,0,1,.3.7.88.88,0,0,1-.3.68,1,1,0,0,1-.7.28.91.91,0,0,1-.68-.28A.94.94,0,0,1,288.71,1Z"/><path d="M312.77,1a1,1,0,0,1,.28-.7.92.92,0,0,1,.68-.29,1,1,0,0,1,.7.29.94.94,0,0,1,.29.7.87.87,0,0,1-.29.68,1,1,0,0,1-.7.28.91.91,0,0,1-.68-.28A.94.94,0,0,1,312.77,1Z"/><path d="M336.83,1a1,1,0,0,1,.28-.7.92.92,0,0,1,.68-.29,1,1,0,0,1,.7.29.94.94,0,0,1,.29.7.87.87,0,0,1-.29.68,1,1,0,0,1-.7.28.91.91,0,0,1-.68-.28A.94.94,0,0,1,336.83,1Z"/><path d="M360.89,1a1,1,0,0,1,.28-.7.92.92,0,0,1,.68-.29,1,1,0,0,1,.7.29.94.94,0,0,1,.29.7.87.87,0,0,1-.29.68,1,1,0,0,1-.7.28.91.91,0,0,1-.68-.28A.94.94,0,0,1,360.89,1Z"/><path d="M385,1a1,1,0,0,1,.28-.7.92.92,0,0,1,.68-.29,1,1,0,0,1,.7.29.94.94,0,0,1,.29.7.87.87,0,0,1-.29.68,1,1,0,0,1-.7.28.91.91,0,0,1-.68-.28A.94.94,0,0,1,385,1Z"/><path d="M409,1a1,1,0,0,1,.28-.7A.92.92,0,0,1,410,0a1,1,0,0,1,.7.29A.94.94,0,0,1,411,1a.87.87,0,0,1-.29.68A1,1,0,0,1,410,2a.91.91,0,0,1-.68-.28A.9.9,0,0,1,409,1Z"/><path d="M433.07,1a1,1,0,0,1,.28-.7A.91.91,0,0,1,434,0a1,1,0,0,1,1,1,.91.91,0,0,1-.29.68A1,1,0,0,1,434,2a.9.9,0,0,1-.68-.28A.9.9,0,0,1,433.07,1Z"/><path d="M457.13,1a1,1,0,0,1,.28-.7.91.91,0,0,1,.68-.29,1,1,0,0,1,1,1,.91.91,0,0,1-.29.68,1,1,0,0,1-.7.28.9.9,0,0,1-.68-.28A.9.9,0,0,1,457.13,1Z"/><path d="M481.19,1a1,1,0,0,1,.28-.7.91.91,0,0,1,.68-.29,1,1,0,0,1,1,1,.91.91,0,0,1-.29.68,1,1,0,0,1-.7.28.9.9,0,0,1-.68-.28A.9.9,0,0,1,481.19,1Z"/><path d="M505.25,1a1,1,0,0,1,.28-.7.91.91,0,0,1,.68-.29,1,1,0,0,1,1,1,.91.91,0,0,1-.29.68,1,1,0,0,1-.7.28.9.9,0,0,1-.68-.28A.9.9,0,0,1,505.25,1Z"/><path d="M529.31,1a1,1,0,0,1,.28-.7.91.91,0,0,1,.68-.29,1,1,0,0,1,1,1,.91.91,0,0,1-.29.68,1,1,0,0,1-.7.28.9.9,0,0,1-.68-.28A.9.9,0,0,1,529.31,1Z"/><path d="M553.37,1a1,1,0,0,1,.28-.7.91.91,0,0,1,.68-.29,1,1,0,0,1,1,1,.91.91,0,0,1-.29.68,1,1,0,0,1-.7.28.9.9,0,0,1-.68-.28A.9.9,0,0,1,553.37,1Z"/><path d="M577.43,1a1,1,0,0,1,.28-.7.91.91,0,0,1,.68-.29,1,1,0,0,1,1,1,.91.91,0,0,1-.29.68,1,1,0,0,1-.7.28.9.9,0,0,1-.68-.28A.9.9,0,0,1,577.43,1Z"/><path d="M601.49,1a1,1,0,0,1,.28-.7.91.91,0,0,1,.68-.29,1,1,0,0,1,1,1,.91.91,0,0,1-.29.68,1,1,0,0,1-.7.28.9.9,0,0,1-.68-.28A.9.9,0,0,1,601.49,1Z"/><path d="M625.55,1a1,1,0,0,1,.28-.7.91.91,0,0,1,.68-.29,1,1,0,0,1,1,1,.91.91,0,0,1-.29.68,1,1,0,0,1-.7.28.9.9,0,0,1-.68-.28A.9.9,0,0,1,625.55,1Z"/><path d="M649.61,1a1,1,0,0,1,.28-.7.91.91,0,0,1,.68-.29,1,1,0,0,1,1,1,.91.91,0,0,1-.29.68,1,1,0,0,1-.7.28.9.9,0,0,1-.68-.28A.9.9,0,0,1,649.61,1Z"/><path d="M0,37a1,1,0,0,1,.28-.7A.91.91,0,0,1,1,36a1,1,0,0,1,1,1,.91.91,0,0,1-.29.68A1,1,0,0,1,1,38a.9.9,0,0,1-.68-.28A.9.9,0,0,1,0,37Z"/><path d="M24.06,37a1,1,0,0,1,.28-.7A.91.91,0,0,1,25,36a1,1,0,0,1,1,1,.91.91,0,0,1-.29.68A1,1,0,0,1,25,38a1,1,0,0,1-1-1Z"/><path d="M48.12,37a1,1,0,0,1,.28-.7.91.91,0,0,1,.68-.29,1,1,0,0,1,1,1,.91.91,0,0,1-.29.68,1,1,0,0,1-.7.28,1,1,0,0,1-1-1Z"/><path d="M72.18,37a1,1,0,0,1,.28-.7.91.91,0,0,1,.68-.29,1,1,0,0,1,1,1,.91.91,0,0,1-.29.68,1,1,0,0,1-.7.28,1,1,0,0,1-1-1Z"/><path d="M96.24,37a1,1,0,0,1,.28-.7A.91.91,0,0,1,97.2,36a1,1,0,0,1,1,1,.91.91,0,0,1-.29.68,1,1,0,0,1-.7.28,1,1,0,0,1-1-1Z"/><path d="M120.3,37a1,1,0,0,1,.28-.7.91.91,0,0,1,.68-.29,1,1,0,0,1,1,1,.91.91,0,0,1-.29.68,1,1,0,0,1-.7.28,1,1,0,0,1-1-1Z"/><path d="M144.36,37a1,1,0,0,1,.28-.7.91.91,0,0,1,.68-.29,1,1,0,0,1,1,1,.91.91,0,0,1-.29.68,1,1,0,0,1-.7.28,1,1,0,0,1-1-1Z"/><path d="M168.42,37a1,1,0,0,1,.27-.7,1,1,0,0,1,1.38,0,1,1,0,0,1,.3.7.88.88,0,0,1-.3.68,1,1,0,0,1-1.65-.68Z"/><path d="M192.48,37a1,1,0,0,1,.27-.7,1,1,0,0,1,1.38,0,1,1,0,0,1,.3.7.88.88,0,0,1-.3.68,1,1,0,0,1-1.65-.68Z"/><path d="M216.54,37a1,1,0,0,1,.27-.7,1,1,0,0,1,1.38,0,1,1,0,0,1,.3.7.88.88,0,0,1-.3.68,1,1,0,0,1-1.65-.68Z"/><path d="M240.6,37a1,1,0,0,1,.27-.7,1,1,0,0,1,1.38,0,1,1,0,0,1,.3.7.88.88,0,0,1-.3.68A1,1,0,0,1,240.6,37Z"/><path d="M264.66,37a1,1,0,0,1,.27-.7,1,1,0,0,1,1.38,0,1,1,0,0,1,.3.7.88.88,0,0,1-.3.68,1,1,0,0,1-1.65-.68Z"/><path d="M288.71,37a1,1,0,0,1,.28-.7.92.92,0,0,1,.68-.29,1,1,0,0,1,.7.29,1,1,0,0,1,.3.7.88.88,0,0,1-.3.68,1,1,0,0,1-.7.28.91.91,0,0,1-.68-.28A.94.94,0,0,1,288.71,37Z"/><path d="M312.77,37a1,1,0,0,1,.28-.7.92.92,0,0,1,.68-.29,1,1,0,0,1,.7.29.94.94,0,0,1,.29.7.87.87,0,0,1-.29.68,1,1,0,0,1-.7.28.91.91,0,0,1-.68-.28A.94.94,0,0,1,312.77,37Z"/><path d="M336.83,37a1,1,0,0,1,.28-.7.92.92,0,0,1,.68-.29,1,1,0,0,1,.7.29.94.94,0,0,1,.29.7.87.87,0,0,1-.29.68,1,1,0,0,1-.7.28.91.91,0,0,1-.68-.28A.94.94,0,0,1,336.83,37Z"/><path d="M360.89,37a1,1,0,0,1,.28-.7.92.92,0,0,1,.68-.29,1,1,0,0,1,.7.29.94.94,0,0,1,.29.7.87.87,0,0,1-.29.68,1,1,0,0,1-.7.28.91.91,0,0,1-.68-.28A.94.94,0,0,1,360.89,37Z"/><path d="M385,37a1,1,0,0,1,.28-.7.92.92,0,0,1,.68-.29,1,1,0,0,1,.7.29.94.94,0,0,1,.29.7.87.87,0,0,1-.29.68,1,1,0,0,1-.7.28.91.91,0,0,1-.68-.28A.94.94,0,0,1,385,37Z"/><path d="M409,37a1,1,0,0,1,.28-.7A.92.92,0,0,1,410,36a1,1,0,0,1,.7.29.94.94,0,0,1,.29.7.87.87,0,0,1-.29.68,1,1,0,0,1-.7.28.91.91,0,0,1-.68-.28A.9.9,0,0,1,409,37Z"/><path d="M433.07,37a1,1,0,0,1,.28-.7A.91.91,0,0,1,434,36a1,1,0,0,1,1,1,.91.91,0,0,1-.29.68,1,1,0,0,1-.7.28,1,1,0,0,1-1-1Z"/><path d="M457.13,37a1,1,0,0,1,.28-.7.91.91,0,0,1,.68-.29,1,1,0,0,1,1,1,.91.91,0,0,1-.29.68,1,1,0,0,1-.7.28,1,1,0,0,1-1-1Z"/><path d="M481.19,37a1,1,0,0,1,.28-.7.91.91,0,0,1,.68-.29,1,1,0,0,1,1,1,.91.91,0,0,1-.29.68,1,1,0,0,1-.7.28,1,1,0,0,1-1-1Z"/><path d="M505.25,37a1,1,0,0,1,.28-.7.91.91,0,0,1,.68-.29,1,1,0,0,1,1,1,.91.91,0,0,1-.29.68,1,1,0,0,1-.7.28,1,1,0,0,1-1-1Z"/><path d="M529.31,37a1,1,0,0,1,.28-.7.91.91,0,0,1,.68-.29,1,1,0,0,1,1,1,.91.91,0,0,1-.29.68,1,1,0,0,1-.7.28,1,1,0,0,1-1-1Z"/><path d="M553.37,37a1,1,0,0,1,.28-.7.91.91,0,0,1,.68-.29,1,1,0,0,1,1,1,.91.91,0,0,1-.29.68,1,1,0,0,1-.7.28,1,1,0,0,1-1-1Z"/><path d="M577.43,37a1,1,0,0,1,.28-.7.91.91,0,0,1,.68-.29,1,1,0,0,1,1,1,.91.91,0,0,1-.29.68,1,1,0,0,1-.7.28,1,1,0,0,1-1-1Z"/><path d="M601.49,37a1,1,0,0,1,.28-.7.91.91,0,0,1,.68-.29,1,1,0,0,1,1,1,.91.91,0,0,1-.29.68,1,1,0,0,1-.7.28,1,1,0,0,1-1-1Z"/><path d="M625.55,37a1,1,0,0,1,.28-.7.91.91,0,0,1,.68-.29,1,1,0,0,1,1,1,.91.91,0,0,1-.29.68,1,1,0,0,1-.7.28,1,1,0,0,1-1-1Z"/><path d="M649.61,37a1,1,0,0,1,.28-.7.91.91,0,0,1,.68-.29,1,1,0,0,1,1,1,.91.91,0,0,1-.29.68,1,1,0,0,1-.7.28,1,1,0,0,1-1-1Z"/><path d="M0,73a1,1,0,0,1,.28-.7A.91.91,0,0,1,1,72a1,1,0,0,1,1,1,.91.91,0,0,1-.29.68A1,1,0,0,1,1,74a.9.9,0,0,1-.68-.28A.9.9,0,0,1,0,73Z"/><path d="M24.06,73a1,1,0,0,1,.28-.7A.91.91,0,0,1,25,72a1,1,0,0,1,1,1,.91.91,0,0,1-.29.68A1,1,0,0,1,25,74a1,1,0,0,1-1-1Z"/><path d="M48.12,73a1,1,0,0,1,.28-.7.91.91,0,0,1,.68-.29,1,1,0,0,1,1,1,.91.91,0,0,1-.29.68,1,1,0,0,1-.7.28,1,1,0,0,1-1-1Z"/><path d="M72.18,73a1,1,0,0,1,.28-.7.91.91,0,0,1,.68-.29,1,1,0,0,1,1,1,.91.91,0,0,1-.29.68,1,1,0,0,1-.7.28,1,1,0,0,1-1-1Z"/><path d="M96.24,73a1,1,0,0,1,.28-.7A.91.91,0,0,1,97.2,72a1,1,0,0,1,1,1,.91.91,0,0,1-.29.68,1,1,0,0,1-.7.28,1,1,0,0,1-1-1Z"/><path d="M120.3,73a1,1,0,0,1,.28-.7.91.91,0,0,1,.68-.29,1,1,0,0,1,1,1,.91.91,0,0,1-.29.68,1,1,0,0,1-.7.28,1,1,0,0,1-1-1Z"/><path d="M144.36,73a1,1,0,0,1,.28-.7.91.91,0,0,1,.68-.29,1,1,0,0,1,1,1,.91.91,0,0,1-.29.68,1,1,0,0,1-.7.28,1,1,0,0,1-1-1Z"/><path d="M168.42,73a1,1,0,0,1,.27-.7,1,1,0,0,1,1.38,0,1,1,0,0,1,.3.7.88.88,0,0,1-.3.68,1,1,0,0,1-1.65-.68Z"/><path d="M192.48,73a1,1,0,0,1,.27-.7,1,1,0,0,1,1.38,0,1,1,0,0,1,.3.7.88.88,0,0,1-.3.68,1,1,0,0,1-1.65-.68Z"/><path d="M216.54,73a1,1,0,0,1,.27-.7,1,1,0,0,1,1.38,0,1,1,0,0,1,.3.7.88.88,0,0,1-.3.68,1,1,0,0,1-1.65-.68Z"/><path d="M240.6,73a1,1,0,0,1,.27-.7,1,1,0,0,1,1.38,0,1,1,0,0,1,.3.7.88.88,0,0,1-.3.68A1,1,0,0,1,240.6,73Z"/><path d="M264.66,73a1,1,0,0,1,.27-.7,1,1,0,0,1,1.38,0,1,1,0,0,1,.3.7.88.88,0,0,1-.3.68,1,1,0,0,1-1.65-.68Z"/><path d="M288.71,73a1,1,0,0,1,.28-.7.92.92,0,0,1,.68-.29,1,1,0,0,1,.7.29,1,1,0,0,1,.3.7.88.88,0,0,1-.3.68,1,1,0,0,1-.7.28.91.91,0,0,1-.68-.28A.94.94,0,0,1,288.71,73Z"/><path d="M312.77,73a1,1,0,0,1,.28-.7.92.92,0,0,1,.68-.29,1,1,0,0,1,.7.29.94.94,0,0,1,.29.7.87.87,0,0,1-.29.68,1,1,0,0,1-.7.28.91.91,0,0,1-.68-.28A.94.94,0,0,1,312.77,73Z"/><path d="M336.83,73a1,1,0,0,1,.28-.7.92.92,0,0,1,.68-.29,1,1,0,0,1,.7.29.94.94,0,0,1,.29.7.87.87,0,0,1-.29.68,1,1,0,0,1-.7.28.91.91,0,0,1-.68-.28A.94.94,0,0,1,336.83,73Z"/><path d="M360.89,73a1,1,0,0,1,.28-.7.92.92,0,0,1,.68-.29,1,1,0,0,1,.7.29.94.94,0,0,1,.29.7.87.87,0,0,1-.29.68,1,1,0,0,1-.7.28.91.91,0,0,1-.68-.28A.94.94,0,0,1,360.89,73Z"/><path d="M385,73a1,1,0,0,1,.28-.7.92.92,0,0,1,.68-.29,1,1,0,0,1,.7.29.94.94,0,0,1,.29.7.87.87,0,0,1-.29.68,1,1,0,0,1-.7.28.91.91,0,0,1-.68-.28A.94.94,0,0,1,385,73Z"/><path d="M409,73a1,1,0,0,1,.28-.7A.92.92,0,0,1,410,72a1,1,0,0,1,.7.29.94.94,0,0,1,.29.7.87.87,0,0,1-.29.68,1,1,0,0,1-.7.28.91.91,0,0,1-.68-.28A.9.9,0,0,1,409,73Z"/><path d="M433.07,73a1,1,0,0,1,.28-.7A.91.91,0,0,1,434,72a1,1,0,0,1,1,1,.91.91,0,0,1-.29.68,1,1,0,0,1-.7.28,1,1,0,0,1-1-1Z"/><path d="M457.13,73a1,1,0,0,1,.28-.7.91.91,0,0,1,.68-.29,1,1,0,0,1,1,1,.91.91,0,0,1-.29.68,1,1,0,0,1-.7.28,1,1,0,0,1-1-1Z"/><path d="M481.19,73a1,1,0,0,1,.28-.7.91.91,0,0,1,.68-.29,1,1,0,0,1,1,1,.91.91,0,0,1-.29.68,1,1,0,0,1-.7.28,1,1,0,0,1-1-1Z"/><path d="M505.25,73a1,1,0,0,1,.28-.7.91.91,0,0,1,.68-.29,1,1,0,0,1,1,1,.91.91,0,0,1-.29.68,1,1,0,0,1-.7.28,1,1,0,0,1-1-1Z"/><path d="M529.31,73a1,1,0,0,1,.28-.7.91.91,0,0,1,.68-.29,1,1,0,0,1,1,1,.91.91,0,0,1-.29.68,1,1,0,0,1-.7.28,1,1,0,0,1-1-1Z"/><path d="M553.37,73a1,1,0,0,1,.28-.7.91.91,0,0,1,.68-.29,1,1,0,0,1,1,1,.91.91,0,0,1-.29.68,1,1,0,0,1-.7.28,1,1,0,0,1-1-1Z"/><path d="M577.43,73a1,1,0,0,1,.28-.7.91.91,0,0,1,.68-.29,1,1,0,0,1,1,1,.91.91,0,0,1-.29.68,1,1,0,0,1-.7.28,1,1,0,0,1-1-1Z"/><path d="M601.49,73a1,1,0,0,1,.28-.7.91.91,0,0,1,.68-.29,1,1,0,0,1,1,1,.91.91,0,0,1-.29.68,1,1,0,0,1-.7.28,1,1,0,0,1-1-1Z"/><path d="M625.55,73a1,1,0,0,1,.28-.7.91.91,0,0,1,.68-.29,1,1,0,0,1,1,1,.91.91,0,0,1-.29.68,1,1,0,0,1-.7.28,1,1,0,0,1-1-1Z"/><path d="M649.61,73a1,1,0,0,1,.28-.7.91.91,0,0,1,.68-.29,1,1,0,0,1,1,1,.91.91,0,0,1-.29.68,1,1,0,0,1-.7.28,1,1,0,0,1-1-1Z"/><path d="M0,109a1,1,0,0,1,.28-.7A.91.91,0,0,1,1,108a1,1,0,0,1,1,1,.91.91,0,0,1-.29.68A1,1,0,0,1,1,110a.9.9,0,0,1-.68-.28A.9.9,0,0,1,0,109Z"/><path d="M24.06,109a1,1,0,0,1,.28-.7A.91.91,0,0,1,25,108a1,1,0,0,1,1,1,.91.91,0,0,1-.29.68,1,1,0,0,1-.7.28,1,1,0,0,1-1-1Z"/><path d="M48.12,109a1,1,0,0,1,.28-.7.91.91,0,0,1,.68-.29,1,1,0,0,1,1,1,.91.91,0,0,1-.29.68,1,1,0,0,1-.7.28,1,1,0,0,1-1-1Z"/><path d="M72.18,109a1,1,0,0,1,.28-.7.91.91,0,0,1,.68-.29,1,1,0,0,1,1,1,.91.91,0,0,1-.29.68,1,1,0,0,1-.7.28,1,1,0,0,1-1-1Z"/><path d="M96.24,109a1,1,0,0,1,.28-.7.91.91,0,0,1,.68-.29,1,1,0,0,1,1,1,.91.91,0,0,1-.29.68,1,1,0,0,1-.7.28,1,1,0,0,1-1-1Z"/><path d="M120.3,109a1,1,0,0,1,.28-.7.91.91,0,0,1,.68-.29,1,1,0,0,1,1,1,.91.91,0,0,1-.29.68,1,1,0,0,1-.7.28,1,1,0,0,1-1-1Z"/><path d="M144.36,109a1,1,0,0,1,.28-.7.91.91,0,0,1,.68-.29,1,1,0,0,1,1,1,.91.91,0,0,1-.29.68,1,1,0,0,1-.7.28,1,1,0,0,1-1-1Z"/><path d="M168.42,109a1,1,0,0,1,.27-.7,1,1,0,0,1,1.38,0,1,1,0,0,1,.3.7.88.88,0,0,1-.3.68,1,1,0,0,1-1.65-.68Z"/><path d="M192.48,109a1,1,0,0,1,.27-.7,1,1,0,0,1,1.38,0,1,1,0,0,1,.3.7.88.88,0,0,1-.3.68,1,1,0,0,1-1.65-.68Z"/><path d="M216.54,109a1,1,0,0,1,.27-.7,1,1,0,0,1,1.38,0,1,1,0,0,1,.3.7.88.88,0,0,1-.3.68,1,1,0,0,1-1.65-.68Z"/><path d="M240.6,109a1,1,0,0,1,.27-.7,1,1,0,0,1,1.38,0,1,1,0,0,1,.3.7.88.88,0,0,1-.3.68,1,1,0,0,1-1.65-.68Z"/><path d="M264.66,109a1,1,0,0,1,.27-.7,1,1,0,0,1,1.38,0,1,1,0,0,1,.3.7.88.88,0,0,1-.3.68,1,1,0,0,1-1.65-.68Z"/><path d="M288.71,109a1,1,0,0,1,.28-.7.92.92,0,0,1,.68-.29,1,1,0,0,1,.7.29,1,1,0,0,1,.3.7.88.88,0,0,1-.3.68,1,1,0,0,1-.7.28.91.91,0,0,1-.68-.28A.94.94,0,0,1,288.71,109Z"/><path d="M312.77,109a1,1,0,0,1,.28-.7.92.92,0,0,1,.68-.29,1,1,0,0,1,.7.29.94.94,0,0,1,.29.7.87.87,0,0,1-.29.68,1,1,0,0,1-.7.28.91.91,0,0,1-.68-.28A.94.94,0,0,1,312.77,109Z"/><path d="M336.83,109a1,1,0,0,1,.28-.7.92.92,0,0,1,.68-.29,1,1,0,0,1,.7.29.94.94,0,0,1,.29.7.87.87,0,0,1-.29.68,1,1,0,0,1-.7.28.91.91,0,0,1-.68-.28A.94.94,0,0,1,336.83,109Z"/><path d="M360.89,109a1,1,0,0,1,.28-.7.92.92,0,0,1,.68-.29,1,1,0,0,1,.7.29.94.94,0,0,1,.29.7.87.87,0,0,1-.29.68,1,1,0,0,1-.7.28.91.91,0,0,1-.68-.28A.94.94,0,0,1,360.89,109Z"/><path d="M385,109a1,1,0,0,1,.28-.7.92.92,0,0,1,.68-.29,1,1,0,0,1,.7.29.94.94,0,0,1,.29.7.87.87,0,0,1-.29.68,1,1,0,0,1-.7.28.91.91,0,0,1-.68-.28A.94.94,0,0,1,385,109Z"/><path d="M409,109a1,1,0,0,1,.28-.7A.92.92,0,0,1,410,108a1,1,0,0,1,.7.29.94.94,0,0,1,.29.7.87.87,0,0,1-.29.68,1,1,0,0,1-.7.28.91.91,0,0,1-.68-.28A.9.9,0,0,1,409,109Z"/><path d="M433.07,109a1,1,0,0,1,.28-.7A.91.91,0,0,1,434,108a1,1,0,0,1,1,1,.91.91,0,0,1-.29.68,1,1,0,0,1-.7.28,1,1,0,0,1-1-1Z"/><path d="M457.13,109a1,1,0,0,1,.28-.7.91.91,0,0,1,.68-.29,1,1,0,0,1,1,1,.91.91,0,0,1-.29.68,1,1,0,0,1-.7.28,1,1,0,0,1-1-1Z"/><path d="M481.19,109a1,1,0,0,1,.28-.7.91.91,0,0,1,.68-.29,1,1,0,0,1,1,1,.91.91,0,0,1-.29.68,1,1,0,0,1-.7.28,1,1,0,0,1-1-1Z"/><path d="M505.25,109a1,1,0,0,1,.28-.7.91.91,0,0,1,.68-.29,1,1,0,0,1,1,1,.91.91,0,0,1-.29.68,1,1,0,0,1-.7.28,1,1,0,0,1-1-1Z"/><path d="M529.31,109a1,1,0,0,1,.28-.7.91.91,0,0,1,.68-.29,1,1,0,0,1,1,1,.91.91,0,0,1-.29.68,1,1,0,0,1-.7.28,1,1,0,0,1-1-1Z"/><path d="M553.37,109a1,1,0,0,1,.28-.7.91.91,0,0,1,.68-.29,1,1,0,0,1,1,1,.91.91,0,0,1-.29.68,1,1,0,0,1-.7.28,1,1,0,0,1-1-1Z"/><path d="M577.43,109a1,1,0,0,1,.28-.7.91.91,0,0,1,.68-.29,1,1,0,0,1,1,1,.91.91,0,0,1-.29.68,1,1,0,0,1-.7.28,1,1,0,0,1-1-1Z"/><path d="M601.49,109a1,1,0,0,1,.28-.7.91.91,0,0,1,.68-.29,1,1,0,0,1,1,1,.91.91,0,0,1-.29.68,1,1,0,0,1-.7.28,1,1,0,0,1-1-1Z"/><path d="M625.55,109a1,1,0,0,1,.28-.7.91.91,0,0,1,.68-.29,1,1,0,0,1,1,1,.91.91,0,0,1-.29.68,1,1,0,0,1-.7.28,1,1,0,0,1-1-1Z"/><path d="M649.61,109a1,1,0,0,1,.28-.7.91.91,0,0,1,.68-.29,1,1,0,0,1,1,1,.91.91,0,0,1-.29.68,1,1,0,0,1-.7.28,1,1,0,0,1-1-1Z"/><path d="M0,145a1,1,0,0,1,.28-.7A.91.91,0,0,1,1,144a1,1,0,0,1,1,1,.91.91,0,0,1-.29.68A1,1,0,0,1,1,146a.9.9,0,0,1-.68-.28A.9.9,0,0,1,0,145Z"/><path d="M24.06,145a1,1,0,0,1,.28-.7A.91.91,0,0,1,25,144a1,1,0,0,1,1,1,.91.91,0,0,1-.29.68,1,1,0,0,1-.7.28,1,1,0,0,1-1-1Z"/><path d="M48.12,145a1,1,0,0,1,.28-.7.91.91,0,0,1,.68-.29,1,1,0,0,1,1,1,.91.91,0,0,1-.29.68,1,1,0,0,1-.7.28,1,1,0,0,1-1-1Z"/><path d="M72.18,145a1,1,0,0,1,.28-.7.91.91,0,0,1,.68-.29,1,1,0,0,1,1,1,.91.91,0,0,1-.29.68,1,1,0,0,1-.7.28,1,1,0,0,1-1-1Z"/><path d="M96.24,145a1,1,0,0,1,.28-.7.91.91,0,0,1,.68-.29,1,1,0,0,1,1,1,.91.91,0,0,1-.29.68,1,1,0,0,1-.7.28,1,1,0,0,1-1-1Z"/><path d="M120.3,145a1,1,0,0,1,.28-.7.91.91,0,0,1,.68-.29,1,1,0,0,1,1,1,.91.91,0,0,1-.29.68,1,1,0,0,1-.7.28,1,1,0,0,1-1-1Z"/><path d="M144.36,145a1,1,0,0,1,.28-.7.91.91,0,0,1,.68-.29,1,1,0,0,1,1,1,.91.91,0,0,1-.29.68,1,1,0,0,1-.7.28,1,1,0,0,1-1-1Z"/><path d="M168.42,145a1,1,0,0,1,.27-.7,1,1,0,0,1,1.38,0,1,1,0,0,1,.3.7.88.88,0,0,1-.3.68,1,1,0,0,1-1.65-.68Z"/><path d="M192.48,145a1,1,0,0,1,.27-.7,1,1,0,0,1,1.38,0,1,1,0,0,1,.3.7.88.88,0,0,1-.3.68,1,1,0,0,1-1.65-.68Z"/><path d="M216.54,145a1,1,0,0,1,.27-.7,1,1,0,0,1,1.38,0,1,1,0,0,1,.3.7.88.88,0,0,1-.3.68,1,1,0,0,1-1.65-.68Z"/><path d="M240.6,145a1,1,0,0,1,.27-.7,1,1,0,0,1,1.38,0,1,1,0,0,1,.3.7.88.88,0,0,1-.3.68,1,1,0,0,1-1.65-.68Z"/><path d="M264.66,145a1,1,0,0,1,.27-.7,1,1,0,0,1,1.38,0,1,1,0,0,1,.3.7.88.88,0,0,1-.3.68,1,1,0,0,1-1.65-.68Z"/><path d="M288.71,145a1,1,0,0,1,.28-.7.92.92,0,0,1,.68-.29,1,1,0,0,1,.7.29,1,1,0,0,1,.3.7.88.88,0,0,1-.3.68,1,1,0,0,1-.7.28.91.91,0,0,1-.68-.28A.94.94,0,0,1,288.71,145Z"/><path d="M312.77,145a1,1,0,0,1,.28-.7.92.92,0,0,1,.68-.29,1,1,0,0,1,.7.29.94.94,0,0,1,.29.7.87.87,0,0,1-.29.68,1,1,0,0,1-.7.28.91.91,0,0,1-.68-.28A.94.94,0,0,1,312.77,145Z"/><path d="M336.83,145a1,1,0,0,1,.28-.7.92.92,0,0,1,.68-.29,1,1,0,0,1,.7.29.94.94,0,0,1,.29.7.87.87,0,0,1-.29.68,1,1,0,0,1-.7.28.91.91,0,0,1-.68-.28A.94.94,0,0,1,336.83,145Z"/><path d="M360.89,145a1,1,0,0,1,.28-.7.92.92,0,0,1,.68-.29,1,1,0,0,1,.7.29.94.94,0,0,1,.29.7.87.87,0,0,1-.29.68,1,1,0,0,1-.7.28.91.91,0,0,1-.68-.28A.94.94,0,0,1,360.89,145Z"/><path d="M385,145a1,1,0,0,1,.28-.7.92.92,0,0,1,.68-.29,1,1,0,0,1,.7.29.94.94,0,0,1,.29.7.87.87,0,0,1-.29.68,1,1,0,0,1-.7.28.91.91,0,0,1-.68-.28A.94.94,0,0,1,385,145Z"/><path d="M409,145a1,1,0,0,1,.28-.7A.92.92,0,0,1,410,144a1,1,0,0,1,.7.29.94.94,0,0,1,.29.7.87.87,0,0,1-.29.68,1,1,0,0,1-.7.28.91.91,0,0,1-.68-.28A.9.9,0,0,1,409,145Z"/><path d="M433.07,145a1,1,0,0,1,.28-.7A.91.91,0,0,1,434,144a1,1,0,0,1,1,1,.91.91,0,0,1-.29.68,1,1,0,0,1-.7.28,1,1,0,0,1-1-1Z"/><path d="M457.13,145a1,1,0,0,1,.28-.7.91.91,0,0,1,.68-.29,1,1,0,0,1,1,1,.91.91,0,0,1-.29.68,1,1,0,0,1-.7.28,1,1,0,0,1-1-1Z"/><path d="M481.19,145a1,1,0,0,1,.28-.7.91.91,0,0,1,.68-.29,1,1,0,0,1,1,1,.91.91,0,0,1-.29.68,1,1,0,0,1-.7.28,1,1,0,0,1-1-1Z"/><path d="M505.25,145a1,1,0,0,1,.28-.7.91.91,0,0,1,.68-.29,1,1,0,0,1,1,1,.91.91,0,0,1-.29.68,1,1,0,0,1-.7.28,1,1,0,0,1-1-1Z"/><path d="M529.31,145a1,1,0,0,1,.28-.7.91.91,0,0,1,.68-.29,1,1,0,0,1,1,1,.91.91,0,0,1-.29.68,1,1,0,0,1-.7.28,1,1,0,0,1-1-1Z"/><path d="M553.37,145a1,1,0,0,1,.28-.7.91.91,0,0,1,.68-.29,1,1,0,0,1,1,1,.91.91,0,0,1-.29.68,1,1,0,0,1-.7.28,1,1,0,0,1-1-1Z"/><path d="M577.43,145a1,1,0,0,1,.28-.7.91.91,0,0,1,.68-.29,1,1,0,0,1,1,1,.91.91,0,0,1-.29.68,1,1,0,0,1-.7.28,1,1,0,0,1-1-1Z"/><path d="M601.49,145a1,1,0,0,1,.28-.7.91.91,0,0,1,.68-.29,1,1,0,0,1,1,1,.91.91,0,0,1-.29.68,1,1,0,0,1-.7.28,1,1,0,0,1-1-1Z"/><path d="M625.55,145a1,1,0,0,1,.28-.7.91.91,0,0,1,.68-.29,1,1,0,0,1,1,1,.91.91,0,0,1-.29.68,1,1,0,0,1-.7.28,1,1,0,0,1-1-1Z"/><path d="M649.61,145a1,1,0,0,1,.28-.7.91.91,0,0,1,.68-.29,1,1,0,0,1,1,1,.91.91,0,0,1-.29.68,1,1,0,0,1-.7.28,1,1,0,0,1-1-1Z"/><path d="M0,181a1,1,0,0,1,.28-.7A.91.91,0,0,1,1,180a1,1,0,0,1,1,1,.91.91,0,0,1-.29.68A1,1,0,0,1,1,182a.9.9,0,0,1-.68-.28A.9.9,0,0,1,0,181Z"/><path d="M24.06,181a1,1,0,0,1,.28-.7A.91.91,0,0,1,25,180a1,1,0,0,1,1,1,.91.91,0,0,1-.29.68,1,1,0,0,1-.7.28,1,1,0,0,1-1-1Z"/><path d="M48.12,181a1,1,0,0,1,.28-.7.91.91,0,0,1,.68-.29,1,1,0,0,1,1,1,.91.91,0,0,1-.29.68,1,1,0,0,1-.7.28,1,1,0,0,1-1-1Z"/><path d="M72.18,181a1,1,0,0,1,.28-.7.91.91,0,0,1,.68-.29,1,1,0,0,1,1,1,.91.91,0,0,1-.29.68,1,1,0,0,1-.7.28,1,1,0,0,1-1-1Z"/><path d="M96.24,181a1,1,0,0,1,.28-.7.91.91,0,0,1,.68-.29,1,1,0,0,1,1,1,.91.91,0,0,1-.29.68,1,1,0,0,1-.7.28,1,1,0,0,1-1-1Z"/><path d="M120.3,181a1,1,0,0,1,.28-.7.91.91,0,0,1,.68-.29,1,1,0,0,1,1,1,.91.91,0,0,1-.29.68,1,1,0,0,1-.7.28,1,1,0,0,1-1-1Z"/><path d="M144.36,181a1,1,0,0,1,.28-.7.91.91,0,0,1,.68-.29,1,1,0,0,1,1,1,.91.91,0,0,1-.29.68,1,1,0,0,1-.7.28,1,1,0,0,1-1-1Z"/><path d="M168.42,181a1,1,0,0,1,.27-.7,1,1,0,0,1,1.38,0,1,1,0,0,1,.3.7.88.88,0,0,1-.3.68,1,1,0,0,1-1.65-.68Z"/><path d="M192.48,181a1,1,0,0,1,.27-.7,1,1,0,0,1,1.38,0,1,1,0,0,1,.3.7.88.88,0,0,1-.3.68,1,1,0,0,1-1.65-.68Z"/><path d="M216.54,181a1,1,0,0,1,.27-.7,1,1,0,0,1,1.38,0,1,1,0,0,1,.3.7.88.88,0,0,1-.3.68,1,1,0,0,1-1.65-.68Z"/><path d="M240.6,181a1,1,0,0,1,.27-.7,1,1,0,0,1,1.38,0,1,1,0,0,1,.3.7.88.88,0,0,1-.3.68,1,1,0,0,1-1.65-.68Z"/><path d="M264.66,181a1,1,0,0,1,.27-.7,1,1,0,0,1,1.38,0,1,1,0,0,1,.3.7.88.88,0,0,1-.3.68,1,1,0,0,1-1.65-.68Z"/><path d="M288.71,181a1,1,0,0,1,.28-.7.92.92,0,0,1,.68-.29,1,1,0,0,1,.7.29,1,1,0,0,1,.3.7.88.88,0,0,1-.3.68,1,1,0,0,1-.7.28.91.91,0,0,1-.68-.28A.94.94,0,0,1,288.71,181Z"/><path d="M312.77,181a1,1,0,0,1,.28-.7.92.92,0,0,1,.68-.29,1,1,0,0,1,.7.29.94.94,0,0,1,.29.7.87.87,0,0,1-.29.68,1,1,0,0,1-.7.28.91.91,0,0,1-.68-.28A.94.94,0,0,1,312.77,181Z"/><path d="M336.83,181a1,1,0,0,1,.28-.7.92.92,0,0,1,.68-.29,1,1,0,0,1,.7.29.94.94,0,0,1,.29.7.87.87,0,0,1-.29.68,1,1,0,0,1-.7.28.91.91,0,0,1-.68-.28A.94.94,0,0,1,336.83,181Z"/><path d="M360.89,181a1,1,0,0,1,.28-.7.92.92,0,0,1,.68-.29,1,1,0,0,1,.7.29.94.94,0,0,1,.29.7.87.87,0,0,1-.29.68,1,1,0,0,1-.7.28.91.91,0,0,1-.68-.28A.94.94,0,0,1,360.89,181Z"/><path d="M385,181a1,1,0,0,1,.28-.7.92.92,0,0,1,.68-.29,1,1,0,0,1,.7.29.94.94,0,0,1,.29.7.87.87,0,0,1-.29.68,1,1,0,0,1-.7.28.91.91,0,0,1-.68-.28A.94.94,0,0,1,385,181Z"/><path d="M409,181a1,1,0,0,1,.28-.7A.92.92,0,0,1,410,180a1,1,0,0,1,.7.29.94.94,0,0,1,.29.7.87.87,0,0,1-.29.68,1,1,0,0,1-.7.28.91.91,0,0,1-.68-.28A.9.9,0,0,1,409,181Z"/><path d="M433.07,181a1,1,0,0,1,.28-.7A.91.91,0,0,1,434,180a1,1,0,0,1,1,1,.91.91,0,0,1-.29.68,1,1,0,0,1-.7.28,1,1,0,0,1-1-1Z"/><path d="M457.13,181a1,1,0,0,1,.28-.7.91.91,0,0,1,.68-.29,1,1,0,0,1,1,1,.91.91,0,0,1-.29.68,1,1,0,0,1-.7.28,1,1,0,0,1-1-1Z"/><path d="M481.19,181a1,1,0,0,1,.28-.7.91.91,0,0,1,.68-.29,1,1,0,0,1,1,1,.91.91,0,0,1-.29.68,1,1,0,0,1-.7.28,1,1,0,0,1-1-1Z"/><path d="M505.25,181a1,1,0,0,1,.28-.7.91.91,0,0,1,.68-.29,1,1,0,0,1,1,1,.91.91,0,0,1-.29.68,1,1,0,0,1-.7.28,1,1,0,0,1-1-1Z"/><path d="M529.31,181a1,1,0,0,1,.28-.7.91.91,0,0,1,.68-.29,1,1,0,0,1,1,1,.91.91,0,0,1-.29.68,1,1,0,0,1-.7.28,1,1,0,0,1-1-1Z"/><path d="M553.37,181a1,1,0,0,1,.28-.7.91.91,0,0,1,.68-.29,1,1,0,0,1,1,1,.91.91,0,0,1-.29.68,1,1,0,0,1-.7.28,1,1,0,0,1-1-1Z"/><path d="M577.43,181a1,1,0,0,1,.28-.7.91.91,0,0,1,.68-.29,1,1,0,0,1,1,1,.91.91,0,0,1-.29.68,1,1,0,0,1-.7.28,1,1,0,0,1-1-1Z"/><path d="M601.49,181a1,1,0,0,1,.28-.7.91.91,0,0,1,.68-.29,1,1,0,0,1,1,1,.91.91,0,0,1-.29.68,1,1,0,0,1-.7.28,1,1,0,0,1-1-1Z"/><path d="M625.55,181a1,1,0,0,1,.28-.7.91.91,0,0,1,.68-.29,1,1,0,0,1,1,1,.91.91,0,0,1-.29.68,1,1,0,0,1-.7.28,1,1,0,0,1-1-1Z"/><path d="M649.61,181a1,1,0,0,1,.28-.7.91.91,0,0,1,.68-.29,1,1,0,0,1,1,1,.91.91,0,0,1-.29.68,1,1,0,0,1-.7.28,1,1,0,0,1-1-1Z"/><path d="M0,217a1,1,0,0,1,.28-.7A.91.91,0,0,1,1,216a1,1,0,0,1,1,1,.91.91,0,0,1-.29.68A1,1,0,0,1,1,218a.9.9,0,0,1-.68-.28A.9.9,0,0,1,0,217Z"/><path d="M24.06,217a1,1,0,0,1,.28-.7A.91.91,0,0,1,25,216a1,1,0,0,1,1,1,.91.91,0,0,1-.29.68,1,1,0,0,1-.7.28,1,1,0,0,1-1-1Z"/><path d="M48.12,217a1,1,0,0,1,.28-.7.91.91,0,0,1,.68-.29,1,1,0,0,1,1,1,.91.91,0,0,1-.29.68,1,1,0,0,1-.7.28,1,1,0,0,1-1-1Z"/><path d="M72.18,217a1,1,0,0,1,.28-.7.91.91,0,0,1,.68-.29,1,1,0,0,1,1,1,.91.91,0,0,1-.29.68,1,1,0,0,1-.7.28,1,1,0,0,1-1-1Z"/><path d="M96.24,217a1,1,0,0,1,.28-.7.91.91,0,0,1,.68-.29,1,1,0,0,1,1,1,.91.91,0,0,1-.29.68,1,1,0,0,1-.7.28,1,1,0,0,1-1-1Z"/><path d="M120.3,217a1,1,0,0,1,.28-.7.91.91,0,0,1,.68-.29,1,1,0,0,1,1,1,.91.91,0,0,1-.29.68,1,1,0,0,1-.7.28,1,1,0,0,1-1-1Z"/><path d="M144.36,217a1,1,0,0,1,.28-.7.91.91,0,0,1,.68-.29,1,1,0,0,1,1,1,.91.91,0,0,1-.29.68,1,1,0,0,1-.7.28,1,1,0,0,1-1-1Z"/><path d="M168.42,217a1,1,0,0,1,.27-.7,1,1,0,0,1,1.38,0,1,1,0,0,1,.3.7.88.88,0,0,1-.3.68,1,1,0,0,1-1.65-.68Z"/><path d="M192.48,217a1,1,0,0,1,.27-.7,1,1,0,0,1,1.38,0,1,1,0,0,1,.3.7.88.88,0,0,1-.3.68,1,1,0,0,1-1.65-.68Z"/><path d="M216.54,217a1,1,0,0,1,.27-.7,1,1,0,0,1,1.38,0,1,1,0,0,1,.3.7.88.88,0,0,1-.3.68,1,1,0,0,1-1.65-.68Z"/><path d="M240.6,217a1,1,0,0,1,.27-.7,1,1,0,0,1,1.38,0,1,1,0,0,1,.3.7.88.88,0,0,1-.3.68,1,1,0,0,1-1.65-.68Z"/><path d="M264.66,217a1,1,0,0,1,.27-.7,1,1,0,0,1,1.38,0,1,1,0,0,1,.3.7.88.88,0,0,1-.3.68,1,1,0,0,1-1.65-.68Z"/><path d="M288.71,217a1,1,0,0,1,.28-.7.92.92,0,0,1,.68-.29,1,1,0,0,1,.7.29,1,1,0,0,1,.3.7.88.88,0,0,1-.3.68,1,1,0,0,1-.7.28.91.91,0,0,1-.68-.28A.94.94,0,0,1,288.71,217Z"/><path d="M312.77,217a1,1,0,0,1,.28-.7.92.92,0,0,1,.68-.29,1,1,0,0,1,.7.29.94.94,0,0,1,.29.7.87.87,0,0,1-.29.68,1,1,0,0,1-.7.28.91.91,0,0,1-.68-.28A.94.94,0,0,1,312.77,217Z"/><path d="M336.83,217a1,1,0,0,1,.28-.7.92.92,0,0,1,.68-.29,1,1,0,0,1,.7.29.94.94,0,0,1,.29.7.87.87,0,0,1-.29.68,1,1,0,0,1-.7.28.91.91,0,0,1-.68-.28A.94.94,0,0,1,336.83,217Z"/><path d="M360.89,217a1,1,0,0,1,.28-.7.92.92,0,0,1,.68-.29,1,1,0,0,1,.7.29.94.94,0,0,1,.29.7.87.87,0,0,1-.29.68,1,1,0,0,1-.7.28.91.91,0,0,1-.68-.28A.94.94,0,0,1,360.89,217Z"/><path d="M385,217a1,1,0,0,1,.28-.7.92.92,0,0,1,.68-.29,1,1,0,0,1,.7.29.94.94,0,0,1,.29.7.87.87,0,0,1-.29.68,1,1,0,0,1-.7.28.91.91,0,0,1-.68-.28A.94.94,0,0,1,385,217Z"/><path d="M409,217a1,1,0,0,1,.28-.7A.92.92,0,0,1,410,216a1,1,0,0,1,.7.29.94.94,0,0,1,.29.7.87.87,0,0,1-.29.68,1,1,0,0,1-.7.28.91.91,0,0,1-.68-.28A.9.9,0,0,1,409,217Z"/><path d="M433.07,217a1,1,0,0,1,.28-.7A.91.91,0,0,1,434,216a1,1,0,0,1,1,1,.91.91,0,0,1-.29.68,1,1,0,0,1-.7.28,1,1,0,0,1-1-1Z"/><path d="M457.13,217a1,1,0,0,1,.28-.7.91.91,0,0,1,.68-.29,1,1,0,0,1,1,1,.91.91,0,0,1-.29.68,1,1,0,0,1-.7.28,1,1,0,0,1-1-1Z"/><path d="M481.19,217a1,1,0,0,1,.28-.7.91.91,0,0,1,.68-.29,1,1,0,0,1,1,1,.91.91,0,0,1-.29.68,1,1,0,0,1-.7.28,1,1,0,0,1-1-1Z"/><path d="M505.25,217a1,1,0,0,1,.28-.7.91.91,0,0,1,.68-.29,1,1,0,0,1,1,1,.91.91,0,0,1-.29.68,1,1,0,0,1-.7.28,1,1,0,0,1-1-1Z"/><path d="M529.31,217a1,1,0,0,1,.28-.7.91.91,0,0,1,.68-.29,1,1,0,0,1,1,1,.91.91,0,0,1-.29.68,1,1,0,0,1-.7.28,1,1,0,0,1-1-1Z"/><path d="M553.37,217a1,1,0,0,1,.28-.7.91.91,0,0,1,.68-.29,1,1,0,0,1,1,1,.91.91,0,0,1-.29.68,1,1,0,0,1-.7.28,1,1,0,0,1-1-1Z"/><path d="M577.43,217a1,1,0,0,1,.28-.7.91.91,0,0,1,.68-.29,1,1,0,0,1,1,1,.91.91,0,0,1-.29.68,1,1,0,0,1-.7.28,1,1,0,0,1-1-1Z"/><path d="M601.49,217a1,1,0,0,1,.28-.7.91.91,0,0,1,.68-.29,1,1,0,0,1,1,1,.91.91,0,0,1-.29.68,1,1,0,0,1-.7.28,1,1,0,0,1-1-1Z"/><path d="M625.55,217a1,1,0,0,1,.28-.7.91.91,0,0,1,.68-.29,1,1,0,0,1,1,1,.91.91,0,0,1-.29.68,1,1,0,0,1-.7.28,1,1,0,0,1-1-1Z"/><path d="M649.61,217a1,1,0,0,1,.28-.7.91.91,0,0,1,.68-.29,1,1,0,0,1,1,1,.91.91,0,0,1-.29.68,1,1,0,0,1-.7.28,1,1,0,0,1-1-1Z"/><path d="M0,253a1,1,0,0,1,.28-.7A.91.91,0,0,1,1,252a1,1,0,0,1,1,1,.91.91,0,0,1-.29.68A1,1,0,0,1,1,254a.9.9,0,0,1-.68-.28A.9.9,0,0,1,0,253Z"/><path d="M24.06,253a1,1,0,0,1,.28-.7A.91.91,0,0,1,25,252a1,1,0,0,1,1,1,.91.91,0,0,1-.29.68,1,1,0,0,1-.7.28,1,1,0,0,1-1-1Z"/><path d="M48.12,253a1,1,0,0,1,.28-.7.91.91,0,0,1,.68-.29,1,1,0,0,1,1,1,.91.91,0,0,1-.29.68,1,1,0,0,1-.7.28,1,1,0,0,1-1-1Z"/><path d="M72.18,253a1,1,0,0,1,.28-.7.91.91,0,0,1,.68-.29,1,1,0,0,1,1,1,.91.91,0,0,1-.29.68,1,1,0,0,1-.7.28,1,1,0,0,1-1-1Z"/><path d="M96.24,253a1,1,0,0,1,.28-.7.91.91,0,0,1,.68-.29,1,1,0,0,1,1,1,.91.91,0,0,1-.29.68,1,1,0,0,1-.7.28,1,1,0,0,1-1-1Z"/><path d="M120.3,253a1,1,0,0,1,.28-.7.91.91,0,0,1,.68-.29,1,1,0,0,1,1,1,.91.91,0,0,1-.29.68,1,1,0,0,1-.7.28,1,1,0,0,1-1-1Z"/><path d="M144.36,253a1,1,0,0,1,.28-.7.91.91,0,0,1,.68-.29,1,1,0,0,1,1,1,.91.91,0,0,1-.29.68,1,1,0,0,1-.7.28,1,1,0,0,1-1-1Z"/><path d="M168.42,253a1,1,0,0,1,.27-.7,1,1,0,0,1,1.38,0,1,1,0,0,1,.3.7.88.88,0,0,1-.3.68,1,1,0,0,1-1.65-.68Z"/><path d="M192.48,253a1,1,0,0,1,.27-.7,1,1,0,0,1,1.38,0,1,1,0,0,1,.3.7.88.88,0,0,1-.3.68,1,1,0,0,1-1.65-.68Z"/><path d="M216.54,253a1,1,0,0,1,.27-.7,1,1,0,0,1,1.38,0,1,1,0,0,1,.3.7.88.88,0,0,1-.3.68,1,1,0,0,1-1.65-.68Z"/><path d="M240.6,253a1,1,0,0,1,.27-.7,1,1,0,0,1,1.38,0,1,1,0,0,1,.3.7.88.88,0,0,1-.3.68,1,1,0,0,1-1.65-.68Z"/><path d="M264.66,253a1,1,0,0,1,.27-.7,1,1,0,0,1,1.38,0,1,1,0,0,1,.3.7.88.88,0,0,1-.3.68,1,1,0,0,1-1.65-.68Z"/><path d="M288.71,253a1,1,0,0,1,.28-.7.92.92,0,0,1,.68-.29,1,1,0,0,1,.7.29,1,1,0,0,1,.3.7.88.88,0,0,1-.3.68,1,1,0,0,1-.7.28.91.91,0,0,1-.68-.28A.94.94,0,0,1,288.71,253Z"/><path d="M312.77,253a1,1,0,0,1,.28-.7.92.92,0,0,1,.68-.29,1,1,0,0,1,.7.29.94.94,0,0,1,.29.7.87.87,0,0,1-.29.68,1,1,0,0,1-.7.28.91.91,0,0,1-.68-.28A.94.94,0,0,1,312.77,253Z"/><path d="M336.83,253a1,1,0,0,1,.28-.7.92.92,0,0,1,.68-.29,1,1,0,0,1,.7.29.94.94,0,0,1,.29.7.87.87,0,0,1-.29.68,1,1,0,0,1-.7.28.91.91,0,0,1-.68-.28A.94.94,0,0,1,336.83,253Z"/><path d="M360.89,253a1,1,0,0,1,.28-.7.92.92,0,0,1,.68-.29,1,1,0,0,1,.7.29.94.94,0,0,1,.29.7.87.87,0,0,1-.29.68,1,1,0,0,1-.7.28.91.91,0,0,1-.68-.28A.94.94,0,0,1,360.89,253Z"/><path d="M385,253a1,1,0,0,1,.28-.7.92.92,0,0,1,.68-.29,1,1,0,0,1,.7.29.94.94,0,0,1,.29.7.87.87,0,0,1-.29.68,1,1,0,0,1-.7.28.91.91,0,0,1-.68-.28A.94.94,0,0,1,385,253Z"/><path d="M409,253a1,1,0,0,1,.28-.7A.92.92,0,0,1,410,252a1,1,0,0,1,.7.29.94.94,0,0,1,.29.7.87.87,0,0,1-.29.68,1,1,0,0,1-.7.28.91.91,0,0,1-.68-.28A.9.9,0,0,1,409,253Z"/><path d="M433.07,253a1,1,0,0,1,.28-.7A.91.91,0,0,1,434,252a1,1,0,0,1,1,1,.91.91,0,0,1-.29.68,1,1,0,0,1-.7.28,1,1,0,0,1-1-1Z"/><path d="M457.13,253a1,1,0,0,1,.28-.7.91.91,0,0,1,.68-.29,1,1,0,0,1,1,1,.91.91,0,0,1-.29.68,1,1,0,0,1-.7.28,1,1,0,0,1-1-1Z"/><path d="M481.19,253a1,1,0,0,1,.28-.7.91.91,0,0,1,.68-.29,1,1,0,0,1,1,1,.91.91,0,0,1-.29.68,1,1,0,0,1-.7.28,1,1,0,0,1-1-1Z"/><path d="M505.25,253a1,1,0,0,1,.28-.7.91.91,0,0,1,.68-.29,1,1,0,0,1,1,1,.91.91,0,0,1-.29.68,1,1,0,0,1-.7.28,1,1,0,0,1-1-1Z"/><path d="M529.31,253a1,1,0,0,1,.28-.7.91.91,0,0,1,.68-.29,1,1,0,0,1,1,1,.91.91,0,0,1-.29.68,1,1,0,0,1-.7.28,1,1,0,0,1-1-1Z"/><path d="M553.37,253a1,1,0,0,1,.28-.7.91.91,0,0,1,.68-.29,1,1,0,0,1,1,1,.91.91,0,0,1-.29.68,1,1,0,0,1-.7.28,1,1,0,0,1-1-1Z"/><path d="M577.43,253a1,1,0,0,1,.28-.7.91.91,0,0,1,.68-.29,1,1,0,0,1,1,1,.91.91,0,0,1-.29.68,1,1,0,0,1-.7.28,1,1,0,0,1-1-1Z"/><path d="M601.49,253a1,1,0,0,1,.28-.7.91.91,0,0,1,.68-.29,1,1,0,0,1,1,1,.91.91,0,0,1-.29.68,1,1,0,0,1-.7.28,1,1,0,0,1-1-1Z"/><path d="M625.55,253a1,1,0,0,1,.28-.7.91.91,0,0,1,.68-.29,1,1,0,0,1,1,1,.91.91,0,0,1-.29.68,1,1,0,0,1-.7.28,1,1,0,0,1-1-1Z"/><path d="M649.61,253a1,1,0,0,1,.28-.7.91.91,0,0,1,.68-.29,1,1,0,0,1,1,1,.91.91,0,0,1-.29.68,1,1,0,0,1-.7.28,1,1,0,0,1-1-1Z"/><path d="M0,289a1,1,0,0,1,.28-.7A.91.91,0,0,1,1,288a1,1,0,0,1,1,1,.91.91,0,0,1-.29.68A1,1,0,0,1,1,290a.9.9,0,0,1-.68-.28A.9.9,0,0,1,0,289Z"/><path d="M24.06,289a1,1,0,0,1,.28-.7A.91.91,0,0,1,25,288a1,1,0,0,1,1,1,.91.91,0,0,1-.29.68,1,1,0,0,1-.7.28,1,1,0,0,1-1-1Z"/><path d="M48.12,289a1,1,0,0,1,.28-.7.91.91,0,0,1,.68-.29,1,1,0,0,1,1,1,.91.91,0,0,1-.29.68,1,1,0,0,1-.7.28,1,1,0,0,1-1-1Z"/><path d="M72.18,289a1,1,0,0,1,.28-.7.91.91,0,0,1,.68-.29,1,1,0,0,1,1,1,.91.91,0,0,1-.29.68,1,1,0,0,1-.7.28,1,1,0,0,1-1-1Z"/><path d="M96.24,289a1,1,0,0,1,.28-.7.91.91,0,0,1,.68-.29,1,1,0,0,1,1,1,.91.91,0,0,1-.29.68,1,1,0,0,1-.7.28,1,1,0,0,1-1-1Z"/><path d="M120.3,289a1,1,0,0,1,.28-.7.91.91,0,0,1,.68-.29,1,1,0,0,1,1,1,.91.91,0,0,1-.29.68,1,1,0,0,1-.7.28,1,1,0,0,1-1-1Z"/><path d="M144.36,289a1,1,0,0,1,.28-.7.91.91,0,0,1,.68-.29,1,1,0,0,1,1,1,.91.91,0,0,1-.29.68,1,1,0,0,1-.7.28,1,1,0,0,1-1-1Z"/><path d="M168.42,289a1,1,0,0,1,.27-.7,1,1,0,0,1,1.38,0,1,1,0,0,1,.3.7.88.88,0,0,1-.3.68,1,1,0,0,1-1.65-.68Z"/><path d="M192.48,289a1,1,0,0,1,.27-.7,1,1,0,0,1,1.38,0,1,1,0,0,1,.3.7.88.88,0,0,1-.3.68,1,1,0,0,1-1.65-.68Z"/><path d="M216.54,289a1,1,0,0,1,.27-.7,1,1,0,0,1,1.38,0,1,1,0,0,1,.3.7.88.88,0,0,1-.3.68,1,1,0,0,1-1.65-.68Z"/><path d="M240.6,289a1,1,0,0,1,.27-.7,1,1,0,0,1,1.38,0,1,1,0,0,1,.3.7.88.88,0,0,1-.3.68,1,1,0,0,1-1.65-.68Z"/><path d="M264.66,289a1,1,0,0,1,.27-.7,1,1,0,0,1,1.38,0,1,1,0,0,1,.3.7.88.88,0,0,1-.3.68,1,1,0,0,1-1.65-.68Z"/><path d="M288.71,289a1,1,0,0,1,.28-.7.92.92,0,0,1,.68-.29,1,1,0,0,1,.7.29,1,1,0,0,1,.3.7.88.88,0,0,1-.3.68,1,1,0,0,1-.7.28.91.91,0,0,1-.68-.28A.94.94,0,0,1,288.71,289Z"/><path d="M312.77,289a1,1,0,0,1,.28-.7.92.92,0,0,1,.68-.29,1,1,0,0,1,.7.29.94.94,0,0,1,.29.7.87.87,0,0,1-.29.68,1,1,0,0,1-.7.28.91.91,0,0,1-.68-.28A.94.94,0,0,1,312.77,289Z"/><path d="M336.83,289a1,1,0,0,1,.28-.7.92.92,0,0,1,.68-.29,1,1,0,0,1,.7.29.94.94,0,0,1,.29.7.87.87,0,0,1-.29.68,1,1,0,0,1-.7.28.91.91,0,0,1-.68-.28A.94.94,0,0,1,336.83,289Z"/><path d="M360.89,289a1,1,0,0,1,.28-.7.92.92,0,0,1,.68-.29,1,1,0,0,1,.7.29.94.94,0,0,1,.29.7.87.87,0,0,1-.29.68,1,1,0,0,1-.7.28.91.91,0,0,1-.68-.28A.94.94,0,0,1,360.89,289Z"/><path d="M385,289a1,1,0,0,1,.28-.7.92.92,0,0,1,.68-.29,1,1,0,0,1,.7.29.94.94,0,0,1,.29.7.87.87,0,0,1-.29.68,1,1,0,0,1-.7.28.91.91,0,0,1-.68-.28A.94.94,0,0,1,385,289Z"/><path d="M409,289a1,1,0,0,1,.28-.7A.92.92,0,0,1,410,288a1,1,0,0,1,.7.29.94.94,0,0,1,.29.7.87.87,0,0,1-.29.68,1,1,0,0,1-.7.28.91.91,0,0,1-.68-.28A.9.9,0,0,1,409,289Z"/><path d="M433.07,289a1,1,0,0,1,.28-.7A.91.91,0,0,1,434,288a1,1,0,0,1,1,1,.91.91,0,0,1-.29.68,1,1,0,0,1-.7.28,1,1,0,0,1-1-1Z"/><path d="M457.13,289a1,1,0,0,1,.28-.7.91.91,0,0,1,.68-.29,1,1,0,0,1,1,1,.91.91,0,0,1-.29.68,1,1,0,0,1-.7.28,1,1,0,0,1-1-1Z"/><path d="M481.19,289a1,1,0,0,1,.28-.7.91.91,0,0,1,.68-.29,1,1,0,0,1,1,1,.91.91,0,0,1-.29.68,1,1,0,0,1-.7.28,1,1,0,0,1-1-1Z"/><path d="M505.25,289a1,1,0,0,1,.28-.7.91.91,0,0,1,.68-.29,1,1,0,0,1,1,1,.91.91,0,0,1-.29.68,1,1,0,0,1-.7.28,1,1,0,0,1-1-1Z"/><path d="M529.31,289a1,1,0,0,1,.28-.7.91.91,0,0,1,.68-.29,1,1,0,0,1,1,1,.91.91,0,0,1-.29.68,1,1,0,0,1-.7.28,1,1,0,0,1-1-1Z"/><path d="M553.37,289a1,1,0,0,1,.28-.7.91.91,0,0,1,.68-.29,1,1,0,0,1,1,1,.91.91,0,0,1-.29.68,1,1,0,0,1-.7.28,1,1,0,0,1-1-1Z"/><path d="M577.43,289a1,1,0,0,1,.28-.7.91.91,0,0,1,.68-.29,1,1,0,0,1,1,1,.91.91,0,0,1-.29.68,1,1,0,0,1-.7.28,1,1,0,0,1-1-1Z"/><path d="M601.49,289a1,1,0,0,1,.28-.7.91.91,0,0,1,.68-.29,1,1,0,0,1,1,1,.91.91,0,0,1-.29.68,1,1,0,0,1-.7.28,1,1,0,0,1-1-1Z"/><path d="M625.55,289a1,1,0,0,1,.28-.7.91.91,0,0,1,.68-.29,1,1,0,0,1,1,1,.91.91,0,0,1-.29.68,1,1,0,0,1-.7.28,1,1,0,0,1-1-1Z"/><path d="M649.61,289a1,1,0,0,1,.28-.7.91.91,0,0,1,.68-.29,1,1,0,0,1,1,1,.91.91,0,0,1-.29.68,1,1,0,0,1-.7.28,1,1,0,0,1-1-1Z"/><path d="M0,325a1,1,0,0,1,.28-.7A.91.91,0,0,1,1,324a1,1,0,0,1,1,1,.91.91,0,0,1-.29.68A1,1,0,0,1,1,326a.9.9,0,0,1-.68-.28A.9.9,0,0,1,0,325Z"/><path d="M24.06,325a1,1,0,0,1,.28-.7A.91.91,0,0,1,25,324a1,1,0,0,1,1,1,.91.91,0,0,1-.29.68,1,1,0,0,1-.7.28,1,1,0,0,1-1-1Z"/><path d="M48.12,325a1,1,0,0,1,.28-.7.91.91,0,0,1,.68-.29,1,1,0,0,1,1,1,.91.91,0,0,1-.29.68,1,1,0,0,1-.7.28,1,1,0,0,1-1-1Z"/><path d="M72.18,325a1,1,0,0,1,.28-.7.91.91,0,0,1,.68-.29,1,1,0,0,1,1,1,.91.91,0,0,1-.29.68,1,1,0,0,1-.7.28,1,1,0,0,1-1-1Z"/><path d="M96.24,325a1,1,0,0,1,.28-.7.91.91,0,0,1,.68-.29,1,1,0,0,1,1,1,.91.91,0,0,1-.29.68,1,1,0,0,1-.7.28,1,1,0,0,1-1-1Z"/><path d="M120.3,325a1,1,0,0,1,.28-.7.91.91,0,0,1,.68-.29,1,1,0,0,1,1,1,.91.91,0,0,1-.29.68,1,1,0,0,1-.7.28,1,1,0,0,1-1-1Z"/><path d="M144.36,325a1,1,0,0,1,.28-.7.91.91,0,0,1,.68-.29,1,1,0,0,1,1,1,.91.91,0,0,1-.29.68,1,1,0,0,1-.7.28,1,1,0,0,1-1-1Z"/><path d="M168.42,325a1,1,0,0,1,.27-.7,1,1,0,0,1,1.38,0,1,1,0,0,1,.3.7.88.88,0,0,1-.3.68,1,1,0,0,1-1.65-.68Z"/><path d="M192.48,325a1,1,0,0,1,.27-.7,1,1,0,0,1,1.38,0,1,1,0,0,1,.3.7.88.88,0,0,1-.3.68,1,1,0,0,1-1.65-.68Z"/><path d="M216.54,325a1,1,0,0,1,.27-.7,1,1,0,0,1,1.38,0,1,1,0,0,1,.3.7.88.88,0,0,1-.3.68,1,1,0,0,1-1.65-.68Z"/><path d="M240.6,325a1,1,0,0,1,.27-.7,1,1,0,0,1,1.38,0,1,1,0,0,1,.3.7.88.88,0,0,1-.3.68,1,1,0,0,1-1.65-.68Z"/><path d="M264.66,325a1,1,0,0,1,.27-.7,1,1,0,0,1,1.38,0,1,1,0,0,1,.3.7.88.88,0,0,1-.3.68,1,1,0,0,1-1.65-.68Z"/><path d="M288.71,325a1,1,0,0,1,.28-.7.92.92,0,0,1,.68-.29,1,1,0,0,1,.7.29,1,1,0,0,1,.3.7.88.88,0,0,1-.3.68,1,1,0,0,1-.7.28.91.91,0,0,1-.68-.28A.94.94,0,0,1,288.71,325Z"/><path d="M312.77,325a1,1,0,0,1,.28-.7.92.92,0,0,1,.68-.29,1,1,0,0,1,.7.29.94.94,0,0,1,.29.7.87.87,0,0,1-.29.68,1,1,0,0,1-.7.28.91.91,0,0,1-.68-.28A.94.94,0,0,1,312.77,325Z"/><path d="M336.83,325a1,1,0,0,1,.28-.7.92.92,0,0,1,.68-.29,1,1,0,0,1,.7.29.94.94,0,0,1,.29.7.87.87,0,0,1-.29.68,1,1,0,0,1-.7.28.91.91,0,0,1-.68-.28A.94.94,0,0,1,336.83,325Z"/><path d="M360.89,325a1,1,0,0,1,.28-.7.92.92,0,0,1,.68-.29,1,1,0,0,1,.7.29.94.94,0,0,1,.29.7.87.87,0,0,1-.29.68,1,1,0,0,1-.7.28.91.91,0,0,1-.68-.28A.94.94,0,0,1,360.89,325Z"/><path d="M385,325a1,1,0,0,1,.28-.7.92.92,0,0,1,.68-.29,1,1,0,0,1,.7.29.94.94,0,0,1,.29.7.87.87,0,0,1-.29.68,1,1,0,0,1-.7.28.91.91,0,0,1-.68-.28A.94.94,0,0,1,385,325Z"/><path d="M409,325a1,1,0,0,1,.28-.7A.92.92,0,0,1,410,324a1,1,0,0,1,.7.29.94.94,0,0,1,.29.7.87.87,0,0,1-.29.68,1,1,0,0,1-.7.28.91.91,0,0,1-.68-.28A.9.9,0,0,1,409,325Z"/><path d="M433.07,325a1,1,0,0,1,.28-.7A.91.91,0,0,1,434,324a1,1,0,0,1,1,1,.91.91,0,0,1-.29.68,1,1,0,0,1-.7.28,1,1,0,0,1-1-1Z"/><path d="M457.13,325a1,1,0,0,1,.28-.7.91.91,0,0,1,.68-.29,1,1,0,0,1,1,1,.91.91,0,0,1-.29.68,1,1,0,0,1-.7.28,1,1,0,0,1-1-1Z"/><path d="M481.19,325a1,1,0,0,1,.28-.7.91.91,0,0,1,.68-.29,1,1,0,0,1,1,1,.91.91,0,0,1-.29.68,1,1,0,0,1-.7.28,1,1,0,0,1-1-1Z"/><path d="M505.25,325a1,1,0,0,1,.28-.7.91.91,0,0,1,.68-.29,1,1,0,0,1,1,1,.91.91,0,0,1-.29.68,1,1,0,0,1-.7.28,1,1,0,0,1-1-1Z"/><path d="M529.31,325a1,1,0,0,1,.28-.7.91.91,0,0,1,.68-.29,1,1,0,0,1,1,1,.91.91,0,0,1-.29.68,1,1,0,0,1-.7.28,1,1,0,0,1-1-1Z"/><path d="M553.37,325a1,1,0,0,1,.28-.7.91.91,0,0,1,.68-.29,1,1,0,0,1,1,1,.91.91,0,0,1-.29.68,1,1,0,0,1-.7.28,1,1,0,0,1-1-1Z"/><path d="M577.43,325a1,1,0,0,1,.28-.7.91.91,0,0,1,.68-.29,1,1,0,0,1,1,1,.91.91,0,0,1-.29.68,1,1,0,0,1-.7.28,1,1,0,0,1-1-1Z"/><path d="M601.49,325a1,1,0,0,1,.28-.7.91.91,0,0,1,.68-.29,1,1,0,0,1,1,1,.91.91,0,0,1-.29.68,1,1,0,0,1-.7.28,1,1,0,0,1-1-1Z"/><path d="M625.55,325a1,1,0,0,1,.28-.7.91.91,0,0,1,.68-.29,1,1,0,0,1,1,1,.91.91,0,0,1-.29.68,1,1,0,0,1-.7.28,1,1,0,0,1-1-1Z"/><path d="M649.61,325a1,1,0,0,1,.28-.7.91.91,0,0,1,.68-.29,1,1,0,0,1,1,1,.91.91,0,0,1-.29.68,1,1,0,0,1-.7.28,1,1,0,0,1-1-1Z"/><path d="M0,361a1,1,0,0,1,.28-.7A.91.91,0,0,1,1,360a1,1,0,0,1,1,1,.91.91,0,0,1-.29.68A1,1,0,0,1,1,362a.9.9,0,0,1-.68-.28A.9.9,0,0,1,0,361Z"/><path d="M24.06,361a1,1,0,0,1,.28-.7A.91.91,0,0,1,25,360a1,1,0,0,1,1,1,.91.91,0,0,1-.29.68,1,1,0,0,1-.7.28,1,1,0,0,1-1-1Z"/><path d="M48.12,361a1,1,0,0,1,.28-.7.91.91,0,0,1,.68-.29,1,1,0,0,1,1,1,.91.91,0,0,1-.29.68,1,1,0,0,1-.7.28,1,1,0,0,1-1-1Z"/><path d="M72.18,361a1,1,0,0,1,.28-.7.91.91,0,0,1,.68-.29,1,1,0,0,1,1,1,.91.91,0,0,1-.29.68,1,1,0,0,1-.7.28,1,1,0,0,1-1-1Z"/><path d="M96.24,361a1,1,0,0,1,.28-.7.91.91,0,0,1,.68-.29,1,1,0,0,1,1,1,.91.91,0,0,1-.29.68,1,1,0,0,1-.7.28,1,1,0,0,1-1-1Z"/><path d="M120.3,361a1,1,0,0,1,.28-.7.91.91,0,0,1,.68-.29,1,1,0,0,1,1,1,.91.91,0,0,1-.29.68,1,1,0,0,1-.7.28,1,1,0,0,1-1-1Z"/><path d="M144.36,361a1,1,0,0,1,.28-.7.91.91,0,0,1,.68-.29,1,1,0,0,1,1,1,.91.91,0,0,1-.29.68,1,1,0,0,1-.7.28,1,1,0,0,1-1-1Z"/><path d="M168.42,361a1,1,0,0,1,.27-.7,1,1,0,0,1,1.38,0,1,1,0,0,1,.3.7.88.88,0,0,1-.3.68,1,1,0,0,1-1.65-.68Z"/><path d="M192.48,361a1,1,0,0,1,.27-.7,1,1,0,0,1,1.38,0,1,1,0,0,1,.3.7.88.88,0,0,1-.3.68,1,1,0,0,1-1.65-.68Z"/><path d="M216.54,361a1,1,0,0,1,.27-.7,1,1,0,0,1,1.38,0,1,1,0,0,1,.3.7.88.88,0,0,1-.3.68,1,1,0,0,1-1.65-.68Z"/><path d="M240.6,361a1,1,0,0,1,.27-.7,1,1,0,0,1,1.38,0,1,1,0,0,1,.3.7.88.88,0,0,1-.3.68,1,1,0,0,1-1.65-.68Z"/><path d="M264.66,361a1,1,0,0,1,.27-.7,1,1,0,0,1,1.38,0,1,1,0,0,1,.3.7.88.88,0,0,1-.3.68,1,1,0,0,1-1.65-.68Z"/><path d="M288.71,361a1,1,0,0,1,.28-.7.92.92,0,0,1,.68-.29,1,1,0,0,1,.7.29,1,1,0,0,1,.3.7.88.88,0,0,1-.3.68,1,1,0,0,1-.7.28.91.91,0,0,1-.68-.28A.94.94,0,0,1,288.71,361Z"/><path d="M312.77,361a1,1,0,0,1,.28-.7.92.92,0,0,1,.68-.29,1,1,0,0,1,.7.29.94.94,0,0,1,.29.7.87.87,0,0,1-.29.68,1,1,0,0,1-.7.28.91.91,0,0,1-.68-.28A.94.94,0,0,1,312.77,361Z"/><path d="M336.83,361a1,1,0,0,1,.28-.7.92.92,0,0,1,.68-.29,1,1,0,0,1,.7.29.94.94,0,0,1,.29.7.87.87,0,0,1-.29.68,1,1,0,0,1-.7.28.91.91,0,0,1-.68-.28A.94.94,0,0,1,336.83,361Z"/><path d="M360.89,361a1,1,0,0,1,.28-.7.92.92,0,0,1,.68-.29,1,1,0,0,1,.7.29.94.94,0,0,1,.29.7.87.87,0,0,1-.29.68,1,1,0,0,1-.7.28.91.91,0,0,1-.68-.28A.94.94,0,0,1,360.89,361Z"/><path d="M385,361a1,1,0,0,1,.28-.7.92.92,0,0,1,.68-.29,1,1,0,0,1,.7.29.94.94,0,0,1,.29.7.87.87,0,0,1-.29.68,1,1,0,0,1-.7.28.91.91,0,0,1-.68-.28A.94.94,0,0,1,385,361Z"/><path d="M409,361a1,1,0,0,1,.28-.7A.92.92,0,0,1,410,360a1,1,0,0,1,.7.29.94.94,0,0,1,.29.7.87.87,0,0,1-.29.68,1,1,0,0,1-.7.28.91.91,0,0,1-.68-.28A.9.9,0,0,1,409,361Z"/><path d="M433.07,361a1,1,0,0,1,.28-.7A.91.91,0,0,1,434,360a1,1,0,0,1,1,1,.91.91,0,0,1-.29.68,1,1,0,0,1-.7.28,1,1,0,0,1-1-1Z"/><path d="M457.13,361a1,1,0,0,1,.28-.7.91.91,0,0,1,.68-.29,1,1,0,0,1,1,1,.91.91,0,0,1-.29.68,1,1,0,0,1-.7.28,1,1,0,0,1-1-1Z"/><path d="M481.19,361a1,1,0,0,1,.28-.7.91.91,0,0,1,.68-.29,1,1,0,0,1,1,1,.91.91,0,0,1-.29.68,1,1,0,0,1-.7.28,1,1,0,0,1-1-1Z"/><path d="M505.25,361a1,1,0,0,1,.28-.7.91.91,0,0,1,.68-.29,1,1,0,0,1,1,1,.91.91,0,0,1-.29.68,1,1,0,0,1-.7.28,1,1,0,0,1-1-1Z"/><path d="M529.31,361a1,1,0,0,1,.28-.7.91.91,0,0,1,.68-.29,1,1,0,0,1,1,1,.91.91,0,0,1-.29.68,1,1,0,0,1-.7.28,1,1,0,0,1-1-1Z"/><path d="M553.37,361a1,1,0,0,1,.28-.7.91.91,0,0,1,.68-.29,1,1,0,0,1,1,1,.91.91,0,0,1-.29.68,1,1,0,0,1-.7.28,1,1,0,0,1-1-1Z"/><path d="M577.43,361a1,1,0,0,1,.28-.7.91.91,0,0,1,.68-.29,1,1,0,0,1,1,1,.91.91,0,0,1-.29.68,1,1,0,0,1-.7.28,1,1,0,0,1-1-1Z"/><path d="M601.49,361a1,1,0,0,1,.28-.7.91.91,0,0,1,.68-.29,1,1,0,0,1,1,1,.91.91,0,0,1-.29.68,1,1,0,0,1-.7.28,1,1,0,0,1-1-1Z"/><path d="M625.55,361a1,1,0,0,1,.28-.7.91.91,0,0,1,.68-.29,1,1,0,0,1,1,1,.91.91,0,0,1-.29.68,1,1,0,0,1-.7.28,1,1,0,0,1-1-1Z"/><path d="M649.61,361a1,1,0,0,1,.28-.7.91.91,0,0,1,.68-.29,1,1,0,0,1,1,1,.91.91,0,0,1-.29.68,1,1,0,0,1-.7.28,1,1,0,0,1-1-1Z"/><path d="M0,397a1,1,0,0,1,.28-.7A.91.91,0,0,1,1,396a1,1,0,0,1,1,1,.91.91,0,0,1-.29.68A1,1,0,0,1,1,398a.9.9,0,0,1-.68-.28A.9.9,0,0,1,0,397Z"/><path d="M24.06,397a1,1,0,0,1,.28-.7A.91.91,0,0,1,25,396a1,1,0,0,1,1,1,.91.91,0,0,1-.29.68,1,1,0,0,1-.7.28,1,1,0,0,1-1-1Z"/><path d="M48.12,397a1,1,0,0,1,.28-.7.91.91,0,0,1,.68-.29,1,1,0,0,1,1,1,.91.91,0,0,1-.29.68,1,1,0,0,1-.7.28,1,1,0,0,1-1-1Z"/><path d="M72.18,397a1,1,0,0,1,.28-.7.91.91,0,0,1,.68-.29,1,1,0,0,1,1,1,.91.91,0,0,1-.29.68,1,1,0,0,1-.7.28,1,1,0,0,1-1-1Z"/><path d="M96.24,397a1,1,0,0,1,.28-.7.91.91,0,0,1,.68-.29,1,1,0,0,1,1,1,.91.91,0,0,1-.29.68,1,1,0,0,1-.7.28,1,1,0,0,1-1-1Z"/><path d="M120.3,397a1,1,0,0,1,.28-.7.91.91,0,0,1,.68-.29,1,1,0,0,1,1,1,.91.91,0,0,1-.29.68,1,1,0,0,1-.7.28,1,1,0,0,1-1-1Z"/><path d="M144.36,397a1,1,0,0,1,.28-.7.91.91,0,0,1,.68-.29,1,1,0,0,1,1,1,.91.91,0,0,1-.29.68,1,1,0,0,1-.7.28,1,1,0,0,1-1-1Z"/><path d="M168.42,397a1,1,0,0,1,.27-.7,1,1,0,0,1,1.38,0,1,1,0,0,1,.3.7.88.88,0,0,1-.3.68,1,1,0,0,1-1.65-.68Z"/><path d="M192.48,397a1,1,0,0,1,.27-.7,1,1,0,0,1,1.38,0,1,1,0,0,1,.3.7.88.88,0,0,1-.3.68,1,1,0,0,1-1.65-.68Z"/><path d="M216.54,397a1,1,0,0,1,.27-.7,1,1,0,0,1,1.38,0,1,1,0,0,1,.3.7.88.88,0,0,1-.3.68,1,1,0,0,1-1.65-.68Z"/><path d="M240.6,397a1,1,0,0,1,.27-.7,1,1,0,0,1,1.38,0,1,1,0,0,1,.3.7.88.88,0,0,1-.3.68,1,1,0,0,1-1.65-.68Z"/><path d="M264.66,397a1,1,0,0,1,.27-.7,1,1,0,0,1,1.38,0,1,1,0,0,1,.3.7.88.88,0,0,1-.3.68,1,1,0,0,1-1.65-.68Z"/><path d="M288.71,397a1,1,0,0,1,.28-.7.92.92,0,0,1,.68-.29,1,1,0,0,1,.7.29,1,1,0,0,1,.3.7.88.88,0,0,1-.3.68,1,1,0,0,1-.7.28.91.91,0,0,1-.68-.28A.94.94,0,0,1,288.71,397Z"/><path d="M312.77,397a1,1,0,0,1,.28-.7.92.92,0,0,1,.68-.29,1,1,0,0,1,.7.29.94.94,0,0,1,.29.7.87.87,0,0,1-.29.68,1,1,0,0,1-.7.28.91.91,0,0,1-.68-.28A.94.94,0,0,1,312.77,397Z"/><path d="M336.83,397a1,1,0,0,1,.28-.7.92.92,0,0,1,.68-.29,1,1,0,0,1,.7.29.94.94,0,0,1,.29.7.87.87,0,0,1-.29.68,1,1,0,0,1-.7.28.91.91,0,0,1-.68-.28A.94.94,0,0,1,336.83,397Z"/><path d="M360.89,397a1,1,0,0,1,.28-.7.92.92,0,0,1,.68-.29,1,1,0,0,1,.7.29.94.94,0,0,1,.29.7.87.87,0,0,1-.29.68,1,1,0,0,1-.7.28.91.91,0,0,1-.68-.28A.94.94,0,0,1,360.89,397Z"/><path d="M385,397a1,1,0,0,1,.28-.7.92.92,0,0,1,.68-.29,1,1,0,0,1,.7.29.94.94,0,0,1,.29.7.87.87,0,0,1-.29.68,1,1,0,0,1-.7.28.91.91,0,0,1-.68-.28A.94.94,0,0,1,385,397Z"/><path d="M409,397a1,1,0,0,1,.28-.7A.92.92,0,0,1,410,396a1,1,0,0,1,.7.29.94.94,0,0,1,.29.7.87.87,0,0,1-.29.68,1,1,0,0,1-.7.28.91.91,0,0,1-.68-.28A.9.9,0,0,1,409,397Z"/><path d="M433.07,397a1,1,0,0,1,.28-.7A.91.91,0,0,1,434,396a1,1,0,0,1,1,1,.91.91,0,0,1-.29.68,1,1,0,0,1-.7.28,1,1,0,0,1-1-1Z"/><path d="M457.13,397a1,1,0,0,1,.28-.7.91.91,0,0,1,.68-.29,1,1,0,0,1,1,1,.91.91,0,0,1-.29.68,1,1,0,0,1-.7.28,1,1,0,0,1-1-1Z"/><path d="M481.19,397a1,1,0,0,1,.28-.7.91.91,0,0,1,.68-.29,1,1,0,0,1,1,1,.91.91,0,0,1-.29.68,1,1,0,0,1-.7.28,1,1,0,0,1-1-1Z"/><path d="M505.25,397a1,1,0,0,1,.28-.7.91.91,0,0,1,.68-.29,1,1,0,0,1,1,1,.91.91,0,0,1-.29.68,1,1,0,0,1-.7.28,1,1,0,0,1-1-1Z"/><path d="M529.31,397a1,1,0,0,1,.28-.7.91.91,0,0,1,.68-.29,1,1,0,0,1,1,1,.91.91,0,0,1-.29.68,1,1,0,0,1-.7.28,1,1,0,0,1-1-1Z"/><path d="M553.37,397a1,1,0,0,1,.28-.7.91.91,0,0,1,.68-.29,1,1,0,0,1,1,1,.91.91,0,0,1-.29.68,1,1,0,0,1-.7.28,1,1,0,0,1-1-1Z"/><path d="M577.43,397a1,1,0,0,1,.28-.7.91.91,0,0,1,.68-.29,1,1,0,0,1,1,1,.91.91,0,0,1-.29.68,1,1,0,0,1-.7.28,1,1,0,0,1-1-1Z"/><path d="M601.49,397a1,1,0,0,1,.28-.7.91.91,0,0,1,.68-.29,1,1,0,0,1,1,1,.91.91,0,0,1-.29.68,1,1,0,0,1-.7.28,1,1,0,0,1-1-1Z"/><path d="M625.55,397a1,1,0,0,1,.28-.7.91.91,0,0,1,.68-.29,1,1,0,0,1,1,1,.91.91,0,0,1-.29.68,1,1,0,0,1-.7.28,1,1,0,0,1-1-1Z"/><path d="M649.61,397a1,1,0,0,1,.28-.7.91.91,0,0,1,.68-.29,1,1,0,0,1,1,1,.91.91,0,0,1-.29.68,1,1,0,0,1-.7.28,1,1,0,0,1-1-1Z"/><path d="M0,433a1,1,0,0,1,.28-.7A.91.91,0,0,1,1,432a1,1,0,0,1,1,1,.91.91,0,0,1-.29.68A1,1,0,0,1,1,434a.9.9,0,0,1-.68-.28A.9.9,0,0,1,0,433Z"/><path d="M24.06,433a1,1,0,0,1,.28-.7A.91.91,0,0,1,25,432a1,1,0,0,1,1,1,.91.91,0,0,1-.29.68,1,1,0,0,1-.7.28,1,1,0,0,1-1-1Z"/><path d="M48.12,433a1,1,0,0,1,.28-.7.91.91,0,0,1,.68-.29,1,1,0,0,1,1,1,.91.91,0,0,1-.29.68,1,1,0,0,1-.7.28,1,1,0,0,1-1-1Z"/><path d="M72.18,433a1,1,0,0,1,.28-.7.91.91,0,0,1,.68-.29,1,1,0,0,1,1,1,.91.91,0,0,1-.29.68,1,1,0,0,1-.7.28,1,1,0,0,1-1-1Z"/><path d="M96.24,433a1,1,0,0,1,.28-.7.91.91,0,0,1,.68-.29,1,1,0,0,1,1,1,.91.91,0,0,1-.29.68,1,1,0,0,1-.7.28,1,1,0,0,1-1-1Z"/><path d="M120.3,433a1,1,0,0,1,.28-.7.91.91,0,0,1,.68-.29,1,1,0,0,1,1,1,.91.91,0,0,1-.29.68,1,1,0,0,1-.7.28,1,1,0,0,1-1-1Z"/><path d="M144.36,433a1,1,0,0,1,.28-.7.91.91,0,0,1,.68-.29,1,1,0,0,1,1,1,.91.91,0,0,1-.29.68,1,1,0,0,1-.7.28,1,1,0,0,1-1-1Z"/><path d="M168.42,433a1,1,0,0,1,.27-.7,1,1,0,0,1,1.38,0,1,1,0,0,1,.3.7.88.88,0,0,1-.3.68,1,1,0,0,1-1.65-.68Z"/><path d="M192.48,433a1,1,0,0,1,.27-.7,1,1,0,0,1,1.38,0,1,1,0,0,1,.3.7.88.88,0,0,1-.3.68,1,1,0,0,1-1.65-.68Z"/><path d="M216.54,433a1,1,0,0,1,.27-.7,1,1,0,0,1,1.38,0,1,1,0,0,1,.3.7.88.88,0,0,1-.3.68,1,1,0,0,1-1.65-.68Z"/><path d="M240.6,433a1,1,0,0,1,.27-.7,1,1,0,0,1,1.38,0,1,1,0,0,1,.3.7.88.88,0,0,1-.3.68,1,1,0,0,1-1.65-.68Z"/><path d="M264.66,433a1,1,0,0,1,.27-.7,1,1,0,0,1,1.38,0,1,1,0,0,1,.3.7.88.88,0,0,1-.3.68,1,1,0,0,1-1.65-.68Z"/><path d="M288.71,433a1,1,0,0,1,.28-.7.92.92,0,0,1,.68-.29,1,1,0,0,1,.7.29,1,1,0,0,1,.3.7.88.88,0,0,1-.3.68,1,1,0,0,1-.7.28.91.91,0,0,1-.68-.28A.94.94,0,0,1,288.71,433Z"/><path d="M312.77,433a1,1,0,0,1,.28-.7.92.92,0,0,1,.68-.29,1,1,0,0,1,.7.29.94.94,0,0,1,.29.7.87.87,0,0,1-.29.68,1,1,0,0,1-.7.28.91.91,0,0,1-.68-.28A.94.94,0,0,1,312.77,433Z"/><path d="M336.83,433a1,1,0,0,1,.28-.7.92.92,0,0,1,.68-.29,1,1,0,0,1,.7.29.94.94,0,0,1,.29.7.87.87,0,0,1-.29.68,1,1,0,0,1-.7.28.91.91,0,0,1-.68-.28A.94.94,0,0,1,336.83,433Z"/><path d="M360.89,433a1,1,0,0,1,.28-.7.92.92,0,0,1,.68-.29,1,1,0,0,1,.7.29.94.94,0,0,1,.29.7.87.87,0,0,1-.29.68,1,1,0,0,1-.7.28.91.91,0,0,1-.68-.28A.94.94,0,0,1,360.89,433Z"/><path d="M385,433a1,1,0,0,1,.28-.7.92.92,0,0,1,.68-.29,1,1,0,0,1,.7.29.94.94,0,0,1,.29.7.87.87,0,0,1-.29.68,1,1,0,0,1-.7.28.91.91,0,0,1-.68-.28A.94.94,0,0,1,385,433Z"/><path d="M409,433a1,1,0,0,1,.28-.7A.92.92,0,0,1,410,432a1,1,0,0,1,.7.29.94.94,0,0,1,.29.7.87.87,0,0,1-.29.68,1,1,0,0,1-.7.28.91.91,0,0,1-.68-.28A.9.9,0,0,1,409,433Z"/><path d="M433.07,433a1,1,0,0,1,.28-.7A.91.91,0,0,1,434,432a1,1,0,0,1,1,1,.91.91,0,0,1-.29.68,1,1,0,0,1-.7.28,1,1,0,0,1-1-1Z"/><path d="M457.13,433a1,1,0,0,1,.28-.7.91.91,0,0,1,.68-.29,1,1,0,0,1,1,1,.91.91,0,0,1-.29.68,1,1,0,0,1-.7.28,1,1,0,0,1-1-1Z"/><path d="M481.19,433a1,1,0,0,1,.28-.7.91.91,0,0,1,.68-.29,1,1,0,0,1,1,1,.91.91,0,0,1-.29.68,1,1,0,0,1-.7.28,1,1,0,0,1-1-1Z"/><path d="M505.25,433a1,1,0,0,1,.28-.7.91.91,0,0,1,.68-.29,1,1,0,0,1,1,1,.91.91,0,0,1-.29.68,1,1,0,0,1-.7.28,1,1,0,0,1-1-1Z"/><path d="M529.31,433a1,1,0,0,1,.28-.7.91.91,0,0,1,.68-.29,1,1,0,0,1,1,1,.91.91,0,0,1-.29.68,1,1,0,0,1-.7.28,1,1,0,0,1-1-1Z"/><path d="M553.37,433a1,1,0,0,1,.28-.7.91.91,0,0,1,.68-.29,1,1,0,0,1,1,1,.91.91,0,0,1-.29.68,1,1,0,0,1-.7.28,1,1,0,0,1-1-1Z"/><path d="M577.43,433a1,1,0,0,1,.28-.7.91.91,0,0,1,.68-.29,1,1,0,0,1,1,1,.91.91,0,0,1-.29.68,1,1,0,0,1-.7.28,1,1,0,0,1-1-1Z"/><path d="M601.49,433a1,1,0,0,1,.28-.7.91.91,0,0,1,.68-.29,1,1,0,0,1,1,1,.91.91,0,0,1-.29.68,1,1,0,0,1-.7.28,1,1,0,0,1-1-1Z"/><path d="M625.55,433a1,1,0,0,1,.28-.7.91.91,0,0,1,.68-.29,1,1,0,0,1,1,1,.91.91,0,0,1-.29.68,1,1,0,0,1-.7.28,1,1,0,0,1-1-1Z"/><path d="M649.61,433a1,1,0,0,1,.28-.7.91.91,0,0,1,.68-.29,1,1,0,0,1,1,1,.91.91,0,0,1-.29.68,1,1,0,0,1-.7.28,1,1,0,0,1-1-1Z"/><path d="M0,469a1,1,0,0,1,.28-.7A.91.91,0,0,1,1,468a1,1,0,0,1,1,1,.91.91,0,0,1-.29.68A1,1,0,0,1,1,470a.9.9,0,0,1-.68-.28A.9.9,0,0,1,0,469Z"/><path d="M24.06,469a1,1,0,0,1,.28-.7A.91.91,0,0,1,25,468a1,1,0,0,1,1,1,.91.91,0,0,1-.29.68,1,1,0,0,1-.7.28,1,1,0,0,1-1-1Z"/><path d="M48.12,469a1,1,0,0,1,.28-.7.91.91,0,0,1,.68-.29,1,1,0,0,1,1,1,.91.91,0,0,1-.29.68,1,1,0,0,1-.7.28,1,1,0,0,1-1-1Z"/><path d="M72.18,469a1,1,0,0,1,.28-.7.91.91,0,0,1,.68-.29,1,1,0,0,1,1,1,.91.91,0,0,1-.29.68,1,1,0,0,1-.7.28,1,1,0,0,1-1-1Z"/><path d="M96.24,469a1,1,0,0,1,.28-.7.91.91,0,0,1,.68-.29,1,1,0,0,1,1,1,.91.91,0,0,1-.29.68,1,1,0,0,1-.7.28,1,1,0,0,1-1-1Z"/><path d="M120.3,469a1,1,0,0,1,.28-.7.91.91,0,0,1,.68-.29,1,1,0,0,1,1,1,.91.91,0,0,1-.29.68,1,1,0,0,1-.7.28,1,1,0,0,1-1-1Z"/><path d="M144.36,469a1,1,0,0,1,.28-.7.91.91,0,0,1,.68-.29,1,1,0,0,1,1,1,.91.91,0,0,1-.29.68,1,1,0,0,1-.7.28,1,1,0,0,1-1-1Z"/><path d="M168.42,469a1,1,0,0,1,.27-.7,1,1,0,0,1,1.38,0,1,1,0,0,1,.3.7.88.88,0,0,1-.3.68,1,1,0,0,1-1.65-.68Z"/><path d="M192.48,469a1,1,0,0,1,.27-.7,1,1,0,0,1,1.38,0,1,1,0,0,1,.3.7.88.88,0,0,1-.3.68,1,1,0,0,1-1.65-.68Z"/><path d="M216.54,469a1,1,0,0,1,.27-.7,1,1,0,0,1,1.38,0,1,1,0,0,1,.3.7.88.88,0,0,1-.3.68,1,1,0,0,1-1.65-.68Z"/><path d="M240.6,469a1,1,0,0,1,.27-.7,1,1,0,0,1,1.38,0,1,1,0,0,1,.3.7.88.88,0,0,1-.3.68,1,1,0,0,1-1.65-.68Z"/><path d="M264.66,469a1,1,0,0,1,.27-.7,1,1,0,0,1,1.38,0,1,1,0,0,1,.3.7.88.88,0,0,1-.3.68,1,1,0,0,1-1.65-.68Z"/><path d="M288.71,469a1,1,0,0,1,.28-.7.92.92,0,0,1,.68-.29,1,1,0,0,1,.7.29,1,1,0,0,1,.3.7.88.88,0,0,1-.3.68,1,1,0,0,1-.7.28.91.91,0,0,1-.68-.28A.94.94,0,0,1,288.71,469Z"/><path d="M312.77,469a1,1,0,0,1,.28-.7.92.92,0,0,1,.68-.29,1,1,0,0,1,.7.29.94.94,0,0,1,.29.7.87.87,0,0,1-.29.68,1,1,0,0,1-.7.28.91.91,0,0,1-.68-.28A.94.94,0,0,1,312.77,469Z"/><path d="M336.83,469a1,1,0,0,1,.28-.7.92.92,0,0,1,.68-.29,1,1,0,0,1,.7.29.94.94,0,0,1,.29.7.87.87,0,0,1-.29.68,1,1,0,0,1-.7.28.91.91,0,0,1-.68-.28A.94.94,0,0,1,336.83,469Z"/><path d="M360.89,469a1,1,0,0,1,.28-.7.92.92,0,0,1,.68-.29,1,1,0,0,1,.7.29.94.94,0,0,1,.29.7.87.87,0,0,1-.29.68,1,1,0,0,1-.7.28.91.91,0,0,1-.68-.28A.94.94,0,0,1,360.89,469Z"/><path d="M385,469a1,1,0,0,1,.28-.7.92.92,0,0,1,.68-.29,1,1,0,0,1,.7.29.94.94,0,0,1,.29.7.87.87,0,0,1-.29.68,1,1,0,0,1-.7.28.91.91,0,0,1-.68-.28A.94.94,0,0,1,385,469Z"/><path d="M409,469a1,1,0,0,1,.28-.7A.92.92,0,0,1,410,468a1,1,0,0,1,.7.29.94.94,0,0,1,.29.7.87.87,0,0,1-.29.68,1,1,0,0,1-.7.28.91.91,0,0,1-.68-.28A.9.9,0,0,1,409,469Z"/><path d="M433.07,469a1,1,0,0,1,.28-.7A.91.91,0,0,1,434,468a1,1,0,0,1,1,1,.91.91,0,0,1-.29.68,1,1,0,0,1-.7.28,1,1,0,0,1-1-1Z"/><path d="M457.13,469a1,1,0,0,1,.28-.7.91.91,0,0,1,.68-.29,1,1,0,0,1,1,1,.91.91,0,0,1-.29.68,1,1,0,0,1-.7.28,1,1,0,0,1-1-1Z"/><path d="M481.19,469a1,1,0,0,1,.28-.7.91.91,0,0,1,.68-.29,1,1,0,0,1,1,1,.91.91,0,0,1-.29.68,1,1,0,0,1-.7.28,1,1,0,0,1-1-1Z"/><path d="M505.25,469a1,1,0,0,1,.28-.7.91.91,0,0,1,.68-.29,1,1,0,0,1,1,1,.91.91,0,0,1-.29.68,1,1,0,0,1-.7.28,1,1,0,0,1-1-1Z"/><path d="M529.31,469a1,1,0,0,1,.28-.7.91.91,0,0,1,.68-.29,1,1,0,0,1,1,1,.91.91,0,0,1-.29.68,1,1,0,0,1-.7.28,1,1,0,0,1-1-1Z"/><path d="M553.37,469a1,1,0,0,1,.28-.7.91.91,0,0,1,.68-.29,1,1,0,0,1,1,1,.91.91,0,0,1-.29.68,1,1,0,0,1-.7.28,1,1,0,0,1-1-1Z"/><path d="M577.43,469a1,1,0,0,1,.28-.7.91.91,0,0,1,.68-.29,1,1,0,0,1,1,1,.91.91,0,0,1-.29.68,1,1,0,0,1-.7.28,1,1,0,0,1-1-1Z"/><path d="M601.49,469a1,1,0,0,1,.28-.7.91.91,0,0,1,.68-.29,1,1,0,0,1,1,1,.91.91,0,0,1-.29.68,1,1,0,0,1-.7.28,1,1,0,0,1-1-1Z"/><path d="M625.55,469a1,1,0,0,1,.28-.7.91.91,0,0,1,.68-.29,1,1,0,0,1,1,1,.91.91,0,0,1-.29.68,1,1,0,0,1-.7.28,1,1,0,0,1-1-1Z"/><path d="M649.61,469a1,1,0,0,1,.28-.7.91.91,0,0,1,.68-.29,1,1,0,0,1,1,1,.91.91,0,0,1-.29.68,1,1,0,0,1-.7.28,1,1,0,0,1-1-1Z"/><path d="M0,505a1,1,0,0,1,.28-.7A.91.91,0,0,1,1,504a1,1,0,0,1,1,1,.91.91,0,0,1-.29.68A1,1,0,0,1,1,506a.9.9,0,0,1-.68-.28A.9.9,0,0,1,0,505Z"/><path d="M24.06,505a1,1,0,0,1,.28-.7A.91.91,0,0,1,25,504a1,1,0,0,1,1,1,.91.91,0,0,1-.29.68,1,1,0,0,1-.7.28,1,1,0,0,1-1-1Z"/><path d="M48.12,505a1,1,0,0,1,.28-.7.91.91,0,0,1,.68-.29,1,1,0,0,1,1,1,.91.91,0,0,1-.29.68,1,1,0,0,1-.7.28,1,1,0,0,1-1-1Z"/><path d="M72.18,505a1,1,0,0,1,.28-.7.91.91,0,0,1,.68-.29,1,1,0,0,1,1,1,.91.91,0,0,1-.29.68,1,1,0,0,1-.7.28,1,1,0,0,1-1-1Z"/><path d="M96.24,505a1,1,0,0,1,.28-.7.91.91,0,0,1,.68-.29,1,1,0,0,1,1,1,.91.91,0,0,1-.29.68,1,1,0,0,1-.7.28,1,1,0,0,1-1-1Z"/><path d="M120.3,505a1,1,0,0,1,.28-.7.91.91,0,0,1,.68-.29,1,1,0,0,1,1,1,.91.91,0,0,1-.29.68,1,1,0,0,1-.7.28,1,1,0,0,1-1-1Z"/><path d="M144.36,505a1,1,0,0,1,.28-.7.91.91,0,0,1,.68-.29,1,1,0,0,1,1,1,.91.91,0,0,1-.29.68,1,1,0,0,1-.7.28,1,1,0,0,1-1-1Z"/><path d="M168.42,505a1,1,0,0,1,.27-.7,1,1,0,0,1,1.38,0,1,1,0,0,1,.3.7.88.88,0,0,1-.3.68,1,1,0,0,1-1.65-.68Z"/><path d="M192.48,505a1,1,0,0,1,.27-.7,1,1,0,0,1,1.38,0,1,1,0,0,1,.3.7.88.88,0,0,1-.3.68,1,1,0,0,1-1.65-.68Z"/><path d="M216.54,505a1,1,0,0,1,.27-.7,1,1,0,0,1,1.38,0,1,1,0,0,1,.3.7.88.88,0,0,1-.3.68,1,1,0,0,1-1.65-.68Z"/><path d="M240.6,505a1,1,0,0,1,.27-.7,1,1,0,0,1,1.38,0,1,1,0,0,1,.3.7.88.88,0,0,1-.3.68,1,1,0,0,1-1.65-.68Z"/><path d="M264.66,505a1,1,0,0,1,.27-.7,1,1,0,0,1,1.38,0,1,1,0,0,1,.3.7.88.88,0,0,1-.3.68,1,1,0,0,1-1.65-.68Z"/><path d="M288.71,505a1,1,0,0,1,.28-.7.92.92,0,0,1,.68-.29,1,1,0,0,1,.7.29,1,1,0,0,1,.3.7.88.88,0,0,1-.3.68,1,1,0,0,1-.7.28.91.91,0,0,1-.68-.28A.94.94,0,0,1,288.71,505Z"/><path d="M312.77,505a1,1,0,0,1,.28-.7.92.92,0,0,1,.68-.29,1,1,0,0,1,.7.29.94.94,0,0,1,.29.7.87.87,0,0,1-.29.68,1,1,0,0,1-.7.28.91.91,0,0,1-.68-.28A.94.94,0,0,1,312.77,505Z"/><path d="M336.83,505a1,1,0,0,1,.28-.7.92.92,0,0,1,.68-.29,1,1,0,0,1,.7.29.94.94,0,0,1,.29.7.87.87,0,0,1-.29.68,1,1,0,0,1-.7.28.91.91,0,0,1-.68-.28A.94.94,0,0,1,336.83,505Z"/><path d="M360.89,505a1,1,0,0,1,.28-.7.92.92,0,0,1,.68-.29,1,1,0,0,1,.7.29.94.94,0,0,1,.29.7.87.87,0,0,1-.29.68,1,1,0,0,1-.7.28.91.91,0,0,1-.68-.28A.94.94,0,0,1,360.89,505Z"/><path d="M385,505a1,1,0,0,1,.28-.7.92.92,0,0,1,.68-.29,1,1,0,0,1,.7.29.94.94,0,0,1,.29.7.87.87,0,0,1-.29.68,1,1,0,0,1-.7.28.91.91,0,0,1-.68-.28A.94.94,0,0,1,385,505Z"/><path d="M409,505a1,1,0,0,1,.28-.7A.92.92,0,0,1,410,504a1,1,0,0,1,.7.29.94.94,0,0,1,.29.7.87.87,0,0,1-.29.68,1,1,0,0,1-.7.28.91.91,0,0,1-.68-.28A.9.9,0,0,1,409,505Z"/><path d="M433.07,505a1,1,0,0,1,.28-.7A.91.91,0,0,1,434,504a1,1,0,0,1,1,1,.91.91,0,0,1-.29.68,1,1,0,0,1-.7.28,1,1,0,0,1-1-1Z"/><path d="M457.13,505a1,1,0,0,1,.28-.7.91.91,0,0,1,.68-.29,1,1,0,0,1,1,1,.91.91,0,0,1-.29.68,1,1,0,0,1-.7.28,1,1,0,0,1-1-1Z"/><path d="M481.19,505a1,1,0,0,1,.28-.7.91.91,0,0,1,.68-.29,1,1,0,0,1,1,1,.91.91,0,0,1-.29.68,1,1,0,0,1-.7.28,1,1,0,0,1-1-1Z"/><path d="M505.25,505a1,1,0,0,1,.28-.7.91.91,0,0,1,.68-.29,1,1,0,0,1,1,1,.91.91,0,0,1-.29.68,1,1,0,0,1-.7.28,1,1,0,0,1-1-1Z"/><path d="M529.31,505a1,1,0,0,1,.28-.7.91.91,0,0,1,.68-.29,1,1,0,0,1,1,1,.91.91,0,0,1-.29.68,1,1,0,0,1-.7.28,1,1,0,0,1-1-1Z"/><path d="M553.37,505a1,1,0,0,1,.28-.7.91.91,0,0,1,.68-.29,1,1,0,0,1,1,1,.91.91,0,0,1-.29.68,1,1,0,0,1-.7.28,1,1,0,0,1-1-1Z"/><path d="M577.43,505a1,1,0,0,1,.28-.7.91.91,0,0,1,.68-.29,1,1,0,0,1,1,1,.91.91,0,0,1-.29.68,1,1,0,0,1-.7.28,1,1,0,0,1-1-1Z"/><path d="M601.49,505a1,1,0,0,1,.28-.7.91.91,0,0,1,.68-.29,1,1,0,0,1,1,1,.91.91,0,0,1-.29.68,1,1,0,0,1-.7.28,1,1,0,0,1-1-1Z"/><path d="M625.55,505a1,1,0,0,1,.28-.7.91.91,0,0,1,.68-.29,1,1,0,0,1,1,1,.91.91,0,0,1-.29.68,1,1,0,0,1-.7.28,1,1,0,0,1-1-1Z"/><path d="M649.61,505a1,1,0,0,1,.28-.7.91.91,0,0,1,.68-.29,1,1,0,0,1,1,1,.91.91,0,0,1-.29.68,1,1,0,0,1-.7.28,1,1,0,0,1-1-1Z"/><path d="M0,541a1,1,0,0,1,.28-.7A.91.91,0,0,1,1,540a1,1,0,0,1,1,1,.91.91,0,0,1-.29.68A1,1,0,0,1,1,542a.9.9,0,0,1-.68-.28A.9.9,0,0,1,0,541Z"/><path d="M24.06,541a1,1,0,0,1,.28-.7A.91.91,0,0,1,25,540a1,1,0,0,1,1,1,.91.91,0,0,1-.29.68,1,1,0,0,1-.7.28,1,1,0,0,1-1-1Z"/><path d="M48.12,541a1,1,0,0,1,.28-.7.91.91,0,0,1,.68-.29,1,1,0,0,1,1,1,.91.91,0,0,1-.29.68,1,1,0,0,1-.7.28,1,1,0,0,1-1-1Z"/><path d="M72.18,541a1,1,0,0,1,.28-.7.91.91,0,0,1,.68-.29,1,1,0,0,1,1,1,.91.91,0,0,1-.29.68,1,1,0,0,1-.7.28,1,1,0,0,1-1-1Z"/><path d="M96.24,541a1,1,0,0,1,.28-.7.91.91,0,0,1,.68-.29,1,1,0,0,1,1,1,.91.91,0,0,1-.29.68,1,1,0,0,1-.7.28,1,1,0,0,1-1-1Z"/><path d="M120.3,541a1,1,0,0,1,.28-.7.91.91,0,0,1,.68-.29,1,1,0,0,1,1,1,.91.91,0,0,1-.29.68,1,1,0,0,1-.7.28,1,1,0,0,1-1-1Z"/><path d="M144.36,541a1,1,0,0,1,.28-.7.91.91,0,0,1,.68-.29,1,1,0,0,1,1,1,.91.91,0,0,1-.29.68,1,1,0,0,1-.7.28,1,1,0,0,1-1-1Z"/><path d="M168.42,541a1,1,0,0,1,.27-.7,1,1,0,0,1,1.38,0,1,1,0,0,1,.3.7.88.88,0,0,1-.3.68,1,1,0,0,1-1.65-.68Z"/><path d="M192.48,541a1,1,0,0,1,.27-.7,1,1,0,0,1,1.38,0,1,1,0,0,1,.3.7.88.88,0,0,1-.3.68,1,1,0,0,1-1.65-.68Z"/><path d="M216.54,541a1,1,0,0,1,.27-.7,1,1,0,0,1,1.38,0,1,1,0,0,1,.3.7.88.88,0,0,1-.3.68,1,1,0,0,1-1.65-.68Z"/><path d="M240.6,541a1,1,0,0,1,.27-.7,1,1,0,0,1,1.38,0,1,1,0,0,1,.3.7.88.88,0,0,1-.3.68,1,1,0,0,1-1.65-.68Z"/><path d="M264.66,541a1,1,0,0,1,.27-.7,1,1,0,0,1,1.38,0,1,1,0,0,1,.3.7.88.88,0,0,1-.3.68,1,1,0,0,1-1.65-.68Z"/><path d="M288.71,541a1,1,0,0,1,.28-.7.92.92,0,0,1,.68-.29,1,1,0,0,1,.7.29,1,1,0,0,1,.3.7.88.88,0,0,1-.3.68,1,1,0,0,1-.7.28.91.91,0,0,1-.68-.28A.94.94,0,0,1,288.71,541Z"/><path d="M312.77,541a1,1,0,0,1,.28-.7.92.92,0,0,1,.68-.29,1,1,0,0,1,.7.29.94.94,0,0,1,.29.7.87.87,0,0,1-.29.68,1,1,0,0,1-.7.28.91.91,0,0,1-.68-.28A.94.94,0,0,1,312.77,541Z"/><path d="M336.83,541a1,1,0,0,1,.28-.7.92.92,0,0,1,.68-.29,1,1,0,0,1,.7.29.94.94,0,0,1,.29.7.87.87,0,0,1-.29.68,1,1,0,0,1-.7.28.91.91,0,0,1-.68-.28A.94.94,0,0,1,336.83,541Z"/><path d="M360.89,541a1,1,0,0,1,.28-.7.92.92,0,0,1,.68-.29,1,1,0,0,1,.7.29.94.94,0,0,1,.29.7.87.87,0,0,1-.29.68,1,1,0,0,1-.7.28.91.91,0,0,1-.68-.28A.94.94,0,0,1,360.89,541Z"/><path d="M385,541a1,1,0,0,1,.28-.7.92.92,0,0,1,.68-.29,1,1,0,0,1,.7.29.94.94,0,0,1,.29.7.87.87,0,0,1-.29.68,1,1,0,0,1-.7.28.91.91,0,0,1-.68-.28A.94.94,0,0,1,385,541Z"/><path d="M409,541a1,1,0,0,1,.28-.7A.92.92,0,0,1,410,540a1,1,0,0,1,.7.29.94.94,0,0,1,.29.7.87.87,0,0,1-.29.68,1,1,0,0,1-.7.28.91.91,0,0,1-.68-.28A.9.9,0,0,1,409,541Z"/><path d="M433.07,541a1,1,0,0,1,.28-.7A.91.91,0,0,1,434,540a1,1,0,0,1,1,1,.91.91,0,0,1-.29.68,1,1,0,0,1-.7.28,1,1,0,0,1-1-1Z"/><path d="M457.13,541a1,1,0,0,1,.28-.7.91.91,0,0,1,.68-.29,1,1,0,0,1,1,1,.91.91,0,0,1-.29.68,1,1,0,0,1-.7.28,1,1,0,0,1-1-1Z"/><path d="M481.19,541a1,1,0,0,1,.28-.7.91.91,0,0,1,.68-.29,1,1,0,0,1,1,1,.91.91,0,0,1-.29.68,1,1,0,0,1-.7.28,1,1,0,0,1-1-1Z"/><path d="M505.25,541a1,1,0,0,1,.28-.7.91.91,0,0,1,.68-.29,1,1,0,0,1,1,1,.91.91,0,0,1-.29.68,1,1,0,0,1-.7.28,1,1,0,0,1-1-1Z"/><path d="M529.31,541a1,1,0,0,1,.28-.7.91.91,0,0,1,.68-.29,1,1,0,0,1,1,1,.91.91,0,0,1-.29.68,1,1,0,0,1-.7.28,1,1,0,0,1-1-1Z"/><path d="M553.37,541a1,1,0,0,1,.28-.7.91.91,0,0,1,.68-.29,1,1,0,0,1,1,1,.91.91,0,0,1-.29.68,1,1,0,0,1-.7.28,1,1,0,0,1-1-1Z"/><path d="M577.43,541a1,1,0,0,1,.28-.7.91.91,0,0,1,.68-.29,1,1,0,0,1,1,1,.91.91,0,0,1-.29.68,1,1,0,0,1-.7.28,1,1,0,0,1-1-1Z"/><path d="M601.49,541a1,1,0,0,1,.28-.7.91.91,0,0,1,.68-.29,1,1,0,0,1,1,1,.91.91,0,0,1-.29.68,1,1,0,0,1-.7.28,1,1,0,0,1-1-1Z"/><path d="M625.55,541a1,1,0,0,1,.28-.7.91.91,0,0,1,.68-.29,1,1,0,0,1,1,1,.91.91,0,0,1-.29.68,1,1,0,0,1-.7.28,1,1,0,0,1-1-1Z"/><path d="M649.61,541a1,1,0,0,1,.28-.7.91.91,0,0,1,.68-.29,1,1,0,0,1,1,1,.91.91,0,0,1-.29.68,1,1,0,0,1-.7.28,1,1,0,0,1-1-1Z"/><path d="M0,577a1,1,0,0,1,.28-.7A.91.91,0,0,1,1,576a1,1,0,0,1,1,1,.91.91,0,0,1-.29.68A1,1,0,0,1,1,578a.9.9,0,0,1-.68-.28A.9.9,0,0,1,0,577Z"/><path d="M24.06,577a1,1,0,0,1,.28-.7A.91.91,0,0,1,25,576a1,1,0,0,1,1,1,.91.91,0,0,1-.29.68,1,1,0,0,1-.7.28,1,1,0,0,1-1-1Z"/><path d="M48.12,577a1,1,0,0,1,.28-.7.91.91,0,0,1,.68-.29,1,1,0,0,1,1,1,.91.91,0,0,1-.29.68,1,1,0,0,1-.7.28,1,1,0,0,1-1-1Z"/><path d="M72.18,577a1,1,0,0,1,.28-.7.91.91,0,0,1,.68-.29,1,1,0,0,1,1,1,.91.91,0,0,1-.29.68,1,1,0,0,1-.7.28,1,1,0,0,1-1-1Z"/><path d="M96.24,577a1,1,0,0,1,.28-.7.91.91,0,0,1,.68-.29,1,1,0,0,1,1,1,.91.91,0,0,1-.29.68,1,1,0,0,1-.7.28,1,1,0,0,1-1-1Z"/><path d="M120.3,577a1,1,0,0,1,.28-.7.91.91,0,0,1,.68-.29,1,1,0,0,1,1,1,.91.91,0,0,1-.29.68,1,1,0,0,1-.7.28,1,1,0,0,1-1-1Z"/><path d="M144.36,577a1,1,0,0,1,.28-.7.91.91,0,0,1,.68-.29,1,1,0,0,1,1,1,.91.91,0,0,1-.29.68,1,1,0,0,1-.7.28,1,1,0,0,1-1-1Z"/><path d="M168.42,577a1,1,0,0,1,.27-.7,1,1,0,0,1,1.38,0,1,1,0,0,1,.3.7.88.88,0,0,1-.3.68,1,1,0,0,1-1.65-.68Z"/><path d="M192.48,577a1,1,0,0,1,.27-.7,1,1,0,0,1,1.38,0,1,1,0,0,1,.3.7.88.88,0,0,1-.3.68,1,1,0,0,1-1.65-.68Z"/><path d="M216.54,577a1,1,0,0,1,.27-.7,1,1,0,0,1,1.38,0,1,1,0,0,1,.3.7.88.88,0,0,1-.3.68,1,1,0,0,1-1.65-.68Z"/><path d="M240.6,577a1,1,0,0,1,.27-.7,1,1,0,0,1,1.38,0,1,1,0,0,1,.3.7.88.88,0,0,1-.3.68,1,1,0,0,1-1.65-.68Z"/><path d="M264.66,577a1,1,0,0,1,.27-.7,1,1,0,0,1,1.38,0,1,1,0,0,1,.3.7.88.88,0,0,1-.3.68,1,1,0,0,1-1.65-.68Z"/><path d="M288.71,577a1,1,0,0,1,.28-.7.92.92,0,0,1,.68-.29,1,1,0,0,1,.7.29,1,1,0,0,1,.3.7.88.88,0,0,1-.3.68,1,1,0,0,1-.7.28.91.91,0,0,1-.68-.28A.94.94,0,0,1,288.71,577Z"/><path d="M312.77,577a1,1,0,0,1,.28-.7.92.92,0,0,1,.68-.29,1,1,0,0,1,.7.29.94.94,0,0,1,.29.7.87.87,0,0,1-.29.68,1,1,0,0,1-.7.28.91.91,0,0,1-.68-.28A.94.94,0,0,1,312.77,577Z"/><path d="M336.83,577a1,1,0,0,1,.28-.7.92.92,0,0,1,.68-.29,1,1,0,0,1,.7.29.94.94,0,0,1,.29.7.87.87,0,0,1-.29.68,1,1,0,0,1-.7.28.91.91,0,0,1-.68-.28A.94.94,0,0,1,336.83,577Z"/><path d="M360.89,577a1,1,0,0,1,.28-.7.92.92,0,0,1,.68-.29,1,1,0,0,1,.7.29.94.94,0,0,1,.29.7.87.87,0,0,1-.29.68,1,1,0,0,1-.7.28.91.91,0,0,1-.68-.28A.94.94,0,0,1,360.89,577Z"/><path d="M385,577a1,1,0,0,1,.28-.7.92.92,0,0,1,.68-.29,1,1,0,0,1,.7.29.94.94,0,0,1,.29.7.87.87,0,0,1-.29.68,1,1,0,0,1-.7.28.91.91,0,0,1-.68-.28A.94.94,0,0,1,385,577Z"/><path d="M409,577a1,1,0,0,1,.28-.7A.92.92,0,0,1,410,576a1,1,0,0,1,.7.29.94.94,0,0,1,.29.7.87.87,0,0,1-.29.68,1,1,0,0,1-.7.28.91.91,0,0,1-.68-.28A.9.9,0,0,1,409,577Z"/><path d="M433.07,577a1,1,0,0,1,.28-.7A.91.91,0,0,1,434,576a1,1,0,0,1,1,1,.91.91,0,0,1-.29.68,1,1,0,0,1-.7.28,1,1,0,0,1-1-1Z"/><path d="M457.13,577a1,1,0,0,1,.28-.7.91.91,0,0,1,.68-.29,1,1,0,0,1,1,1,.91.91,0,0,1-.29.68,1,1,0,0,1-.7.28,1,1,0,0,1-1-1Z"/><path d="M481.19,577a1,1,0,0,1,.28-.7.91.91,0,0,1,.68-.29,1,1,0,0,1,1,1,.91.91,0,0,1-.29.68,1,1,0,0,1-.7.28,1,1,0,0,1-1-1Z"/><path d="M505.25,577a1,1,0,0,1,.28-.7.91.91,0,0,1,.68-.29,1,1,0,0,1,1,1,.91.91,0,0,1-.29.68,1,1,0,0,1-.7.28,1,1,0,0,1-1-1Z"/><path d="M529.31,577a1,1,0,0,1,.28-.7.91.91,0,0,1,.68-.29,1,1,0,0,1,1,1,.91.91,0,0,1-.29.68,1,1,0,0,1-.7.28,1,1,0,0,1-1-1Z"/><path d="M553.37,577a1,1,0,0,1,.28-.7.91.91,0,0,1,.68-.29,1,1,0,0,1,1,1,.91.91,0,0,1-.29.68,1,1,0,0,1-.7.28,1,1,0,0,1-1-1Z"/><path d="M577.43,577a1,1,0,0,1,.28-.7.91.91,0,0,1,.68-.29,1,1,0,0,1,1,1,.91.91,0,0,1-.29.68,1,1,0,0,1-.7.28,1,1,0,0,1-1-1Z"/><path d="M601.49,577a1,1,0,0,1,.28-.7.91.91,0,0,1,.68-.29,1,1,0,0,1,1,1,.91.91,0,0,1-.29.68,1,1,0,0,1-.7.28,1,1,0,0,1-1-1Z"/><path d="M625.55,577a1,1,0,0,1,.28-.7.91.91,0,0,1,.68-.29,1,1,0,0,1,1,1,.91.91,0,0,1-.29.68,1,1,0,0,1-.7.28,1,1,0,0,1-1-1Z"/><path d="M649.61,577a1,1,0,0,1,.28-.7.91.91,0,0,1,.68-.29,1,1,0,0,1,1,1,.91.91,0,0,1-.29.68,1,1,0,0,1-.7.28,1,1,0,0,1-1-1Z"/><path d="M0,613a1,1,0,0,1,.28-.7A.91.91,0,0,1,1,612a1,1,0,0,1,1,1,.91.91,0,0,1-.29.68A1,1,0,0,1,1,614a.9.9,0,0,1-.68-.28A.9.9,0,0,1,0,613Z"/><path d="M24.06,613a1,1,0,0,1,.28-.7A.91.91,0,0,1,25,612a1,1,0,0,1,1,1,.91.91,0,0,1-.29.68,1,1,0,0,1-.7.28,1,1,0,0,1-1-1Z"/><path d="M48.12,613a1,1,0,0,1,.28-.7.91.91,0,0,1,.68-.29,1,1,0,0,1,1,1,.91.91,0,0,1-.29.68,1,1,0,0,1-.7.28,1,1,0,0,1-1-1Z"/><path d="M72.18,613a1,1,0,0,1,.28-.7.91.91,0,0,1,.68-.29,1,1,0,0,1,1,1,.91.91,0,0,1-.29.68,1,1,0,0,1-.7.28,1,1,0,0,1-1-1Z"/><path d="M96.24,613a1,1,0,0,1,.28-.7.91.91,0,0,1,.68-.29,1,1,0,0,1,1,1,.91.91,0,0,1-.29.68,1,1,0,0,1-.7.28,1,1,0,0,1-1-1Z"/><path d="M120.3,613a1,1,0,0,1,.28-.7.91.91,0,0,1,.68-.29,1,1,0,0,1,1,1,.91.91,0,0,1-.29.68,1,1,0,0,1-.7.28,1,1,0,0,1-1-1Z"/><path d="M144.36,613a1,1,0,0,1,.28-.7.91.91,0,0,1,.68-.29,1,1,0,0,1,1,1,.91.91,0,0,1-.29.68,1,1,0,0,1-.7.28,1,1,0,0,1-1-1Z"/><path d="M168.42,613a1,1,0,0,1,.27-.7,1,1,0,0,1,1.38,0,1,1,0,0,1,.3.7.88.88,0,0,1-.3.68,1,1,0,0,1-1.65-.68Z"/><path d="M192.48,613a1,1,0,0,1,.27-.7,1,1,0,0,1,1.38,0,1,1,0,0,1,.3.7.88.88,0,0,1-.3.68,1,1,0,0,1-1.65-.68Z"/><path d="M216.54,613a1,1,0,0,1,.27-.7,1,1,0,0,1,1.38,0,1,1,0,0,1,.3.7.88.88,0,0,1-.3.68,1,1,0,0,1-1.65-.68Z"/><path d="M240.6,613a1,1,0,0,1,.27-.7,1,1,0,0,1,1.38,0,1,1,0,0,1,.3.7.88.88,0,0,1-.3.68,1,1,0,0,1-1.65-.68Z"/><path d="M264.66,613a1,1,0,0,1,.27-.7,1,1,0,0,1,1.38,0,1,1,0,0,1,.3.7.88.88,0,0,1-.3.68,1,1,0,0,1-1.65-.68Z"/><path d="M288.71,613a1,1,0,0,1,.28-.7.92.92,0,0,1,.68-.29,1,1,0,0,1,.7.29,1,1,0,0,1,.3.7.88.88,0,0,1-.3.68,1,1,0,0,1-.7.28.91.91,0,0,1-.68-.28A.94.94,0,0,1,288.71,613Z"/><path d="M312.77,613a1,1,0,0,1,.28-.7.92.92,0,0,1,.68-.29,1,1,0,0,1,.7.29.94.94,0,0,1,.29.7.87.87,0,0,1-.29.68,1,1,0,0,1-.7.28.91.91,0,0,1-.68-.28A.94.94,0,0,1,312.77,613Z"/><path d="M336.83,613a1,1,0,0,1,.28-.7.92.92,0,0,1,.68-.29,1,1,0,0,1,.7.29.94.94,0,0,1,.29.7.87.87,0,0,1-.29.68,1,1,0,0,1-.7.28.91.91,0,0,1-.68-.28A.94.94,0,0,1,336.83,613Z"/><path d="M360.89,613a1,1,0,0,1,.28-.7.92.92,0,0,1,.68-.29,1,1,0,0,1,.7.29.94.94,0,0,1,.29.7.87.87,0,0,1-.29.68,1,1,0,0,1-.7.28.91.91,0,0,1-.68-.28A.94.94,0,0,1,360.89,613Z"/><path d="M385,613a1,1,0,0,1,.28-.7.92.92,0,0,1,.68-.29,1,1,0,0,1,.7.29.94.94,0,0,1,.29.7.87.87,0,0,1-.29.68,1,1,0,0,1-.7.28.91.91,0,0,1-.68-.28A.94.94,0,0,1,385,613Z"/><path d="M409,613a1,1,0,0,1,.28-.7A.92.92,0,0,1,410,612a1,1,0,0,1,.7.29.94.94,0,0,1,.29.7.87.87,0,0,1-.29.68,1,1,0,0,1-.7.28.91.91,0,0,1-.68-.28A.9.9,0,0,1,409,613Z"/><path d="M433.07,613a1,1,0,0,1,.28-.7A.91.91,0,0,1,434,612a1,1,0,0,1,1,1,.91.91,0,0,1-.29.68,1,1,0,0,1-.7.28,1,1,0,0,1-1-1Z"/><path d="M457.13,613a1,1,0,0,1,.28-.7.91.91,0,0,1,.68-.29,1,1,0,0,1,1,1,.91.91,0,0,1-.29.68,1,1,0,0,1-.7.28,1,1,0,0,1-1-1Z"/><path d="M481.19,613a1,1,0,0,1,.28-.7.91.91,0,0,1,.68-.29,1,1,0,0,1,1,1,.91.91,0,0,1-.29.68,1,1,0,0,1-.7.28,1,1,0,0,1-1-1Z"/><path d="M505.25,613a1,1,0,0,1,.28-.7.91.91,0,0,1,.68-.29,1,1,0,0,1,1,1,.91.91,0,0,1-.29.68,1,1,0,0,1-.7.28,1,1,0,0,1-1-1Z"/><path d="M529.31,613a1,1,0,0,1,.28-.7.91.91,0,0,1,.68-.29,1,1,0,0,1,1,1,.91.91,0,0,1-.29.68,1,1,0,0,1-.7.28,1,1,0,0,1-1-1Z"/><path d="M553.37,613a1,1,0,0,1,.28-.7.91.91,0,0,1,.68-.29,1,1,0,0,1,1,1,.91.91,0,0,1-.29.68,1,1,0,0,1-.7.28,1,1,0,0,1-1-1Z"/><path d="M577.43,613a1,1,0,0,1,.28-.7.91.91,0,0,1,.68-.29,1,1,0,0,1,1,1,.91.91,0,0,1-.29.68,1,1,0,0,1-.7.28,1,1,0,0,1-1-1Z"/><path d="M601.49,613a1,1,0,0,1,.28-.7.91.91,0,0,1,.68-.29,1,1,0,0,1,1,1,.91.91,0,0,1-.29.68,1,1,0,0,1-.7.28,1,1,0,0,1-1-1Z"/><path d="M625.55,613a1,1,0,0,1,.28-.7.91.91,0,0,1,.68-.29,1,1,0,0,1,1,1,.91.91,0,0,1-.29.68,1,1,0,0,1-.7.28,1,1,0,0,1-1-1Z"/><path d="M649.61,613a1,1,0,0,1,.28-.7.91.91,0,0,1,.68-.29,1,1,0,0,1,1,1,.91.91,0,0,1-.29.68,1,1,0,0,1-.7.28,1,1,0,0,1-1-1Z"/><path d="M0,649a1,1,0,0,1,.28-.7A.91.91,0,0,1,1,648a1,1,0,0,1,1,1,.91.91,0,0,1-.29.68A1,1,0,0,1,1,650a.9.9,0,0,1-.68-.28A.9.9,0,0,1,0,649Z"/><path d="M24.06,649a1,1,0,0,1,.28-.7A.91.91,0,0,1,25,648a1,1,0,0,1,1,1,.91.91,0,0,1-.29.68,1,1,0,0,1-.7.28,1,1,0,0,1-1-1Z"/><path d="M48.12,649a1,1,0,0,1,.28-.7.91.91,0,0,1,.68-.29,1,1,0,0,1,1,1,.91.91,0,0,1-.29.68,1,1,0,0,1-.7.28,1,1,0,0,1-1-1Z"/><path d="M72.18,649a1,1,0,0,1,.28-.7.91.91,0,0,1,.68-.29,1,1,0,0,1,1,1,.91.91,0,0,1-.29.68,1,1,0,0,1-.7.28,1,1,0,0,1-1-1Z"/><path d="M96.24,649a1,1,0,0,1,.28-.7.91.91,0,0,1,.68-.29,1,1,0,0,1,1,1,.91.91,0,0,1-.29.68,1,1,0,0,1-.7.28,1,1,0,0,1-1-1Z"/><path d="M120.3,649a1,1,0,0,1,.28-.7.91.91,0,0,1,.68-.29,1,1,0,0,1,1,1,.91.91,0,0,1-.29.68,1,1,0,0,1-.7.28,1,1,0,0,1-1-1Z"/><path d="M144.36,649a1,1,0,0,1,.28-.7.91.91,0,0,1,.68-.29,1,1,0,0,1,1,1,.91.91,0,0,1-.29.68,1,1,0,0,1-.7.28,1,1,0,0,1-1-1Z"/><path d="M168.42,649a1,1,0,0,1,.27-.7,1,1,0,0,1,1.38,0,1,1,0,0,1,.3.7.88.88,0,0,1-.3.68,1,1,0,0,1-1.65-.68Z"/><path d="M192.48,649a1,1,0,0,1,.27-.7,1,1,0,0,1,1.38,0,1,1,0,0,1,.3.7.88.88,0,0,1-.3.68,1,1,0,0,1-1.65-.68Z"/><path d="M216.54,649a1,1,0,0,1,.27-.7,1,1,0,0,1,1.38,0,1,1,0,0,1,.3.7.88.88,0,0,1-.3.68,1,1,0,0,1-1.65-.68Z"/><path d="M240.6,649a1,1,0,0,1,.27-.7,1,1,0,0,1,1.38,0,1,1,0,0,1,.3.7.88.88,0,0,1-.3.68,1,1,0,0,1-1.65-.68Z"/><path d="M264.66,649a1,1,0,0,1,.27-.7,1,1,0,0,1,1.38,0,1,1,0,0,1,.3.7.88.88,0,0,1-.3.68,1,1,0,0,1-1.65-.68Z"/><path d="M288.71,649a1,1,0,0,1,.28-.7.92.92,0,0,1,.68-.29,1,1,0,0,1,.7.29,1,1,0,0,1,.3.7.88.88,0,0,1-.3.68,1,1,0,0,1-.7.28.91.91,0,0,1-.68-.28A.94.94,0,0,1,288.71,649Z"/><path d="M312.77,649a1,1,0,0,1,.28-.7.92.92,0,0,1,.68-.29,1,1,0,0,1,.7.29.94.94,0,0,1,.29.7.87.87,0,0,1-.29.68,1,1,0,0,1-.7.28.91.91,0,0,1-.68-.28A.94.94,0,0,1,312.77,649Z"/><path d="M336.83,649a1,1,0,0,1,.28-.7.92.92,0,0,1,.68-.29,1,1,0,0,1,.7.29.94.94,0,0,1,.29.7.87.87,0,0,1-.29.68,1,1,0,0,1-.7.28.91.91,0,0,1-.68-.28A.94.94,0,0,1,336.83,649Z"/><path d="M360.89,649a1,1,0,0,1,.28-.7.92.92,0,0,1,.68-.29,1,1,0,0,1,.7.29.94.94,0,0,1,.29.7.87.87,0,0,1-.29.68,1,1,0,0,1-.7.28.91.91,0,0,1-.68-.28A.94.94,0,0,1,360.89,649Z"/><path d="M385,649a1,1,0,0,1,.28-.7.92.92,0,0,1,.68-.29,1,1,0,0,1,.7.29.94.94,0,0,1,.29.7.87.87,0,0,1-.29.68,1,1,0,0,1-.7.28.91.91,0,0,1-.68-.28A.94.94,0,0,1,385,649Z"/><path d="M409,649a1,1,0,0,1,.28-.7A.92.92,0,0,1,410,648a1,1,0,0,1,.7.29.94.94,0,0,1,.29.7.87.87,0,0,1-.29.68,1,1,0,0,1-.7.28.91.91,0,0,1-.68-.28A.9.9,0,0,1,409,649Z"/><path d="M433.07,649a1,1,0,0,1,.28-.7A.91.91,0,0,1,434,648a1,1,0,0,1,1,1,.91.91,0,0,1-.29.68,1,1,0,0,1-.7.28,1,1,0,0,1-1-1Z"/><path d="M457.13,649a1,1,0,0,1,.28-.7.91.91,0,0,1,.68-.29,1,1,0,0,1,1,1,.91.91,0,0,1-.29.68,1,1,0,0,1-.7.28,1,1,0,0,1-1-1Z"/><path d="M481.19,649a1,1,0,0,1,.28-.7.91.91,0,0,1,.68-.29,1,1,0,0,1,1,1,.91.91,0,0,1-.29.68,1,1,0,0,1-.7.28,1,1,0,0,1-1-1Z"/><path d="M505.25,649a1,1,0,0,1,.28-.7.91.91,0,0,1,.68-.29,1,1,0,0,1,1,1,.91.91,0,0,1-.29.68,1,1,0,0,1-.7.28,1,1,0,0,1-1-1Z"/><path d="M529.31,649a1,1,0,0,1,.28-.7.91.91,0,0,1,.68-.29,1,1,0,0,1,1,1,.91.91,0,0,1-.29.68,1,1,0,0,1-.7.28,1,1,0,0,1-1-1Z"/><path d="M553.37,649a1,1,0,0,1,.28-.7.91.91,0,0,1,.68-.29,1,1,0,0,1,1,1,.91.91,0,0,1-.29.68,1,1,0,0,1-.7.28,1,1,0,0,1-1-1Z"/><path d="M577.43,649a1,1,0,0,1,.28-.7.91.91,0,0,1,.68-.29,1,1,0,0,1,1,1,.91.91,0,0,1-.29.68,1,1,0,0,1-.7.28,1,1,0,0,1-1-1Z"/><path d="M601.49,649a1,1,0,0,1,.28-.7.91.91,0,0,1,.68-.29,1,1,0,0,1,1,1,.91.91,0,0,1-.29.68,1,1,0,0,1-.7.28,1,1,0,0,1-1-1Z"/><path d="M625.55,649a1,1,0,0,1,.28-.7.91.91,0,0,1,.68-.29,1,1,0,0,1,1,1,.91.91,0,0,1-.29.68,1,1,0,0,1-.7.28,1,1,0,0,1-1-1Z"/><path d="M649.61,649a1,1,0,0,1,.28-.7.91.91,0,0,1,.68-.29,1,1,0,0,1,1,1,.91.91,0,0,1-.29.68,1,1,0,0,1-.7.28,1,1,0,0,1-1-1Z"/></g></g></svg>