<?xml version="1.0" encoding="utf-8"?>
<!-- Generator: Adobe Illustrator 16.0.2, SVG Export Plug-In . SVG Version: 6.00 Build 0)  -->
<!DOCTYPE svg PUBLIC "-//W3C//DTD SVG 1.1//EN" "http://www.w3.org/Graphics/SVG/1.1/DTD/svg11.dtd">
<svg version="1.1" id="Camada_1" xmlns="http://www.w3.org/2000/svg" xmlns:xlink="http://www.w3.org/1999/xlink" x="0px" y="0px"
	 width="512px" height="512px" viewBox="0 0 512 512" enable-background="new 0 0 512 512" xml:space="preserve">
<g id="Layer_92">
	<path fill="#FFFFFF" d="M450.134,61.867c-24.832-25.155-65.354-25.417-90.508-0.585c-0.197,0.194-0.392,0.389-0.586,0.585
		l-40.96,41.6l90.453,90.453l40.96-40.96c25.329-24.653,25.877-65.172,1.224-90.501C450.523,62.26,450.329,62.063,450.134,61.867z"
		/>
	<path fill="#FFFFFF" d="M287.787,133.76L108.8,312.746c-1.604,1.65-2.969,3.518-4.053,5.547L45.44,437.974
		c-5.539,10.398-1.598,23.319,8.801,28.857c3.007,1.602,6.353,2.459,9.759,2.502c3.25,0.014,6.461-0.716,9.387-2.133l119.68-59.307
		c2.03-1.085,3.897-2.449,5.547-4.054L377.6,224.854L287.787,133.76z"/>
	<path fill="#FFFFFF" d="M448,469.333H256c-11.782,0-21.333-9.551-21.333-21.333s9.551-21.333,21.333-21.333h192
		c11.782,0,21.333,9.551,21.333,21.333S459.782,469.333,448,469.333z"/>
</g>
</svg>
