<?xml version="1.0" encoding="utf-8"?>
<!-- Generator: Adobe Illustrator 16.0.2, SVG Export Plug-In . SVG Version: 6.00 Build 0)  -->
<!DOCTYPE svg PUBLIC "-//W3C//DTD SVG 1.1//EN" "http://www.w3.org/Graphics/SVG/1.1/DTD/svg11.dtd">
<svg version="1.1" id="Camada_1" xmlns="http://www.w3.org/2000/svg" xmlns:xlink="http://www.w3.org/1999/xlink" x="0px" y="0px"
	 width="512px" height="512px" viewBox="0 0 512 512" enable-background="new 0 0 512 512" xml:space="preserve">
<g id="Page-1">
	<g id="_x30_02---Test-Result">
		<path id="Shape" fill="#FFFFFF" d="M281.6,59.733h34.134V128c0,14.139,11.462,25.6,25.6,25.6H409.6v281.6
			c0,4.713-3.82,8.533-8.533,8.533h-281.6c-4.713,0-8.534-3.82-8.534-8.533V247.467c0-4.713-3.82-8.533-8.533-8.533
			s-8.533,3.82-8.533,8.533V435.2c0,14.139,11.461,25.6,25.6,25.6h17.066V486.4c0,6.789,2.697,13.301,7.498,18.102
			c4.801,4.801,11.313,7.498,18.102,7.498h281.6c14.139,0,25.6-11.462,25.6-25.6V119.467c0-14.139-11.461-25.6-25.6-25.6h-64.734
			l-48.699-48.7c-1.6-1.601-3.771-2.5-6.033-2.5H281.6c-4.713,0-8.533,3.821-8.533,8.534S276.887,59.733,281.6,59.733z M332.8,128
			V71.799l64.734,64.734h-56.201C336.62,136.533,332.8,132.713,332.8,128z M443.733,110.934c4.713,0,8.533,3.82,8.533,8.533V486.4
			c0,4.713-3.82,8.533-8.533,8.533h-281.6c-4.713,0-8.533-3.82-8.533-8.533V460.8h247.466c14.139,0,25.601-11.461,25.601-25.6
			V145.066c-0.001-2.263-0.9-4.433-2.501-6.033l-28.1-28.1H443.733z"/>
		<path id="Shape_1_" fill="#FFFFFF" d="M145.067,341.334H281.6c4.713,0,8.533-3.821,8.533-8.534c0-4.712-3.82-8.533-8.533-8.533
			H145.067c-4.713,0-8.534,3.821-8.534,8.533C136.533,337.513,140.354,341.334,145.067,341.334z"/>
		<path id="Shape_2_" fill="#FFFFFF" d="M145.067,409.6h76.8c4.713,0,8.533-3.82,8.533-8.533s-3.82-8.533-8.533-8.533h-76.8
			c-4.713,0-8.534,3.82-8.534,8.533S140.354,409.6,145.067,409.6z"/>
		<path id="Shape_3_" fill="#FFFFFF" d="M336.598,280.166c3.385,2.258,7.893,1.811,10.769-1.066l42.667-42.667
			c3.233-3.348,3.188-8.67-0.104-11.962c-3.291-3.292-8.613-3.338-11.962-0.104l-37.717,37.717L320.47,248.9
			c-2.537-1.692-5.783-1.902-8.517-0.552c-2.734,1.351-4.539,4.057-4.736,7.1c-0.197,3.043,1.244,5.96,3.78,7.651L336.598,280.166z"
			/>
		<path id="Shape_4_" fill="#FFFFFF" d="M310.997,331.366l25.601,17.067c3.385,2.257,7.893,1.811,10.769-1.067l42.667-42.667
			c3.233-3.348,3.188-8.67-0.104-11.962c-3.291-3.291-8.613-3.337-11.962-0.104l-37.717,37.718l-19.78-13.185
			c-3.922-2.616-9.221-1.558-11.836,2.364C306.018,323.451,307.076,328.751,310.997,331.366L310.997,331.366z"/>
		<path id="Shape_5_" fill="#FFFFFF" d="M310.997,399.633l25.601,17.066c3.385,2.258,7.893,1.811,10.769-1.066l42.667-42.666
			c3.233-3.349,3.188-8.671-0.104-11.963c-3.291-3.291-8.613-3.338-11.962-0.104l-37.717,37.717l-19.78-13.184
			c-3.922-2.615-9.221-1.557-11.836,2.363C306.018,391.719,307.076,397.018,310.997,399.633L310.997,399.633z"/>
		<path id="Shape_6_" fill="#FFFFFF" d="M93.354,156.519l13.474-37.052h42.343l13.474,37.052c1.612,4.43,6.509,6.714,10.939,5.103
			c4.43-1.611,6.715-6.509,5.103-10.939l-31.215-85.828c-2.976-8.19-10.759-13.643-19.473-13.643
			c-8.714,0-16.497,5.452-19.473,13.643l-31.215,85.828c-1.612,4.43,0.673,9.328,5.103,10.939
			C86.845,163.233,91.743,160.948,93.354,156.519L93.354,156.519z M124.587,70.665c0.641-1.3,1.964-2.123,3.413-2.123
			s2.772,0.823,3.413,2.123l11.554,31.735h-29.935L124.587,70.665z"/>
		<path id="Shape_7_" fill="#FFFFFF" d="M157.867,230.4c63.623,0,115.2-51.577,115.2-115.2c0-63.624-51.577-115.2-115.2-115.2
			s-115.2,51.577-115.2,115.2C42.737,178.794,94.272,230.33,157.867,230.4z M157.867,17.066C212.064,17.066,256,61.002,256,115.2
			c0,54.197-43.936,98.133-98.133,98.133S59.733,169.397,59.733,115.2C59.794,61.028,103.694,17.128,157.867,17.066z"/>
		<path id="Shape_8_" fill="#FFFFFF" d="M187.733,110.934H204.8V128c0,4.713,3.821,8.533,8.534,8.533s8.533-3.82,8.533-8.533
			v-17.066h17.066c4.713,0,8.534-3.821,8.534-8.534s-3.821-8.533-8.534-8.533h-17.066V76.8c0-4.713-3.82-8.533-8.533-8.533
			s-8.534,3.82-8.534,8.533v17.067h-17.066c-4.713,0-8.533,3.82-8.533,8.533S183.021,110.934,187.733,110.934z"/>
		<path id="Shape_9_" fill="#FFFFFF" d="M281.6,392.533H256c-4.713,0-8.533,3.82-8.533,8.533s3.82,8.533,8.533,8.533h25.6
			c4.713,0,8.533-3.82,8.533-8.533S286.313,392.533,281.6,392.533z"/>
		<path id="Shape_10_" fill="#FFFFFF" d="M281.6,273.066c4.713,0,8.533-3.82,8.533-8.533S286.313,256,281.6,256h-76.8
			c-4.712,0-8.533,3.82-8.533,8.533s3.821,8.533,8.533,8.533H281.6z"/>
		<path id="Shape_11_" fill="#FFFFFF" d="M145.067,273.066h25.6c4.713,0,8.534-3.82,8.534-8.533S175.379,256,170.667,256h-25.6
			c-4.713,0-8.534,3.82-8.534,8.533S140.354,273.066,145.067,273.066z"/>
	</g>
</g>
</svg>
