<?xml version="1.0" encoding="utf-8"?>
<!-- Generator: Adobe Illustrator 16.0.2, SVG Export Plug-In . SVG Version: 6.00 Build 0)  -->
<!DOCTYPE svg PUBLIC "-//W3C//DTD SVG 1.1//EN" "http://www.w3.org/Graphics/SVG/1.1/DTD/svg11.dtd">
<svg version="1.1" id="Camada_1" xmlns="http://www.w3.org/2000/svg" xmlns:xlink="http://www.w3.org/1999/xlink" x="0px" y="0px"
	 width="612px" height="792px" viewBox="0 0 612 792" enable-background="new 0 0 612 792" xml:space="preserve">
<g id="Layer_2">
	<g id="Layer_1-2">
		<path fill="#FFFFFF" d="M17.662,701.971c-9.618,0.002-17.47-7.692-17.662-17.31V107.692c0-9.755,7.908-17.663,17.662-17.663
			h288.485c9.592,0.001,17.367,7.777,17.366,17.37c-0.001,9.591-7.775,17.366-17.366,17.367H34.677v542.528H576.97V396.177
			c1.773-9.592,10.987-15.931,20.579-14.157c7.196,1.331,12.826,6.96,14.157,14.157v288.484c-0.192,9.617-8.044,17.312-17.663,17.31
			H17.662z"/>
		<path fill="#FFFFFF" d="M305.617,413.839c-4.711,0.019-9.223-1.897-12.481-5.299c-6.503-6.956-6.321-17.816,0.412-24.55
			l259.048-259.048H434.199c-9.576-0.558-16.886-8.773-16.328-18.349c0.513-8.796,7.531-15.815,16.328-16.328l67.941-0.235
			c26.199,0,45.392,0,59.286,0h20.194c15.955,0,16.543,0,19.546,1.472c4.264,1.738,7.655,5.108,9.42,9.361
			c1.472,3.65,1.531,3.768,1.354,38.563c0,23.549-0.354,62.996,0,128.405c-1.773,9.592-10.987,15.931-20.579,14.157
			c-7.196-1.331-12.826-6.961-14.157-14.157V149.375L317.922,408.952C314.609,412.115,310.197,413.867,305.617,413.839z"/>
	</g>
</g>
</svg>
