<svg width="47" height="55" viewBox="0 0 47 55" fill="none" xmlns="http://www.w3.org/2000/svg">
<path d="M3.9049 53.7693C2.86359 53.7693 1.95245 53.366 1.17147 52.5595C0.39049 51.7529 0 50.812 0 49.7366V4.0327C0 2.95731 0.39049 2.01635 1.17147 1.20981C1.95245 0.40327 2.86359 0 3.9049 0H25.7723C26.293 0 26.792 0.100817 27.2692 0.302452C27.7465 0.504087 28.1804 0.80654 28.5709 1.20981L40.4808 13.5095C40.8713 13.9128 41.1642 14.3609 41.3594 14.8538C41.5547 15.3467 41.6523 15.8619 41.6523 16.3996V49.7366C41.6523 50.812 41.2618 51.7529 40.4808 52.5595C39.6998 53.366 38.7887 53.7693 37.7474 53.7693H3.9049ZM3.9049 49.7366H37.7474V16.5341H27.3994C26.8353 16.5341 26.3689 16.3436 26.0001 15.9628C25.6313 15.5819 25.4469 15.1002 25.4469 14.5177V4.0327H3.9049V49.7366ZM3.9049 49.7366V16.5341V4.0327V49.7366Z" fill="white"/>
<path d="M27.0432 49.1543C29.1716 49.1543 30.9777 48.4124 32.4615 46.9285C33.9454 45.4446 34.6873 43.6385 34.6873 41.5102C34.6873 39.3818 33.9454 37.5757 32.4615 36.0918C30.9777 34.608 29.1716 33.866 27.0432 33.866C24.9148 33.866 23.1087 34.608 21.6248 36.0918C20.141 37.5757 19.3991 39.3818 19.3991 41.5102C19.3991 43.6385 20.141 45.4446 21.6248 46.9285C23.1087 48.4124 24.9148 49.1543 27.0432 49.1543ZM27.0432 46.5463C25.6343 46.5463 24.4427 46.0592 23.4684 45.0849C22.4942 44.1107 22.0071 42.9191 22.0071 41.5102C22.0071 40.1012 22.4942 38.9097 23.4684 37.9354C24.4427 36.9612 25.6343 36.474 27.0432 36.474C28.4521 36.474 29.6437 36.9612 30.618 37.9354C31.5922 38.9097 32.0793 40.1012 32.0793 41.5102C32.0793 42.9191 31.5922 44.1107 30.618 45.0849C29.6437 46.0592 28.4521 46.5463 27.0432 46.5463ZM27.0432 54.9998C22.9064 54.9998 19.1368 53.8757 15.7344 51.6274C12.332 49.3791 9.70149 46.4114 7.84291 42.7242C7.75298 42.5744 7.68553 42.3945 7.64057 42.1846C7.5956 41.9748 7.57312 41.75 7.57312 41.5102C7.57312 41.2703 7.5956 41.0455 7.64057 40.8357C7.68553 40.6258 7.75298 40.446 7.84291 40.2961C9.70149 36.6089 12.332 33.6412 15.7344 31.3929C19.1368 29.1446 22.9064 28.0205 27.0432 28.0205C31.18 28.0205 34.9496 29.1446 38.352 31.3929C41.7544 33.6412 44.3849 36.6089 46.2435 40.2961C46.3334 40.446 46.4009 40.6258 46.4458 40.8357C46.4908 41.0455 46.5133 41.2703 46.5133 41.5102C46.5133 41.75 46.4908 41.9748 46.4458 42.1846C46.4009 42.3945 46.3334 42.5744 46.2435 42.7242C44.3849 46.4114 41.7544 49.3791 38.352 51.6274C34.9496 53.8757 31.18 54.9998 27.0432 54.9998Z" fill="white"/>
</svg>
