<svg width="44" height="55" viewBox="0 0 44 55" fill="none" xmlns="http://www.w3.org/2000/svg">
<path d="M12.9938 43.3125H31.0062C31.6021 43.3125 32.0948 43.1177 32.4844 42.7281C32.874 42.3385 33.0687 41.8458 33.0687 41.25C33.0687 40.6542 32.874 40.1615 32.4844 39.7719C32.0948 39.3823 31.6021 39.1875 31.0062 39.1875H12.9938C12.3979 39.1875 11.9052 39.3823 11.5156 39.7719C11.126 40.1615 10.9312 40.6542 10.9312 41.25C10.9312 41.8458 11.126 42.3385 11.5156 42.7281C11.9052 43.1177 12.3979 43.3125 12.9938 43.3125ZM12.9938 31.625H31.0062C31.6021 31.625 32.0948 31.4302 32.4844 31.0406C32.874 30.651 33.0687 30.1583 33.0687 29.5625C33.0687 28.9667 32.874 28.474 32.4844 28.0844C32.0948 27.6948 31.6021 27.5 31.0062 27.5H12.9938C12.3979 27.5 11.9052 27.6948 11.5156 28.0844C11.126 28.474 10.9312 28.9667 10.9312 29.5625C10.9312 30.1583 11.126 30.651 11.5156 31.0406C11.9052 31.4302 12.3979 31.625 12.9938 31.625ZM4.125 55C3.025 55 2.0625 54.5875 1.2375 53.7625C0.412499 52.9375 0 51.975 0 50.875V4.125C0 3.025 0.412499 2.0625 1.2375 1.2375C2.0625 0.4125 3.025 0 4.125 0H27.225C27.775 0 28.3135 0.114583 28.8406 0.34375C29.3677 0.572917 29.8146 0.870834 30.1813 1.2375L42.7625 13.8188C43.1292 14.1854 43.4271 14.6323 43.6562 15.1594C43.8854 15.6865 44 16.225 44 16.775V50.875C44 51.975 43.5875 52.9375 42.7625 53.7625C41.9375 54.5875 40.975 55 39.875 55H4.125ZM26.8812 14.85C26.8812 15.4458 27.076 15.9385 27.4656 16.3281C27.8552 16.7177 28.3479 16.9125 28.9437 16.9125H39.875L26.8812 4.125V14.85Z" fill="white"/>
</svg>
