<?xml version="1.0" encoding="utf-8"?>
<!-- Generator: Adobe Illustrator 16.0.2, SVG Export Plug-In . SVG Version: 6.00 Build 0)  -->
<!DOCTYPE svg PUBLIC "-//W3C//DTD SVG 1.1//EN" "http://www.w3.org/Graphics/SVG/1.1/DTD/svg11.dtd">
<svg version="1.1" id="Camada_1" xmlns="http://www.w3.org/2000/svg" xmlns:xlink="http://www.w3.org/1999/xlink" x="0px" y="0px"
	 width="512px" height="512px" viewBox="0 0 512 512" enable-background="new 0 0 512 512" xml:space="preserve">
<g id="Page-1">
	<g id="_x30_10---Education">
		<path id="Shape" fill="#FFFFFF" d="M161.63,456.764c-3.348-3.233-8.67-3.188-11.962,0.104c-3.292,3.291-3.337,8.613-0.104,11.962
			l15.07,15.069c3.348,3.234,8.67,3.188,11.962-0.104c3.292-3.292,3.338-8.614,0.104-11.962L161.63,456.764z"/>
		<path id="Shape_1_" fill="#FFFFFF" d="M241.493,452.267h16.043c27.778,0.048,53.822-13.497,69.734-36.267
			c9.727-14.049,20.184-27.578,31.326-40.533c1.053-1.252,2.015-2.578,2.875-3.969l54.708-58.428
			c12.278-13.242,11.756-33.86-1.178-46.463c-4.624-4.424-10.833-6.801-17.229-6.597c-7.017,0.185-13.673,3.146-18.509,8.234
			l-14.446,15.147c-1.488-3.792-3.736-7.238-6.605-10.13c-11.911-11.094-30.371-11.094-42.282,0
			c-5.616,5.598-8.759,13.208-8.729,21.138v49.664l-12.86,13.482c-5.039,5.105-11.689,8.311-18.824,9.07
			c-0.947,0.19-1.91,0.296-2.875,0.316h-34.902c-1.126-0.028-2.248-0.151-3.354-0.367c-6.858-0.766-13.248-3.855-18.108-8.756
			l-59.896-62.958c-5.858-5.926-15.098-6.86-22.024-2.228c-0.261,0.182-0.512,0.379-0.751,0.589
			c-9.165,8.36-14.614,20.032-15.138,32.427c-0.82,11.316,2.969,22.484,10.504,30.967l25.711,27.845
			c1.624,1.564,2.547,3.719,2.56,5.974c0.002,2.295-0.921,4.494-2.56,6.102l-7.407,7.406l-0.068-0.051
			c-6.495-5.745-16.254-5.745-22.75,0l-70.536,63.471c-7.897,7.093-10.599,18.323-6.791,28.231S60.468,512.022,71.083,512h115.286
			c6.324,0.005,12.428-2.322,17.144-6.536l15.164-13.653c3.528-3.107,5.597-7.547,5.707-12.247c0.11-4.699-1.749-9.231-5.127-12.5
			l10.155-9.898C232.647,454.022,236.982,452.266,241.493,452.267L241.493,452.267z M391.68,279.971
			c1.701-1.801,4.045-2.855,6.52-2.936c1.896-0.016,3.728,0.692,5.12,1.979c6.166,6.106,6.348,16.012,0.41,22.34l-36.796,39.296
			v-34.73L391.68,279.971z M141.542,345.045c-4.421-5.111-6.596-11.79-6.033-18.525c0.331-7.435,3.401-14.483,8.619-19.789
			l59.819,62.908c7.472,7.646,17.326,12.516,27.938,13.807c1.932,0.355,3.89,0.541,5.854,0.555h34.902
			c1.794-0.004,3.584-0.167,5.35-0.486c10.884-1.287,20.997-6.266,28.655-14.105l15.274-16.051c1.507-1.587,2.348-3.691,2.347-5.88
			V294.4c0.001-3.398,1.345-6.658,3.737-9.071c5.115-4.741,13.019-4.741,18.134,0c2.388,2.415,3.728,5.675,3.729,9.071v58.795
			c-0.002,3.012-0.838,5.966-2.415,8.533c-0.152,0.219-0.292,0.447-0.419,0.682c-0.4,0.693-0.872,1.343-1.407,1.938
			c-11.517,13.4-22.323,27.395-32.376,41.924c-12.723,18.175-33.529,28.979-55.714,28.929h-16.042
			c-8.957,0.009-17.556,3.512-23.97,9.762l-11.093,10.795l-46.345-40.593l6.605-6.613c4.859-4.815,7.583-11.379,7.561-18.219
			c0.016-6.654-2.619-13.042-7.322-17.75L141.542,345.045z M207.36,479.087l-15.164,13.653c-1.594,1.443-3.678,2.228-5.828,2.193
			H71.083c-3.551,0.021-6.745-2.158-8.019-5.474s-0.36-7.073,2.293-9.435l70.502-63.411l6.135,5.376l59.136,51.789l6.169,5.273
			L207.36,479.087z"/>
		<path id="Shape_2_" fill="#FFFFFF" d="M59.733,198.229v32.17c0,9.426,7.641,17.067,17.066,17.067h34.133
			c9.426,0,17.067-7.641,17.067-17.067v-32.17c-0.058-15.517-10.576-29.042-25.6-32.922V98.27l34.133,14.626v57.173
			c0,36.053,65.075,68.864,136.533,68.864S409.6,206.123,409.6,170.069v-57.173l46.029-19.721c3.136-1.345,5.169-4.43,5.169-7.842
			c0-3.413-2.033-6.497-5.169-7.842l-179.2-76.8c-2.147-0.92-4.577-0.92-6.724,0l-179.201,76.8
			c-3.137,1.345-5.171,4.429-5.171,7.842v79.974C70.309,169.187,59.792,182.712,59.733,198.229z M392.533,170.069
			c0,20.386-51.303,51.797-119.467,51.797S153.6,190.456,153.6,170.069v-49.852l116.105,49.758c2.146,0.92,4.576,0.92,6.724,0
			l116.104-49.758V170.069z M273.066,17.817l157.534,67.516l-32.794,14.054l-0.128,0.051l-124.612,53.41L148.48,99.439l-0.128-0.051
			l-12.911-5.521h137.625c4.713,0,8.533-3.82,8.533-8.533s-3.82-8.534-8.533-8.534H135.441L273.066,17.817z M76.8,198.229
			c0-9.426,7.641-17.067,17.067-17.067s17.066,7.641,17.066,17.067v32.17H76.8V198.229z"/>
		<path id="Shape_3_" fill="#FFFFFF" d="M6.869,113.689l16.743,3.328c0.562,0.111,1.134,0.165,1.707,0.162
			c4.391,0,8.065-3.332,8.493-7.702s-2.53-8.351-6.837-9.203L10.24,96.947c-4.624-0.919-9.116,2.084-10.036,6.707
			c-0.919,4.624,2.084,9.116,6.708,10.035H6.869z"/>
		<path id="Shape_4_" fill="#FFFFFF" d="M485.061,206.925l16.742,3.328c0.563,0.106,1.134,0.16,1.707,0.162
			c4.391,0,8.064-3.332,8.492-7.702s-2.53-8.351-6.837-9.203l-16.742-3.328c-4.624-0.919-9.116,2.083-10.035,6.707
			c-0.92,4.623,2.083,9.116,6.707,10.035H485.061z"/>
		<path id="Shape_5_" fill="#FFFFFF" d="M8.533,210.415c0.573-0.002,1.144-0.056,1.707-0.162l16.742-3.328
			c4.623-0.919,7.626-5.412,6.707-10.035s-5.412-7.626-10.035-6.707L6.912,193.51c-4.301,0.851-7.258,4.822-6.839,9.186
			S4.149,210.397,8.533,210.415z"/>
		<path id="Shape_6_" fill="#FFFFFF" d="M486.716,117.18c0.573,0.003,1.145-0.051,1.707-0.162l16.742-3.328
			c2.99-0.594,5.437-2.739,6.417-5.626c0.981-2.887,0.347-6.079-1.663-8.371c-2.011-2.293-5.091-3.339-8.082-2.745l-16.742,3.328
			c-4.308,0.852-7.266,4.833-6.838,9.203c0.429,4.37,4.103,7.702,8.493,7.702H486.716z"/>
		<path id="Shape_7_" fill="#FFFFFF" d="M45.491,299.613c1.686,0.001,3.333-0.498,4.736-1.434l14.191-9.48
			c3.891-2.628,4.927-7.906,2.318-11.811s-7.881-4.968-11.799-2.38l-14.199,9.48c-3.124,2.091-4.511,5.979-3.417,9.575
			C38.415,297.16,41.733,299.617,45.491,299.613z"/>
		<path id="Shape_8_" fill="#FFFFFF" d="M452.335,34.133c1.687-0.002,3.335-0.504,4.736-1.442l14.19-9.48
			c3.919-2.621,4.972-7.921,2.352-11.84c-2.621-3.918-7.922-4.971-11.841-2.351l-14.19,9.48c-3.132,2.088-4.525,5.981-3.431,9.582
			C445.246,31.683,448.571,34.142,452.335,34.133z"/>
		<path id="Shape_9_" fill="#FFFFFF" d="M54.938,32.691c2.535,1.712,5.793,1.938,8.539,0.589s4.56-4.064,4.754-7.117
			c0.195-3.053-1.26-5.977-3.813-7.663L50.227,9.02c-2.535-1.695-5.782-1.909-8.517-0.561c-2.735,1.348-4.544,4.053-4.745,7.096
			c-0.2,3.042,1.238,5.961,3.773,7.657L54.938,32.691z"/>
		<path id="Shape_10_" fill="#FFFFFF" d="M457.071,274.509c-2.535-1.695-5.782-1.909-8.518-0.562s-4.544,4.053-4.744,7.096
			c-0.201,3.043,1.237,5.962,3.772,7.656l14.19,9.48c2.535,1.695,5.782,1.91,8.518,0.562c2.735-1.348,4.544-4.052,4.744-7.095
			c0.201-3.043-1.237-5.962-3.772-7.657L457.071,274.509z"/>
	</g>
</g>
</svg>
