<svg xmlns="http://www.w3.org/2000/svg" viewBox="0 0 216.16 216.16"><g id="Layer_2" data-name="Layer 2"><g id="Layer_1-2" data-name="Layer 1"><path d="M108.06,168.88a6.08,6.08,0,0,0,6.08-6.08H102A6.09,6.09,0,0,0,108.06,168.88Z"/><path d="M158.92,134.06a18.71,18.71,0,0,1-8.3-15.27V102a42.55,42.55,0,0,0-42.56-42.56c-.92,0-1.88,0-2.82.09A43.51,43.51,0,0,0,65.5,103.65v15.14a18.72,18.72,0,0,1-8.29,15.27,9.18,9.18,0,0,0-3.73,9.12,9.58,9.58,0,0,0,9.62,7.46h90a9.56,9.56,0,0,0,9.58-7.46A9.16,9.16,0,0,0,158.92,134.06Z"/><path d="M108.08,0h0A108.08,108.08,0,0,0,0,108.08H0A108.08,108.08,0,0,0,108.08,216.16h0A108.08,108.08,0,0,0,216.16,108.08h0A108.08,108.08,0,0,0,108.08,0Zm66.57,145.25a21.83,21.83,0,0,1-21.59,17.55H126.3a18.24,18.24,0,1,1-36.48,0H63.1a21.82,21.82,0,0,1-21.59-17.55,21.2,21.2,0,0,1,8.67-21.12,6.71,6.71,0,0,0,3.16-5.34V103.65a55.75,55.75,0,0,1,48.64-56V41.2a6.08,6.08,0,1,1,12.16,0v6.47a54,54,0,0,1,31.35,14.41A54.86,54.86,0,0,1,162.78,102v16.79a6.72,6.72,0,0,0,3.17,5.34A21.22,21.22,0,0,1,174.65,145.25Z"/></g></g></svg>