<?xml version="1.0" encoding="utf-8"?>
<!-- Generator: Adobe Illustrator 16.0.2, SVG Export Plug-In . SVG Version: 6.00 Build 0)  -->
<!DOCTYPE svg PUBLIC "-//W3C//DTD SVG 1.1//EN" "http://www.w3.org/Graphics/SVG/1.1/DTD/svg11.dtd">
<svg version="1.1" id="Camada_1" xmlns="http://www.w3.org/2000/svg" xmlns:xlink="http://www.w3.org/1999/xlink" x="0px" y="0px"
	 width="361px" height="361px" viewBox="0 0 361 361" enable-background="new 0 0 361 361" xml:space="preserve">
<path fill="#FFFFFF" d="M353.566,143.037c0-36.769-29.917-66.686-66.689-66.686c-8.178,0-15.984,1.551-23.229,4.26
	c-18.755-22.477-44.116-37.649-72.126-43.647V30.65c0-16.9-13.751-30.65-30.654-30.65c-16.899,0-30.649,13.75-30.649,30.65v8.106
	c-54.865,15.005-95.359,65.158-95.359,124.715V265.64h-3.407c-16.899,0-30.649,13.751-30.649,30.653
	c0,16.9,13.75,30.65,30.649,30.65h93.181c4.611,19.787,22.106,34.056,43.048,34.056c20.941,0,38.441-14.269,43.047-34.056h86.368
	c16.903,0,30.649-13.75,30.649-30.65c0-16.902-13.746-30.653-30.649-30.653h-3.406v-56.26
	C327.273,205.954,353.566,177.51,353.566,143.037z M339.944,143.037c0,29.262-23.806,53.064-53.067,53.064
	c-29.259,0-53.064-23.802-53.064-53.064s23.806-53.064,53.064-53.064C316.139,89.973,339.944,113.775,339.944,143.037z
	 M143.839,30.65c0-9.389,7.635-17.028,17.028-17.028s17.028,7.639,17.028,17.028v4.139c-4.498-0.472-9.042-0.733-13.622-0.733
	c-6.968,0-13.758,0.709-20.434,1.773V30.65z M167.68,347.377c-13.349,0-24.601-8.418-28.81-20.434h57.62
	C192.281,338.959,181.029,347.377,167.68,347.377z M297.096,279.266c9.393,0,17.027,7.639,17.027,17.027
	c0,9.39-7.635,17.028-17.027,17.028H31.452c-9.393,0-17.028-7.639-17.028-17.028c0-9.389,7.635-17.027,17.028-17.027h10.219
	c3.765,0,6.809-3.052,6.809-6.813V163.472c0-63.849,51.945-115.794,115.793-115.794c33.394,0,64.671,14.331,86.688,39.263
	c-18.478,11.868-30.774,32.556-30.774,56.096c0,34.473,26.296,62.917,59.877,66.343v63.073c0,3.761,3.048,6.813,6.813,6.813H297.096
	z"/>
<path fill="#FFFFFF" d="M268.652,168.07c1.742,0,3.488-0.666,4.816-1.995l18.225-18.221c1.279-1.278,1.996-3.013,1.996-4.817
	v-26.035c0-3.761-3.049-6.809-6.813-6.809c-3.766,0-6.81,3.048-6.81,6.809v23.217l-16.229,16.225c-2.662,2.658-2.662,6.973,0,9.631
	C265.168,167.408,266.91,168.07,268.652,168.07z"/>
<path fill="#FFFFFF" d="M184.708,265.64h-13.622c-3.765,0-6.813,3.052-6.813,6.813c0,3.761,3.048,6.813,6.813,6.813h13.622
	c3.765,0,6.813-3.052,6.813-6.813C191.521,268.691,188.473,265.64,184.708,265.64z"/>
<path fill="#FFFFFF" d="M146.107,265.64h-70.38c-3.765,0-6.813,3.052-6.813,6.813c0,3.761,3.048,6.813,6.813,6.813h70.38
	c3.765,0,6.813-3.052,6.813-6.813C152.92,268.691,149.873,265.64,146.107,265.64z"/>
</svg>
