<svg width="21" height="23" viewBox="0 0 21 23" fill="none" xmlns="http://www.w3.org/2000/svg">
<path d="M3.17598 23C2.67285 23 2.23262 22.8083 1.85527 22.425C1.47793 22.0417 1.28926 21.5944 1.28926 21.0833V2.875H0.943359C0.670833 2.875 0.445475 2.78449 0.267285 2.60347C0.0890952 2.42245 0 2.19352 0 1.91667C0 1.63981 0.0890952 1.41088 0.267285 1.22986C0.445475 1.04884 0.670833 0.958333 0.943359 0.958333H5.91172C5.91172 0.681481 6.00081 0.452546 6.179 0.271528C6.35719 0.0905094 6.58255 0 6.85508 0H13.2699C13.5424 0 13.7678 0.0905094 13.946 0.271528C14.1242 0.452546 14.2133 0.681481 14.2133 0.958333H19.1816C19.4542 0.958333 19.6795 1.04884 19.8577 1.22986C20.0359 1.41088 20.125 1.63981 20.125 1.91667C20.125 2.19352 20.0359 2.42245 19.8577 2.60347C19.6795 2.78449 19.4542 2.875 19.1816 2.875H18.8357V21.0833C18.8357 21.5944 18.6471 22.0417 18.2697 22.425C17.8924 22.8083 17.4521 23 16.949 23H3.17598ZM3.17598 2.875V21.0833H16.949V2.875H3.17598ZM3.17598 2.875V21.0833V2.875ZM10.0625 13.4167L13.0812 16.5153C13.3118 16.7282 13.5687 16.8347 13.8517 16.8347C14.1347 16.8347 14.381 16.7282 14.5906 16.5153C14.8003 16.3023 14.9103 16.0468 14.9208 15.7486C14.9313 15.4505 14.8212 15.2056 14.5906 15.0139L11.5719 11.8833L14.5906 8.75278C14.8003 8.53981 14.9103 8.28426 14.9208 7.98611C14.9313 7.68796 14.8212 7.44306 14.5906 7.25139C14.381 7.03843 14.1294 6.93194 13.8359 6.93194C13.5424 6.93194 13.2909 7.03843 13.0812 7.25139L10.0625 10.35L7.0752 7.25139C6.88652 7.01713 6.64544 6.90532 6.35195 6.91597C6.05846 6.92662 5.79642 7.03843 5.56582 7.25139C5.33522 7.46435 5.22516 7.71458 5.23564 8.00208C5.24613 8.28958 5.35618 8.55046 5.56582 8.78472L8.58457 11.8833L5.56582 14.9819C5.35618 15.1949 5.25137 15.4451 5.25137 15.7326C5.25137 16.0201 5.35618 16.281 5.56582 16.5153C5.79642 16.7282 6.05322 16.8347 6.33623 16.8347C6.61924 16.8347 6.86556 16.7282 7.0752 16.5153L10.0625 13.4167Z" fill="white"/>
</svg>
