<?xml version="1.0" encoding="utf-8"?>
<!-- Generator: Adobe Illustrator 16.0.2, SVG Export Plug-In . SVG Version: 6.00 Build 0)  -->
<!DOCTYPE svg PUBLIC "-//W3C//DTD SVG 1.1//EN" "http://www.w3.org/Graphics/SVG/1.1/DTD/svg11.dtd">
<svg version="1.1" id="Camada_1" xmlns="http://www.w3.org/2000/svg" xmlns:xlink="http://www.w3.org/1999/xlink" x="0px" y="0px"
	 width="612px" height="792px" viewBox="0 0 612 792" enable-background="new 0 0 612 792" xml:space="preserve">
<g id="Layer_2">
	<g id="Layer_1-2">
		<g id="Page-1">
			<g id="_001---Science-Book">
				<path id="Shape" fill="#FFFFFF" d="M76.008,714.19h46.403v24.438c0.002,13.527,10.97,24.492,24.497,24.49
					c4.431-0.001,8.779-1.203,12.58-3.479l36.347-21.854l36.347,21.854c11.605,6.949,26.647,3.175,33.598-8.431
					c2.276-3.801,3.479-8.149,3.479-12.58V714.19h306c20.291,0,36.74-16.449,36.74-36.74l0,0V65.563
					c0-20.291-16.449-36.74-36.74-36.74l0,0H73.424C32.899,28.884,0.062,61.721,0,102.247v538.52c-0.048,2.4,0.046,4.801,0.281,7.19
					C5.02,686.073,37.601,714.569,76.008,714.19z M244.822,738.628l-36.403-21.797c-7.741-4.665-17.427-4.665-25.168,0
					l-36.347,21.797v-85.615h97.917V738.628z M575.26,689.697h-12.247c-11.572,0-24.493-20.954-24.493-48.987
					c0-28.032,12.921-48.931,24.493-48.931h12.247c4.181-0.045,8.322-0.805,12.247-2.247v87.918c0,6.773-5.475,12.272-12.247,12.303
					V689.697z M24.494,102.247c0-27.023,21.907-48.931,48.931-48.931v48.931c0,6.764,5.483,12.247,12.247,12.247
					s12.247-5.483,12.247-12.247V53.316h477.511c6.764,0,12.246,5.483,12.246,12.247v489.533c0,6.764-5.482,12.246-12.246,12.246
					l0,0H97.918V151.234c0-6.764-5.483-12.247-12.247-12.247s-12.247,5.483-12.247,12.247l0,0v416.108
					c-18.085,0.017-35.521,6.743-48.931,18.876V102.247z M73.424,591.836h452.905c-16.349,30.592-16.349,67.325,0,97.917H269.26
					v-36.74H306c6.748,0.458,12.59-4.641,13.048-11.39c0.458-6.748-4.642-12.59-11.39-13.047c-0.552-0.038-1.106-0.038-1.658,0
					H98.143c-6.748-0.458-12.59,4.641-13.048,11.39c-0.458,6.748,4.642,12.59,11.39,13.047c0.552,0.038,1.106,0.038,1.658,0h24.493
					v36.74H76.008c-25.951,0.497-48.109-18.634-51.402-44.38c-0.085-1.534-0.085-3.072,0-4.606
					C24.729,613.837,46.496,592.02,73.424,591.836z"/>
				<path id="Shape-2" fill="#FFFFFF" d="M342.684,280.836c21.719,0,39.325-17.606,39.325-39.325s-17.606-39.324-39.325-39.324
					c-21.718,0-39.324,17.606-39.324,39.324S320.966,280.836,342.684,280.836z M342.684,221.625
					c10.922,0,19.775,8.854,19.775,19.774c-0.001,10.921-8.854,19.775-19.775,19.774c-10.921,0-19.774-8.853-19.774-19.774
					c0-0.019,0-0.038,0-0.056c0-10.89,8.828-19.718,19.719-19.718C342.646,221.625,342.665,221.625,342.684,221.625z"/>
				<path id="Shape-3" fill="#FFFFFF" d="M187.072,397.348c7.079,3.986,15.894,3.135,22.078-2.134
					c11.644-9.631,26.185-15.072,41.291-15.449c2.547,1.271,5.221,2.269,7.977,2.978l-13.876,42.92
					c-1.701,5.156,1.1,10.715,6.255,12.416c1.811,0.598,3.755,0.655,5.598,0.168l28.819-7.191l8.314,58.425
					c0.72,5.382,5.666,9.161,11.048,8.441c2.537-0.339,4.841-1.654,6.424-3.666l31.684-39.773l31.741,39.661
					c3.39,4.28,9.608,5.003,13.889,1.612c1.964-1.556,3.265-3.798,3.639-6.275l8.314-58.2l28.818,7.191
					c5.29,1.354,10.677-1.837,12.031-7.127c0.465-1.817,0.403-3.729-0.178-5.514l-13.988-43.088
					c2.763-0.764,5.437-1.819,7.978-3.146c15.104,0.439,29.631,5.895,41.291,15.505c8.376,6.959,20.809,5.81,27.768-2.566
					c3.539-4.26,5.123-9.812,4.366-15.298c-10.169-78.087-57.414-105.165-75.784-112.917
					c-19.662-100.333-64.885-130.726-81.289-138.59c-5.405-2.645-11.729-2.645-17.135,0c-16.403,7.865-61.795,38.257-81.008,138.59
					c-18.651,7.753-65.84,34.83-76.121,113.086C175.884,385.499,179.891,393.446,187.072,397.348z M416.67,414.932l-22.471-5.617
					c-2.702-0.674-5.563-0.163-7.865,1.404c-2.353,1.528-3.914,4.014-4.27,6.797l-6.629,46.459l-25.224-31.516
					c-3.747-4.266-10.242-4.687-14.509-0.94c-0.333,0.293-0.647,0.607-0.94,0.94l-25.167,31.572l-6.236-46.459
					c-0.423-2.803-2.069-5.272-4.494-6.741c-2.302-1.567-5.163-2.078-7.865-1.404l-22.19,5.618l9.157-28.483
					c21.501,2.169,43.109,3.107,64.716,2.809c21.611,0.29,43.221-0.686,64.717-2.921L416.67,414.932z M488.746,380.102
					c-13.483-11.21-30.02-18.118-47.47-19.831c-0.232-24.029-1.901-48.022-5-71.851
					C454.534,299.599,481.668,325.047,488.746,380.102z M342.684,143.538c13.033,6.235,77.47,46.009,78.649,220.498
					c-25.963,4.498-52.311,6.38-78.649,5.618c-26.338,0.758-52.686-1.124-78.648-5.618
					C265.215,189.547,329.65,149.773,342.684,143.538z M249.204,288.42c-3.143,23.825-4.832,47.82-5.056,71.851
					c-17.453,1.689-34.003,8.556-47.526,19.718C203.756,325.047,230.891,299.599,249.204,288.42z"/>
			</g>
		</g>
	</g>
</g>
</svg>
