<svg xmlns="http://www.w3.org/2000/svg" viewBox="0 0 216.16 216.16"><g id="Layer_2" data-name="Layer 2"><g id="Layer_1-2" data-name="Layer 1"><path d="M108.08,0h0A108.08,108.08,0,0,0,0,108.08H0A108.08,108.08,0,0,0,108.08,216.16h0A108.08,108.08,0,0,0,216.16,108.08h0A108.08,108.08,0,0,0,108.08,0ZM159.4,158.81a9,9,0,0,1-12.72,0l-38.6-38.59L69.49,158.81a9,9,0,0,1-12.73-12.73l38.59-38.59L57.94,70.08A9,9,0,1,1,70.67,57.35l37.41,37.41,37.41-37.41a9,9,0,1,1,12.73,12.73l-37.41,37.41,38.59,38.59A9,9,0,0,1,159.4,158.81Z"/></g></g></svg>