<svg width="72" height="55" viewBox="0 0 72 55" fill="none" xmlns="http://www.w3.org/2000/svg">
<path d="M46.5568 5.35714C45.3676 5.35714 44.2676 5.16369 43.2568 4.77679C42.2459 4.38988 41.7405 3.69048 41.7405 2.67857C41.7405 1.66667 42.2459 0.967262 43.2568 0.580357C44.2676 0.193452 45.3676 0 46.5568 0H68.6757C69.4486 0 70.0878 0.252977 70.5932 0.758929C71.0986 1.26488 71.3513 1.90476 71.3513 2.67857C71.3513 3.45238 71.0986 4.09226 70.5932 4.59821C70.0878 5.10417 69.4486 5.35714 68.6757 5.35714H46.5568ZM46.5568 25.8929C45.7838 25.8929 45.1446 25.6399 44.6392 25.1339C44.1338 24.628 43.8811 23.9881 43.8811 23.2143C43.8811 22.4405 44.1338 21.8006 44.6392 21.2946C45.1446 20.7887 45.7838 20.5357 46.5568 20.5357H68.6757C69.4486 20.5357 70.0878 20.7887 70.5932 21.2946C71.0986 21.8006 71.3513 22.4405 71.3513 23.2143C71.3513 23.9881 71.0986 24.628 70.5932 25.1339C70.0878 25.6399 69.4486 25.8929 68.6757 25.8929H46.5568ZM46.5568 46.4286C45.7838 46.4286 45.1446 46.1756 44.6392 45.6696C44.1338 45.1637 43.8811 44.5238 43.8811 43.75C43.8811 42.9762 44.1338 42.3363 44.6392 41.8304C45.1446 41.3244 45.7838 41.0714 46.5568 41.0714H68.6757C69.4486 41.0714 70.0878 41.3244 70.5932 41.8304C71.0986 42.3363 71.3513 42.9762 71.3513 43.75C71.3513 44.5238 71.0986 45.1637 70.5932 45.6696C70.0878 46.1756 69.4486 46.4286 68.6757 46.4286H46.5568ZM19.9784 54.1964C19.5027 53.7202 19.2649 53.1101 19.2649 52.3661C19.2649 51.622 19.5027 50.9821 19.9784 50.4464L23.8135 46.4286C17.273 46.4286 11.6689 44.1964 7.00135 39.7321C2.33378 35.2679 0 29.7619 0 23.2143C0 16.8452 2.21486 11.3839 6.64459 6.83036C11.0743 2.27679 16.4703 0 22.8324 0H33.7135C34.4865 0 35.1257 0.252977 35.6311 0.758929C36.1365 1.26488 36.3892 1.90476 36.3892 2.67857C36.3892 3.45238 36.1365 4.09226 35.6311 4.59821C35.1257 5.10417 34.4865 5.35714 33.7135 5.35714H22.8324C17.9568 5.35714 13.8243 7.09821 10.4351 10.5804C7.04595 14.0625 5.35135 18.2738 5.35135 23.2143C5.35135 28.2738 7.20946 32.5149 10.9257 35.9375C14.6419 39.3601 19.0865 41.0714 24.2595 41.0714L20.1568 36.9643C19.6811 36.4881 19.4432 35.8929 19.4432 35.1786C19.4432 34.4643 19.7108 33.8393 20.2459 33.3036C20.7811 32.7679 21.4054 32.5 22.1189 32.5C22.8324 32.5 23.4568 32.7679 23.9919 33.3036L32.3757 41.7857C32.673 42.0833 32.8811 42.381 33 42.6786C33.1189 42.9762 33.1784 43.3036 33.1784 43.6607C33.1784 44.0179 33.1189 44.3452 33 44.6429C32.8811 44.9405 32.673 45.2381 32.3757 45.5357L23.6351 54.2857C23.1595 54.7619 22.5649 55 21.8514 55C21.1378 55 20.5135 54.7321 19.9784 54.1964Z" fill="white"/>
</svg>
