<svg xmlns="http://www.w3.org/2000/svg" width="113" height="113" viewBox="0 0 113 113">
  <defs>
    <style>
      .cls-1 {
        fill: #f7f9f9;
        fill-rule: evenodd;
      }
    </style>
  </defs>
  <path id="fa-pencil-square-o_xf044_1" data-name="fa-pencil-square-o [&amp;#xf044;] 1" class="cls-1" d="M52.812,79.788V73.663H46.828V70.09l7.231-7.4,9.476,9.7-7.231,7.4H52.812Zm30.86-43.831-21.82,22.33a1.27,1.27,0,0,1-2.058.064,1.335,1.335,0,0,1,.063-2.105l21.82-22.33a1.271,1.271,0,0,1,2.057-.064,1.336,1.336,0,0,1-.063,2.105h0Zm3.8,33.942a1.842,1.842,0,0,0-2.182.447L81.3,74.429a1.934,1.934,0,0,0-.561,1.4v8.039a9.946,9.946,0,0,1-2.93,7.209,9.494,9.494,0,0,1-7.044,3H18.9a9.493,9.493,0,0,1-7.044-3,9.942,9.942,0,0,1-2.93-7.209V30.789a9.944,9.944,0,0,1,2.93-7.209,9.5,9.5,0,0,1,7.044-3H70.767a10.856,10.856,0,0,1,2.806.383,1.8,1.8,0,0,0,1.995-.51l3.055-3.126a2.014,2.014,0,0,0,.561-1.85,1.93,1.93,0,0,0-1.122-1.467,16.828,16.828,0,0,0-7.294-1.595H18.9A17.1,17.1,0,0,0,6.211,17.806,17.9,17.9,0,0,0,.943,30.789V83.871A17.9,17.9,0,0,0,6.211,96.854,17.094,17.094,0,0,0,18.9,102.246H70.767a17.1,17.1,0,0,0,12.687-5.392,17.907,17.907,0,0,0,5.268-12.983V71.749A1.85,1.85,0,0,0,87.475,69.9ZM40.842,67.538V85.913H58.8l41.895-42.874L82.737,24.665Zm71.32-38.79a5.981,5.981,0,0,0-1.745-4.338l-9.476-9.7a5.923,5.923,0,0,0-8.479,0l-5.736,5.869,17.954,18.375,5.736-5.87A5.977,5.977,0,0,0,112.162,28.748Z"/>
</svg>
