<svg width="25" height="40" viewBox="0 0 25 40" fill="none" xmlns="http://www.w3.org/2000/svg">
<path d="M20.625 -3.82475e-07C21.8333 -2.76839e-07 22.8646 0.427086 23.7188 1.28125C24.5729 2.13542 25 3.16667 25 4.375C25 5.58333 24.5729 6.61458 23.7188 7.46875C22.8646 8.32291 21.8333 8.75 20.625 8.75C19.4167 8.75 18.3854 8.32291 17.5313 7.46875C16.6771 6.61458 16.25 5.58333 16.25 4.375C16.25 3.16667 16.6771 2.13542 17.5313 1.28125C18.3854 0.427085 19.4167 -4.88111e-07 20.625 -3.82475e-07ZM20.625 15.625C21.8333 15.625 22.8646 16.0521 23.7188 16.9062C24.5729 17.7604 25 18.7917 25 20C25 21.2083 24.5729 22.2396 23.7188 23.0937C22.8646 23.9479 21.8333 24.375 20.625 24.375C19.4167 24.375 18.3854 23.9479 17.5313 23.0937C16.6771 22.2396 16.25 21.2083 16.25 20C16.25 18.7917 16.6771 17.7604 17.5313 16.9062C18.3854 16.0521 19.4167 15.625 20.625 15.625ZM20.625 31.25C21.8333 31.25 22.8646 31.6771 23.7188 32.5312C24.5729 33.3854 25 34.4167 25 35.625C25 36.8333 24.5729 37.8646 23.7188 38.7188C22.8646 39.5729 21.8333 40 20.625 40C19.4167 40 18.3854 39.5729 17.5312 38.7187C16.6771 37.8646 16.25 36.8333 16.25 35.625C16.25 34.4167 16.6771 33.3854 17.5313 32.5312C18.3854 31.6771 19.4167 31.25 20.625 31.25ZM4.375 31.25C5.58333 31.25 6.61458 31.6771 7.46875 32.5312C8.32292 33.3854 8.75 34.4167 8.75 35.625C8.75 36.8333 8.32292 37.8646 7.46875 38.7187C6.61458 39.5729 5.58333 40 4.375 40C3.16667 40 2.13542 39.5729 1.28125 38.7187C0.427086 37.8646 2.76839e-07 36.8333 3.82475e-07 35.625C4.88111e-07 34.4167 0.427086 33.3854 1.28125 32.5312C2.13542 31.6771 3.16667 31.25 4.375 31.25ZM4.375 15.625C5.58334 15.625 6.61459 16.0521 7.46875 16.9062C8.32292 17.7604 8.75 18.7917 8.75 20C8.75 21.2083 8.32292 22.2396 7.46875 23.0937C6.61459 23.9479 5.58334 24.375 4.375 24.375C3.16667 24.375 2.13542 23.9479 1.28125 23.0937C0.427087 22.2396 1.64282e-06 21.2083 1.74846e-06 20C1.85409e-06 18.7917 0.427088 17.7604 1.28125 16.9062C2.13542 16.0521 3.16667 15.625 4.375 15.625ZM4.375 -1.80309e-06C5.58334 -1.69746e-06 6.61459 0.427084 7.46875 1.28125C8.32292 2.13542 8.75 3.16667 8.75 4.375C8.75 5.58333 8.32292 6.61458 7.46875 7.46875C6.61459 8.32291 5.58334 8.75 4.375 8.75C3.16667 8.75 2.13542 8.32291 1.28125 7.46875C0.427089 6.61458 3.0088e-06 5.58333 3.11444e-06 4.375C3.22007e-06 3.16667 0.427089 2.13542 1.28126 1.28125C2.13542 0.427084 3.16667 -1.90873e-06 4.375 -1.80309e-06Z" fill="#808080"/>
</svg>
