<svg width="6" height="11" viewBox="0 0 6 11" fill="none" xmlns="http://www.w3.org/2000/svg">
<path d="M3.97221 0.515625C3.97221 0.366667 4.06403 0.24349 4.24767 0.146094C4.43132 0.0486979 4.66357 -5.47741e-08 4.94443 -4.24972e-08C5.2253 -3.02202e-08 5.45755 0.048698 5.64119 0.146094C5.82484 0.24349 5.91666 0.366667 5.91666 0.515625L5.91666 10.4844C5.91666 10.6333 5.82484 10.7565 5.64119 10.8539C5.45755 10.9513 5.2253 11 4.94443 11C4.66357 11 4.43132 10.9513 4.24767 10.8539C4.06403 10.7565 3.97221 10.6333 3.97221 10.4844L3.97221 0.515625ZM0.083323 0.515625C0.083323 0.366666 0.175143 0.243489 0.358785 0.146094C0.542428 0.0486978 0.774681 -2.24763e-07 1.05555 -2.12486e-07C1.33641 -2.00209e-07 1.56866 0.0486978 1.75231 0.146094C1.93595 0.243489 2.02777 0.366667 2.02777 0.515625L2.02777 10.4844C2.02777 10.6333 1.93595 10.7565 1.7523 10.8539C1.56866 10.9513 1.33641 11 1.05554 11C0.774681 11 0.542427 10.9513 0.358785 10.8539C0.175143 10.7565 0.0833225 10.6333 0.0833225 10.4844L0.083323 0.515625Z" fill="white"/>
</svg>
